SplineFontDB: 3.2
FontName: AznauriRoundRegular
FullName: Aznauri Round Regular
FamilyName: Aznauri Round
Weight: Regular
Copyright: Copyright (c) 2019-2023, Archil Imnadze
Version: 5
ItalicAngle: 0
UnderlinePosition: -10
UnderlineWidth: 0
Ascent: 800
Descent: 100
InvalidEm: 0
LayerCount: 2
Layer: 0 0 "Back" 1
Layer: 1 0 "Fore" 0
XUID: [1021 255 1467895372 4477516]
FSType: 0
OS2Version: 0
OS2_WeightWidthSlopeOnly: 0
OS2_UseTypoMetrics: 1
CreationTime: 1570089372
ModificationTime: 1689853290
PfmFamily: 17
TTFWeight: 400
TTFWidth: 5
LineGap: 90
VLineGap: 0
OS2TypoAscent: 0
OS2TypoAOffset: 1
OS2TypoDescent: 0
OS2TypoDOffset: 1
OS2TypoLinegap: 90
OS2WinAscent: 0
OS2WinAOffset: 1
OS2WinDescent: 0
OS2WinDOffset: 1
HheadAscent: 0
HheadAOffset: 1
HheadDescent: 0
HheadDOffset: 1
OS2Vendor: 'PfEd'
Lookup: 258 0 0 "kern" { "kern-subtable" [135,13,0] } ['kern' ('DFLT' <'dflt' > 'cyrl' <'dflt' > 'geor' <'dflt' > 'latn' <'dflt' > ) ]
MarkAttachClasses: 1
DEI: 91125
LangName: 1033
Encoding: UnicodeFull
Compacted: 1
UnicodeInterp: none
NameList: AGL For New Fonts
DisplaySize: -36
AntiAlias: 1
FitToEm: 0
WinInfo: 0 51 17
BeginPrivate: 0
EndPrivate
TeXData: 1 0 0 346030 173015 115343 0 1048576 115343 783286 444596 497025 792723 393216 433062 380633 303038 157286 324010 404750 52429 2506097 1059062 262144
BeginChars: 1114112 300

StartChar: uni10D0
Encoding: 4304 4304 0
Width: 500
VWidth: 0
Flags: W
HStem: 0 50<170.831 329.169> 680 20G<175 225> 680 20G<175 225>
VStem: 50 50<125 200> 175 50<591.746 700> 400 50<125 381.232>
LayerCount: 2
Fore
SplineSet
175 700 m 1xdc
 225 700 l 1
 225 650 l 2
 225 604 242 594 268 568 c 2
 393 443 l 2
 418 418 450 383 450 325 c 2
 450 200 l 1
 450 200 450 0 250 0 c 1
 50 0 50 200 50 200 c 1
 100 200 l 1
 100 200 100 50 250 50 c 1
 400 50 400 200 400 200 c 1
 400 325 l 2
 400 367 382 382 357 407 c 2
 232 532 l 2
 208 556 175 588 175 650 c 2
 175 700 l 1xdc
EndSplineSet
EndChar

StartChar: uni10D1
Encoding: 4305 4305 1
Width: 500
VWidth: 0
Flags: W
HStem: 0 50<170.831 329.169> 350 50<170.831 299.404> 680 20G<150 200> 680 20G<150 200>
VStem: 50 50<125 275> 150 50<609.916 700> 300 50<395 490.084> 400 50<125 274.965>
LayerCount: 2
Fore
SplineSet
150 700 m 1xef
 200 700 l 1
 200 650 l 1
 200 638 212 614 230 599 c 1
 305 536 l 1
 328 517 350 488 350 450 c 1
 350 377 l 1
 419 342 450 257 450 200 c 1
 450 200 450 0 250 0 c 1
 50 0 50 200 50 200 c 1
 50 200 50 400 250 400 c 1
 268 400 285 398 300 395 c 1
 300 450 l 1
 300 462 288 486 270 501 c 1
 195 564 l 1
 172 583 150 612 150 650 c 1
 150 700 l 1xef
250 350 m 1
 100 350 100 200 100 200 c 1
 100 200 100 50 250 50 c 1
 400 50 400 200 400 200 c 1
 400 200 400 350 250 350 c 1
EndSplineSet
EndChar

StartChar: uni10E6
Encoding: 4326 4326 2
Width: 600
VWidth: 0
Flags: W
HStem: 0 50<171.526 450> 650 50<131.268 244.008 355.267 467.871>
VStem: 50 50<125 618.13> 275 50<400 618.23> 500 50<400 618.13>
CounterMasks: 1 38
LayerCount: 2
Fore
SplineSet
187 700 m 1
 243 700 280 673 300 644 c 1
 320 673 356 700 412 700 c 5
 549 700 550 562 550 562 c 1
 550 400 l 1
 500 400 l 1
 500 562 l 1
 500 562 499 650 412 650 c 1
 325 650 325 562 325 562 c 1
 325 400 l 1
 275 400 l 1
 275 562 l 1
 275 562 274 650 187 650 c 1
 100 650 100 562 100 562 c 1
 100 200 l 1
 100 200 100 50 250 50 c 1
 450 50 l 1
 450 0 l 1
 250 0 l 1
 50 0 50 200 50 200 c 1
 50 562 l 1
 50 562 50 700 187 700 c 1
EndSplineSet
EndChar

StartChar: uni10D2
Encoding: 4306 4306 3
Width: 500
VWidth: 0
Flags: W
HStem: 0 50<170.831 329.169> 350 50<170.831 299.404> 650 50<138.616 261.384>
VStem: 50 50<125 275 500 611.011> 300 50<395 611.011> 400 50<125 275>
LayerCount: 2
Fore
SplineSet
200 700 m 5
 350 700 350 550 350 550 c 5
 350 377 l 5
 423 341 450 252 450 200 c 5
 450 200 450 0 250 0 c 5
 50 0 50 200 50 200 c 5
 50 200 50 400 250 400 c 5
 268 400 285 398 300 395 c 5
 300 550 l 5
 300 550 300 650 200 650 c 5
 100 650 100 550 100 550 c 5
 100 500 l 5
 50 500 l 5
 50 550 l 5
 50 550 50 700 200 700 c 5
250 350 m 5
 100 350 100 200 100 200 c 5
 100 200 100 50 250 50 c 5
 400 50 400 200 400 200 c 5
 400 200 400 350 250 350 c 5
EndSplineSet
EndChar

StartChar: uni10D3
Encoding: 4307 4307 4
Width: 600
VWidth: 0
Flags: W
HStem: 0 50<171.526 450> 300 50<338.616 461.384> 650 50<123.916 222.695 337.54 461.384>
VStem: 50 50<125 625.842> 250 50<388.989 611.623> 500 50<388.989 611.011>
LayerCount: 2
Fore
SplineSet
175 700 m 5
 205 700 231 690 249 675 c 4
 261 665 270 652 277 639 c 5
 299 671 339 700 400 700 c 5
 550 700 550 550 550 550 c 5
 550 450 l 5
 550 450 550 300 400 300 c 5
 250 300 250 450 250 450 c 5
 250 550 l 5
 250 550 249 577 239 603 c 4
 234 616 227 628 217 636 c 4
 207 644 195 650 175 650 c 5
 100 650 100 575 100 575 c 5
 100 200 l 5
 100 200 100 50 250 50 c 5
 450 50 l 5
 450 0 l 5
 250 0 l 5
 50 0 50 200 50 200 c 5
 50 575 l 5
 50 575 50 700 175 700 c 5
400 650 m 5
 300 650 300 550 300 550 c 5
 300 450 l 5
 300 450 300 350 400 350 c 5
 500 350 500 450 500 450 c 5
 500 550 l 5
 500 550 500 650 400 650 c 5
EndSplineSet
EndChar

StartChar: uni10D4
Encoding: 4308 4308 5
Width: 500
VWidth: 0
Flags: W
HStem: 0 50<170.831 329.169> 650 50<170.831 329.169>
VStem: 50 50<125 200 500 575> 400 50<125 575>
LayerCount: 2
Fore
SplineSet
250 700 m 1
 450 700 450 500 450 500 c 1
 450 200 l 1
 450 200 450 0 250 0 c 1
 50 0 50 200 50 200 c 1
 100 200 l 1
 100 200 100 50 250 50 c 1
 400 50 400 200 400 200 c 1
 400 500 l 1
 400 500 400 650 250 650 c 1
 100 650 100 500 100 500 c 5
 50 500 l 1
 50 500 50 700 250 700 c 1
EndSplineSet
EndChar

StartChar: uni10D5
Encoding: 4309 4309 6
Width: 500
VWidth: 0
Flags: W
HStem: 0 50<170.831 331.273> 325 50<250 332.681> 650 50<170.831 331.273>
VStem: 50 50<125 200 500 575> 400 50<119.489 255.172 444.166 579.872>
CounterMasks: 1 e0
LayerCount: 2
Fore
SplineSet
250 700 m 1
 450 700 450 512 450 512 c 1
 450 461 422 383 355 350 c 1
 422 317 450 238 450 187 c 1
 450 187 450 0 250 0 c 1
 50 0 50 200 50 200 c 1
 100 200 l 1
 100 200 100 50 250 50 c 1
 400 50 400 187 400 187 c 1
 400 187 400 325 250 325 c 1
 250 375 l 1
 400 375 400 512 400 512 c 1
 400 512 400 650 250 650 c 1
 100 650 100 500 100 500 c 1
 50 500 l 1
 50 500 50 700 250 700 c 1
EndSplineSet
EndChar

StartChar: uni10D6
Encoding: 4310 4310 7
Width: 700
VWidth: 0
Flags: W
HStem: 0 50<394.334 530.594> 325 50<391.492 532.028> 425 50<133.117 243.358> 650 50<133.938 242.029>
VStem: 50 50<508.208 616.062> 275 49<121.922 256.342 315 457 506.265 618.142> 600 50<119.406 256.398>
LayerCount: 2
Fore
SplineSet
188 700 m 1
 273 700 324 633 324 550 c 1
 324 315 l 1
 358 352 408 375 462 375 c 5
 565 375 650 291 650 188 c 1
 650 85 565 0 462 0 c 1
 352 0 275 89 275 200 c 1
 275 457 l 1
 251 437 221 425 188 425 c 1
 112 425 50 486 50 562 c 1
 50 638 112 700 188 700 c 1
188 650 m 1
 139 650 100 611 100 562 c 1
 100 513 139 475 188 475 c 1
 237 475 275 513 275 562 c 1
 275 611 237 650 188 650 c 1
462 325 m 1
 386 325 325 264 325 188 c 1
 325 112 386 50 462 50 c 1
 538 50 600 112 600 188 c 1
 600 264 538 325 462 325 c 1
EndSplineSet
EndChar

StartChar: uni10D7
Encoding: 4311 4311 8
Width: 600
VWidth: 0
Flags: W
HStem: 0 50<127.675 247.835> 650 50<127.675 248.136 351.864 472.325>
VStem: 50 50<78.038 621.962> 275 50<78.038 621.962> 500 50<0 621.962>
CounterMasks: 1 38
LayerCount: 2
Fore
SplineSet
188 700 m 0
 244 700 280 673 300 644 c 1
 320 673 356 700 412 700 c 0
 477 700 516 664 533 630 c 0
 550 596 550 562 550 562 c 1
 550 0 l 1
 500 0 l 1
 500 562 l 1
 500 562 500 586 489 608 c 0
 478 630 460 650 412 650 c 0
 364 650 347 630 336 608 c 0
 325 586 325 562 325 562 c 1
 325 138 l 1
 325 138 325 104 308 70 c 0
 291 36 253 0 188 0 c 0
 123 0 84 36 67 70 c 0
 50 104 50 138 50 138 c 1
 50 562 l 1
 50 562 50 596 67 630 c 0
 84 664 123 700 188 700 c 0
188 650 m 0
 140 650 122 630 111 608 c 0
 100 586 100 562 100 562 c 1
 100 138 l 1
 100 138 100 114 111 92 c 0
 122 70 140 50 188 50 c 0
 236 50 253 70 264 92 c 0
 275 114 275 138 275 138 c 1
 275 562 l 2
 275 562 275 586 264 608 c 0
 253 630 236 650 188 650 c 0
EndSplineSet
EndChar

StartChar: uni10D8
Encoding: 4312 4312 9
Width: 500
VWidth: 0
Flags: W
HStem: 0 21G<50 100 400 450> 0 21G<50 100 400 450> 650 50<168.287 331.713>
VStem: 50 50<0 575.819> 400 50<0 575.819>
LayerCount: 2
Fore
SplineSet
250 700 m 0xb8
 346 700 400 649 425 599 c 0
 450 549 450 500 450 500 c 1
 450 0 l 1
 400 0 l 1
 400 500 l 1
 400 500 400 538 381 576 c 0
 362 614 329 650 250 650 c 0
 171 650 138 614 119 576 c 0
 100 538 100 500 100 500 c 2
 100 0 l 1
 50 0 l 1
 50 500 l 1
 50 500 50 549 75 599 c 0
 100 649 154 700 250 700 c 0xb8
EndSplineSet
EndChar

StartChar: uni10D9
Encoding: 4313 4313 10
Width: 500
VWidth: 0
Flags: W
HStem: 0 50<168.287 331.713> 400 50<250 332.033> 680 20G<400 450> 680 20G<400 450>
VStem: 50 50<124.181 200> 400 50<124.181 325.819 524.181 700>
LayerCount: 2
Fore
SplineSet
400 700 m 1xec
 450 700 l 1
 450 600 l 1
 450 600 450 551 425 501 c 0
 411 473 387 445 352 425 c 1
 387 405 411 377 425 349 c 0
 450 299 450 250 450 250 c 1
 450 200 l 1
 450 200 450 151 425 101 c 0
 400 51 346 0 250 0 c 0
 154 0 100 51 75 101 c 0
 50 151 50 200 50 200 c 1
 100 200 l 1
 100 200 100 162 119 124 c 0
 138 86 171 50 250 50 c 0
 329 50 362 86 381 124 c 0
 400 162 400 200 400 200 c 1
 400 250 l 1
 400 250 400 288 381 326 c 0
 362 364 329 400 250 400 c 1
 250 450 l 1
 329 450 362 486 381 524 c 0
 400 562 400 600 400 600 c 1
 400 700 l 1xec
EndSplineSet
EndChar

StartChar: uni10DA
Encoding: 4314 4314 11
Width: 800
VWidth: 0
Flags: W
HStem: 0 50<171.526 650> 650 50<132.129 245.263 347.852 452.148 554.737 667.871>
VStem: 50 50<125 618.13> 275 50<400 619.495> 475 50<400 619.495> 700 50<400 618.13>
LayerCount: 2
Fore
SplineSet
188 700 m 1
 241 700 276 676 297 648 c 1
 315 675 349 700 400 700 c 1
 451 700 485 675 503 648 c 1
 524 676 559 700 612 700 c 5
 749 700 750 562 750 562 c 1
 750 400 l 1
 700 400 l 1
 700 562 l 1
 700 562 699 650 612 650 c 1
 525 650 525 562 525 562 c 1
 525 400 l 1
 475 400 l 1
 475 575 l 1
 475 575 475 650 400 650 c 1
 325 650 325 575 325 575 c 1
 325 400 l 1
 275 400 l 1
 275 562 l 1
 275 562 275 650 188 650 c 1
 101 650 100 562 100 562 c 1
 100 200 l 1
 100 200 100 50 250 50 c 1
 650 50 l 1
 650 0 l 1
 250 0 l 1
 50 0 50 200 50 200 c 1
 50 562 l 1
 50 562 51 700 188 700 c 1
EndSplineSet
EndChar

StartChar: uni10DB
Encoding: 4315 4315 12
Width: 500
VWidth: 0
Flags: W
HStem: 0 50<170.831 329.169> 350 50<170.831 329.64> 650 50<170.831 329.169>
VStem: 50 50<125 275 500 575> 400 50<125 275 337 575>
LayerCount: 2
Fore
SplineSet
250 700 m 1
 450 700 450 500 450 500 c 1
 450 200 l 1
 450 200 450 0 250 0 c 1
 50 0 50 200 50 200 c 1
 50 200 50 400 250 400 c 1
 321 400 370 372 400 337 c 1
 400 500 l 1
 400 500 400 650 250 650 c 1
 100 650 100 500 100 500 c 1
 50 500 l 1
 50 500 50 700 250 700 c 1
250 350 m 1
 100 350 100 200 100 200 c 1
 100 200 100 50 250 50 c 1
 400 50 400 200 400 200 c 1
 400 200 400 350 250 350 c 1
EndSplineSet
EndChar

StartChar: uni10DC
Encoding: 4316 4316 13
Width: 500
VWidth: 0
Flags: W
HStem: 0 50<168.287 331.713> 350 50<167.362 331.713> 650 50<136.818 450>
VStem: 50 50<124.181 275.989 337 563 563.001 612.558> 400 50<124.181 275.819>
LayerCount: 2
Fore
SplineSet
200 700 m 2
 450 700 l 1
 450 650 l 1
 200 650 l 2
 146 650 126 626 113 601 c 0
 107 588 104 575 102 565 c 0
 102 564 101 563 100 563 c 2
 100 337 l 1
 130 372 179 400 250 400 c 0
 346 400 400 349 425 299 c 0
 450 249 450 200 450 200 c 1
 450 200 450 151 425 101 c 0
 400 51 346 0 250 0 c 0
 154 0 100 51 75 101 c 0
 50 151 50 200 50 200 c 1
 50 550 l 1
 50 550 50 561 52 574 c 0
 54 587 59 605 68 624 c 0
 87 661 129 700 200 700 c 2
250 350 m 0
 171 350 138 314 119 276 c 0
 100 238 100 200 100 200 c 1
 100 200 100 162 119 124 c 0
 138 86 171 50 250 50 c 0
 329 50 362 86 381 124 c 0
 400 162 400 200 400 200 c 1
 400 200 400 238 381 276 c 0
 362 314 329 350 250 350 c 0
EndSplineSet
EndChar

StartChar: uni10DD
Encoding: 4317 4317 14
Width: 600
VWidth: 0
Flags: W
HStem: 0 21G<50 100 500 550> 0 21G<50 100 500 550> 650 50<132.129 244.733 355.992 468.732>
VStem: 50 50<0 618.13> 275 50<400 618.23> 500 50<0 618.13>
CounterMasks: 1 1c
LayerCount: 2
Fore
SplineSet
188 700 m 5xbc
 244 700 280 673 300 644 c 5
 320 673 357 700 413 700 c 5
 550 700 550 562 550 562 c 5
 550 0 l 5
 500 0 l 5
 500 562 l 5
 500 562 500 650 413 650 c 5
 326 650 325 562 325 562 c 5
 325 400 l 5
 275 400 l 5
 275 562 l 5
 275 562 275 650 188 650 c 5
 101 650 100 562 100 562 c 5
 100 0 l 5
 50 0 l 5
 50 562 l 5
 50 562 51 700 188 700 c 5xbc
EndSplineSet
EndChar

StartChar: uni10DE
Encoding: 4318 4318 15
Width: 500
VWidth: 0
Flags: W
HStem: 0 50<168.287 331.713> 350 50<250 332.033> 550 50<227.752 378.953> 680 20G<150 204.151> 680 20G<150 204.151>
VStem: 50 50<124.181 200> 150 50<629.591 700> 400 50<124.181 275.819 421.233 528.767>
LayerCount: 2
Fore
SplineSet
150 700 m 1xf7
 200 700 l 1
 200 700 201 673 211 647 c 0
 216 634 223 622 233 614 c 0
 243 606 255 600 275 600 c 2
 325 600 l 2
 383 600 420 567 435 536 c 0
 450 505 450 475 450 475 c 1
 450 475 450 445 435 414 c 0
 425 393 404 372 375 360 c 1
 398 342 414 320 425 299 c 0
 450 249 450 200 450 200 c 1
 450 200 450 151 425 101 c 0
 400 51 346 0 250 0 c 0
 154 0 100 51 75 101 c 0
 50 151 50 200 50 200 c 1
 100 200 l 1
 100 200 100 162 119 124 c 0
 138 86 171 50 250 50 c 0
 329 50 362 86 381 124 c 0
 400 162 400 200 400 200 c 1
 400 200 400 238 381 276 c 0
 362 314 329 350 250 350 c 1
 250 400 l 1
 325 400 l 2
 367 400 380 417 390 436 c 0
 400 455 400 475 400 475 c 1
 400 475 400 495 390 514 c 0
 380 533 367 550 325 550 c 2
 275 550 l 2
 245 550 219 560 201 575 c 0
 183 590 171 610 164 628 c 0
 151 662 150 692 150 700 c 1xf7
EndSplineSet
EndChar

StartChar: uni10DF
Encoding: 4319 4319 16
Width: 500
VWidth: 0
Flags: W
HStem: 0 50<168.287 331.713> 400 50<50 163.182> 650 50<250 400>
VStem: 50 50<124.181 200> 200 50<488.654 650> 400 50<124.181 650>
LayerCount: 2
Fore
SplineSet
200 700 m 1
 450 700 l 1
 450 200 l 1
 450 200 450 151 425 101 c 0
 400 51 346 0 250 0 c 0
 154 0 100 51 75 101 c 0
 50 151 50 200 50 200 c 1
 100 200 l 1
 100 200 100 162 119 124 c 0
 138 86 171 50 250 50 c 0
 329 50 362 86 381 124 c 0
 400 162 400 200 400 200 c 1
 400 650 l 1
 250 650 l 1
 250 550 l 2
 250 543 249 510 232 476 c 0
 213 439 171 400 100 400 c 2
 50 400 l 1
 50 450 l 1
 100 450 l 2
 154 450 174 474 187 499 c 0
 200 524 200 550 200 550 c 1
 200 700 l 1
EndSplineSet
EndChar

StartChar: uni10E0
Encoding: 4320 4320 17
Width: 600
VWidth: 0
Flags: W
HStem: 0 21G<50 100 500 550> 0 21G<50 100 500 550> 450 50<126.98 247.67 351.864 472.325> 650 50<168.607 450>
VStem: 50 50<0 421.962 471 575.994> 275 50<200 421.962> 500 50<0 421.962>
CounterMasks: 1 0e
LayerCount: 2
Fore
SplineSet
250 700 m 2xbe
 450 700 l 1
 450 650 l 1
 250 650 l 2
 171 650 138 614 119 576 c 0
 110 557 104 538 102 523 c 0
 102 521 101 520 100 519 c 2
 100 471 l 1
 121 488 149 500 187 500 c 0
 243 500 280 473 300 444 c 1
 320 473 356 500 412 500 c 0
 477 500 516 464 533 430 c 0
 550 396 550 363 550 363 c 1
 550 0 l 1
 500 0 l 1
 500 363 l 1
 500 363 500 386 489 408 c 0
 478 430 460 450 412 450 c 0
 364 450 347 430 336 408 c 0
 325 386 325 363 325 363 c 1
 325 200 l 1
 275 200 l 1
 275 363 l 1
 275 363 275 386 264 408 c 0
 253 430 235 450 187 450 c 0
 139 450 122 430 111 408 c 0
 100 386 100 363 100 363 c 1
 100 0 l 1
 50 0 l 1
 50 500 l 1
 50 500 50 513 53 531 c 0
 56 549 63 574 75 599 c 0
 100 649 154 700 250 700 c 2xbe
EndSplineSet
EndChar

StartChar: uni10E1
Encoding: 4321 4321 18
Width: 500
VWidth: 0
Flags: W
HStem: 0 50<168.287 331.713> 680 20G<50 100> 680 20G<50 100>
VStem: 50 50<124.181 700> 400 50<124.181 300>
LayerCount: 2
Fore
SplineSet
50 700 m 1xd8
 100 700 l 1
 100 200 l 1
 100 200 100 162 119 124 c 0
 138 86 171 50 250 50 c 0
 329 50 362 86 381 124 c 0
 400 162 400 200 400 200 c 1
 400 300 l 1
 450 300 l 1
 450 200 l 1
 450 200 450 151 425 101 c 0
 400 51 346 0 250 0 c 0
 154 0 100 51 75 101 c 0
 50 151 50 200 50 200 c 1
 50 700 l 1xd8
EndSplineSet
EndChar

StartChar: uni10E2
Encoding: 4322 4322 19
Width: 600
VWidth: 0
Flags: W
HStem: 0 50<168.607 431.393> 550 50<168.607 275 325 431.393> 680 20G<275 325> 680 20G<275 325>
VStem: 50 50<124.181 475.819> 275 50<400 550 600 700> 500 50<124.181 475.819>
CounterMasks: 1 0e
LayerCount: 2
Fore
SplineSet
275 700 m 1xee
 325 700 l 1
 325 600 l 1
 350 600 l 2
 446 600 500 549 525 499 c 0
 550 449 550 400 550 400 c 1
 550 200 l 1
 550 200 550 151 525 101 c 0
 500 51 446 0 350 0 c 2
 250 0 l 2
 154 0 100 51 75 101 c 0
 50 151 50 200 50 200 c 1
 50 400 l 1
 50 400 50 449 75 499 c 0
 100 549 154 600 250 600 c 2
 275 600 l 1
 275 700 l 1xee
250 550 m 2
 171 550 138 514 119 476 c 0
 100 438 100 400 100 400 c 1
 100 200 l 1
 100 200 100 162 119 124 c 0
 138 86 171 50 250 50 c 2
 350 50 l 2
 429 50 462 86 481 124 c 0
 500 162 500 200 500 200 c 1
 500 400 l 1
 500 400 500 438 481 476 c 0
 462 514 429 550 350 550 c 2
 325 550 l 1
 325 400 l 1
 275 400 l 1
 275 550 l 1
 250 550 l 2
EndSplineSet
EndChar

StartChar: uni10E3
Encoding: 4323 4323 20
Width: 500
VWidth: 0
Flags: W
HStem: 0 50<170.831 329.169> 650 50<50 144.708 255.992 368.732>
VStem: 50 50<125 200> 175 50<500 618.23> 400 50<125 618.13>
LayerCount: 2
Fore
SplineSet
50 700 m 1
 88 700 l 1
 144 700 180 673 200 644 c 1
 220 673 257 700 313 700 c 1
 450 700 450 562 450 562 c 1
 450 200 l 1
 450 200 450 0 250 0 c 1
 50 0 50 200 50 200 c 1
 100 200 l 1
 100 200 100 50 250 50 c 1
 400 50 400 200 400 200 c 1
 400 562 l 1
 400 562 400 650 313 650 c 1
 226 650 225 562 225 562 c 1
 225 500 l 1
 175 500 l 1
 175 562 l 1
 175 562 175 650 88 650 c 1
 50 650 l 1
 50 700 l 1
EndSplineSet
EndChar

StartChar: uni10E4
Encoding: 4324 4324 21
Width: 600
VWidth: 0
Flags: W
HStem: 0 50<268.287 431.713> 350 50<350 432.033> 400 50<136.018 263.982> 650 50<136.018 264.097 371.63 479.15>
VStem: 50 50<488.654 611.346> 150 50<124.181 200> 300 50<488.654 612.216> 500 50<124.181 275.819 474.181 628.767>
LayerCount: 2
Fore
SplineSet
200 700 m 0xbf
 258 700 297 674 319 644 c 1
 336 673 371 700 425 700 c 0
 483 700 520 667 535 636 c 0
 550 605 550 575 550 575 c 1
 550 550 l 1
 550 550 550 501 525 451 c 0
 511 423 487 395 452 375 c 1
 487 355 511 327 525 299 c 0
 550 249 550 200 550 200 c 1
 550 200 550 151 525 101 c 0
 500 51 446 0 350 0 c 0
 254 0 200 51 175 101 c 0
 150 151 150 200 150 200 c 1
 200 200 l 1
 200 200 200 162 219 124 c 0
 238 86 271 50 350 50 c 0
 429 50 462 86 481 124 c 0
 500 162 500 200 500 200 c 1
 500 200 500 238 481 276 c 0
 462 314 429 350 350 350 c 1
 350 400 l 1xdf
 429 400 462 436 481 474 c 0
 500 512 500 550 500 550 c 1
 500 575 l 1
 500 575 500 595 490 614 c 0
 480 633 467 650 425 650 c 0
 383 650 370 633 360 614 c 0
 350 595 350 575 350 575 c 1
 350 550 l 2
 350 543 349 510 332 476 c 0
 313 439 271 400 200 400 c 0
 129 400 87 439 68 476 c 0
 51 510 50 543 50 550 c 0
 50 557 51 590 68 624 c 0
 87 661 129 700 200 700 c 0xbf
200 650 m 0
 146 650 126 626 113 601 c 0
 100 576 100 550 100 550 c 1
 100 550 100 524 113 499 c 0
 126 474 146 450 200 450 c 0xbf
 254 450 274 474 287 499 c 0
 300 524 300 550 300 550 c 1
 300 550 300 576 287 601 c 0
 274 626 254 650 200 650 c 0
EndSplineSet
EndChar

StartChar: uni10E5
Encoding: 4325 4325 22
Width: 500
VWidth: 0
Flags: W
HStem: 0 50<168.287 331.713> 550 50<168.287 332.638> 680 20G<400 450> 680 20G<400 450>
VStem: 50 50<124.181 200 400 475.819> 400 50<124.181 475.989 537 700>
LayerCount: 2
Fore
SplineSet
400 700 m 1xec
 450 700 l 1
 450 400 l 1
 450 200 l 1
 450 200 450 151 425 101 c 0
 400 51 346 0 250 0 c 0
 154 0 100 51 75 101 c 0
 50 151 50 200 50 200 c 1
 100 200 l 1
 100 200 100 162 119 124 c 0
 138 86 171 50 250 50 c 0
 329 50 362 86 381 124 c 0
 400 162 400 200 400 200 c 1
 400 400 l 1
 400 400 400 438 381 476 c 0
 362 514 329 550 250 550 c 0
 171 550 138 514 119 476 c 0
 100 438 100 400 100 400 c 1
 50 400 l 1
 50 400 50 449 75 499 c 0
 100 549 154 600 250 600 c 0
 321 600 370 572 400 537 c 1
 400 700 l 1xec
EndSplineSet
EndChar

StartChar: uni10E7
Encoding: 4327 4327 23
Width: 500
VWidth: 0
Flags: W
HStem: 0 50<170.831 329.169> 400 50<170.831 329.64> 680 20G<50 100 400 450> 680 20G<50 100 400 450>
VStem: 50 50<125 200 525 700> 400 50<125 463 525 700>
LayerCount: 2
Fore
SplineSet
50 700 m 1xec
 100 700 l 1
 100 600 l 1
 100 600 100 450 250 450 c 1
 400 450 400 600 400 600 c 1
 400 700 l 1
 450 700 l 1
 450 200 l 1
 450 200 450 0 250 0 c 1
 50 0 50 200 50 200 c 1
 100 200 l 1
 100 200 100 50 250 50 c 1
 400 50 400 200 400 200 c 1
 400 463 l 1
 370 428 321 400 250 400 c 5
 50 400 50 600 50 600 c 1
 50 700 l 1xec
EndSplineSet
EndChar

StartChar: uni10E8
Encoding: 4328 4328 24
Width: 600
VWidth: 0
Flags: W
HStem: 0 50<270.831 429.169> 350 50<270.831 429.64> 650 50<130.763 244.733 355.992 470.092>
VStem: 50 50<500 618.13> 150 50<125 275> 275 50<500 618.23> 500 50<125 275 337 618.13>
LayerCount: 2
Fore
SplineSet
188 700 m 1
 244 700 280 673 300 644 c 1
 320 673 357 700 413 700 c 1
 545 700 550 562 550 562 c 1
 550 200 l 1
 550 200 550 0 350 0 c 5
 150 0 150 200 150 200 c 1
 150 200 150 400 350 400 c 1
 421 400 470 372 500 337 c 1
 500 562 l 1
 500 562 500 650 413 650 c 1
 326 650 325 562 325 562 c 1
 325 500 l 1
 275 500 l 1
 275 562 l 1
 275 562 275 650 188 650 c 1
 101 650 100 562 100 562 c 1
 100 500 l 1
 50 500 l 1
 50 562 l 1
 50 562 56 700 188 700 c 1
350 350 m 1
 200 350 200 200 200 200 c 1
 200 200 200 50 350 50 c 1
 500 50 500 200 500 200 c 1
 500 200 500 350 350 350 c 1
EndSplineSet
EndChar

StartChar: uni10E9
Encoding: 4329 4329 25
Width: 500
VWidth: 0
Flags: W
HStem: 0 21G<50 100 400 450> 0 21G<50 100 400 450> 250 50<170.36 329.169> 400 50<100 259.898> 650 50<138.616 261.384>
VStem: 50 50<0 175 237 400 450 611.011> 300 50<488.989 611.011> 400 50<0 175>
LayerCount: 2
Fore
SplineSet
200 700 m 5xbf
 350 700 350 550 350 550 c 5
 350 550 350 400 200 400 c 5
 100 400 l 5
 100 237 l 5
 130 272 179 300 250 300 c 5
 450 300 450 100 450 100 c 5
 450 0 l 5
 400 0 l 5
 400 100 l 5
 400 100 400 250 250 250 c 5
 100 250 100 100 100 100 c 5
 100 0 l 5
 50 0 l 5
 50 550 l 5
 50 550 50 700 200 700 c 5xbf
200 650 m 5
 100 650 100 550 100 550 c 5
 100 450 l 5
 200 450 l 5
 300 450 300 550 300 550 c 5
 300 550 300 650 200 650 c 5
EndSplineSet
EndChar

StartChar: uni10EA
Encoding: 4330 4330 26
Width: 500
VWidth: 0
Flags: W
HStem: 0 50<170.831 329.169> 400 50<250 328.474> 680 20G<50 100 400 450> 680 20G<50 100 400 450>
VStem: 50 50<125 700> 400 50<125 325 525 700>
LayerCount: 2
Fore
SplineSet
50 700 m 5xec
 100 700 l 5
 100 200 l 5
 100 200 100 50 250 50 c 5
 400 50 400 200 400 200 c 5
 400 250 l 5
 400 250 400 400 250 400 c 5
 250 450 l 5
 400 450 400 600 400 600 c 5
 400 700 l 5
 450 700 l 5
 450 600 l 5
 450 600 450 551 425 501 c 4
 411 473 387 445 352 425 c 5
 387 405 411 377 425 349 c 4
 450 299 450 250 450 250 c 5
 450 200 l 5
 450 200 450 0 250 0 c 5
 50 0 50 200 50 200 c 5
 50 700 l 5xec
EndSplineSet
EndChar

StartChar: uni10EB
Encoding: 4331 4331 27
Width: 500
VWidth: 0
Flags: W
HStem: 0 50<170.831 329.169> 350 50<170.831 329.64> 680 20G<400 450> 680 20G<400 450>
VStem: 50 50<125 275> 400 50<125 275 337 700>
LayerCount: 2
Fore
SplineSet
400 700 m 1xec
 450 700 l 1
 450 200 l 1
 450 200 450 0 250 0 c 1
 50 0 50 200 50 200 c 1
 50 200 50 400 250 400 c 1
 321 400 370 372 400 337 c 1
 400 700 l 1xec
250 350 m 1
 100 350 100 200 100 200 c 1
 100 200 100 50 250 50 c 1
 400 50 400 200 400 200 c 1
 400 200 400 350 250 350 c 1
EndSplineSet
EndChar

StartChar: uni10EC
Encoding: 4332 4332 28
Width: 600
VWidth: 0
Flags: W
HStem: 0 50<168.287 331.713> 350 50<167.362 331.713> 650 50<127.675 248.136 352.33 472.835>
VStem: 50 50<124.181 275.989 337 621.962> 275 50<500 621.962> 400 50<124.181 275.819> 500 50<500 621.962>
LayerCount: 2
Fore
SplineSet
188 700 m 0
 244 700 280 673 300 644 c 1
 320 673 357 700 413 700 c 0
 478 700 516 664 533 630 c 0
 550 596 550 562 550 562 c 1
 550 500 l 1
 500 500 l 1
 500 562 l 1
 500 562 500 586 489 608 c 0
 478 630 461 650 413 650 c 0
 365 650 347 630 336 608 c 0
 325 586 325 562 325 562 c 1
 325 500 l 1
 275 500 l 1
 275 562 l 2
 275 562 275 586 264 608 c 0
 253 630 236 650 188 650 c 0
 140 650 122 630 111 608 c 0
 100 586 100 562 100 562 c 1
 100 337 l 1
 130 372 179 400 250 400 c 0
 346 400 400 349 425 299 c 0
 450 249 450 200 450 200 c 1
 450 200 450 151 425 101 c 0
 400 51 346 0 250 0 c 0
 154 0 100 51 75 101 c 0
 50 151 50 200 50 200 c 1
 50 562 l 2
 50 562 50 596 67 630 c 0
 84 664 123 700 188 700 c 0
250 350 m 0
 171 350 138 314 119 276 c 0
 100 238 100 200 100 200 c 1
 100 200 100 162 119 124 c 0
 138 86 171 50 250 50 c 0
 329 50 362 86 381 124 c 0
 400 162 400 200 400 200 c 1
 400 200 400 238 381 276 c 0
 362 314 329 350 250 350 c 0
EndSplineSet
EndChar

StartChar: uni10ED
Encoding: 4333 4333 29
Width: 500
VWidth: 0
Flags: W
HStem: 0 50<170.831 329.169> 300 50<238.616 362.675> 550 50<238.616 362.675> 680 20G<400 450> 680 20G<400 450>
VStem: 50 50<125 200> 150 50<388.989 511.011> 400 50<125 335 388.377 511.623 565 700>
LayerCount: 2
Fore
SplineSet
400 700 m 5xf7
 450 700 l 5
 450 200 l 5
 450 200 450 0 250 0 c 5
 50 0 50 200 50 200 c 5
 100 200 l 5
 100 200 100 50 250 50 c 5
 400 50 400 200 400 200 c 5
 400 335 l 5
 377 315 344 300 300 300 c 5
 150 300 150 450 150 450 c 5
 150 450 150 600 300 600 c 5
 344 600 377 585 400 565 c 5
 400 700 l 5xf7
300 550 m 5
 200 550 200 450 200 450 c 5
 200 450 200 350 300 350 c 5
 400 350 400 450 400 450 c 5
 400 450 400 550 300 550 c 5
EndSplineSet
EndChar

StartChar: uni10EE
Encoding: 4334 4334 30
Width: 500
VWidth: 0
Flags: W
HStem: 0 50<170.831 329.169> 350 50<170.36 329.169> 680 20G<50 100> 680 20G<50 100>
VStem: 50 50<125 275 337 700> 400 50<125 275>
LayerCount: 2
Fore
SplineSet
50 700 m 1xec
 100 700 l 1
 100 337 l 1
 130 372 179 400 250 400 c 1
 450 400 450 200 450 200 c 1
 450 200 450 0 250 0 c 1
 50 0 50 200 50 200 c 1
 50 700 l 1xec
250 350 m 1
 100 350 100 200 100 200 c 1
 100 200 100 50 250 50 c 1
 400 50 400 200 400 200 c 1
 400 200 400 350 250 350 c 1
EndSplineSet
EndChar

StartChar: uni10F0
Encoding: 4336 4336 31
Width: 500
VWidth: 0
Flags: W
HStem: 0 50<168.607 372.19> 225 50<250 372.459> 425 50<250 372.459> 650 50<150 372.19>
VStem: 50 50<124.181 200> 400 50<78.038 196.962 296.233 403.767 503.038 621.962>
LayerCount: 2
Fore
SplineSet
150 700 m 1
 312 700 l 2
 377 700 416 664 433 630 c 0
 450 596 450 562 450 562 c 1
 450 562 450 529 433 495 c 0
 426 480 415 465 399 453 c 1
 416 441 428 426 435 411 c 0
 450 380 450 350 450 350 c 1
 450 350 450 320 435 289 c 0
 428 274 416 259 399 247 c 1
 415 235 426 220 433 205 c 0
 450 171 450 138 450 138 c 1
 450 138 450 104 433 70 c 0
 416 36 377 0 312 0 c 2
 250 0 l 2
 154 0 100 51 75 101 c 0
 50 151 50 200 50 200 c 1
 100 200 l 1
 100 200 100 162 119 124 c 0
 138 86 171 50 250 50 c 2
 312 50 l 2
 360 50 378 70 389 92 c 0
 400 114 400 138 400 138 c 1
 400 138 400 161 389 183 c 0
 378 205 360 225 312 225 c 2
 250 225 l 1
 250 275 l 1
 325 275 l 2
 367 275 380 292 390 311 c 0
 400 330 400 350 400 350 c 1
 400 350 400 370 390 389 c 0
 380 408 367 425 325 425 c 2
 250 425 l 1
 250 475 l 1
 312 475 l 1
 360 475 378 495 389 517 c 0
 400 539 400 562 400 562 c 1
 400 562 400 586 389 608 c 0
 378 630 360 650 312 650 c 2
 150 650 l 1
 150 700 l 1
EndSplineSet
EndChar

StartChar: three
Encoding: 51 51 32
Width: 500
VWidth: 0
Flags: W
HStem: 0 50<170.831 331.273> 325 50<250 332.681> 650 50<170.831 331.273>
VStem: 50 50<125 200 500 575> 400 50<119.489 255.172 444.166 579.872>
CounterMasks: 1 e0
LayerCount: 2
Fore
SplineSet
250 700 m 1
 450 700 450 512 450 512 c 1
 450 461 422 383 355 350 c 1
 422 317 450 238 450 187 c 1
 450 187 450 0 250 0 c 1
 50 0 50 200 50 200 c 1
 100 200 l 1
 100 200 100 50 250 50 c 1
 400 50 400 187 400 187 c 1
 400 187 400 325 250 325 c 1
 250 375 l 1
 400 375 400 512 400 512 c 1
 400 512 400 650 250 650 c 1
 100 650 100 500 100 500 c 1
 50 500 l 1
 50 500 50 700 250 700 c 1
EndSplineSet
EndChar

StartChar: uni10EF
Encoding: 4335 4335 33
Width: 500
VWidth: 0
Flags: W
HStem: 0 50<170.831 329.169> 525 50<50 175 225 350> 680 20G<175 225> 680 20G<175 225>
VStem: 50 50<125 200> 175 50<468.768 525 575 700> 400 50<125 256.232>
LayerCount: 2
Fore
SplineSet
175 700 m 1xee
 225 700 l 1
 225 575 l 1
 350 575 l 1
 350 525 l 1
 225 525 l 1
 225 483 243 468 268 443 c 1
 393 318 l 2
 418 293 450 258 450 200 c 1
 450 200 450 0 250 0 c 1
 50 0 50 200 50 200 c 1
 100 200 l 1
 100 200 100 50 250 50 c 1
 400 50 400 200 400 200 c 1
 400 242 382 257 357 282 c 2
 232 407 l 2
 207 432 175 467 175 525 c 1
 50 525 l 1
 50 575 l 1
 175 575 l 1
 175 700 l 1xee
EndSplineSet
EndChar

StartChar: zero
Encoding: 48 48 34
Width: 500
VWidth: 0
Flags: W
HStem: 0 50<170.831 329.169> 650 50<170.831 329.169>
VStem: 50 50<125 575> 400 50<125 575>
LayerCount: 2
Fore
SplineSet
250 700 m 1
 450 700 450 500 450 500 c 1
 450 200 l 1
 450 200 450 0 250 0 c 1
 50 0 50 200 50 200 c 1
 50 500 l 1
 50 500 50 700 250 700 c 1
250 650 m 1
 100 650 100 500 100 500 c 1
 100 200 l 1
 100 200 100 50 250 50 c 1
 400 50 400 200 400 200 c 5
 400 500 l 1
 400 500 400 650 250 650 c 1
EndSplineSet
EndChar

StartChar: one
Encoding: 49 49 35
Width: 300
VWidth: 0
Flags: W
HStem: 0 21G<200 250> 0 21G<200 250> 500 50<50 128.474> 680 20G<180 250> 680 20G<180 250>
VStem: 200 50<0 563 625 700>
LayerCount: 2
Fore
SplineSet
200 700 m 1xb4
 250 700 l 1
 250 0 l 1
 200 0 l 1
 200 563 l 1
 170 528 121 500 50 500 c 1
 50 550 l 1
 200 550 200 700 200 700 c 1xb4
EndSplineSet
EndChar

StartChar: four
Encoding: 52 52 36
Width: 500
VWidth: 0
Flags: W
HStem: 0 21G<400 450> 0 21G<400 450> 300 50<171.526 400> 680 20G<50 100 400 450> 680 20G<50 100 400 450>
VStem: 50 50<425 700> 400 50<0 300 350 700>
LayerCount: 2
Fore
SplineSet
50 700 m 1xb6
 100 700 l 1
 100 500 l 1
 100 500 100 350 250 350 c 1
 400 350 l 1
 400 700 l 1
 450 700 l 1
 450 0 l 1
 400 0 l 1
 400 300 l 1
 250 300 l 1
 50 300 50 500 50 500 c 1
 50 700 l 1xb6
EndSplineSet
EndChar

StartChar: five
Encoding: 53 53 37
Width: 500
VWidth: 0
Flags: W
HStem: 0 50<170.831 329.169> 450 50<100 328.474> 650 50<100 450>
VStem: 50 50<125 200 500 650> 400 50<125 375>
LayerCount: 2
Fore
SplineSet
50 700 m 1
 450 700 l 1
 450 650 l 1
 100 650 l 1
 100 500 l 1
 250 500 l 1
 450 500 450 300 450 300 c 1
 450 200 l 1
 450 200 450 0 250 0 c 1
 50 0 50 200 50 200 c 1
 100 200 l 1
 100 200 100 50 250 50 c 1
 400 50 400 200 400 200 c 1
 400 300 l 1
 400 300 400 450 250 450 c 1
 50 450 l 1
 50 700 l 1
EndSplineSet
EndChar

StartChar: six
Encoding: 54 54 38
Width: 500
VWidth: 0
Flags: W
HStem: 0 50<170.831 329.169> 350 50<170.36 329.169> 650 50<170.831 329.169>
VStem: 50 50<125 275 337 575> 400 50<125 275 500 575>
LayerCount: 2
Fore
SplineSet
250 700 m 1
 450 700 450 500 450 500 c 1
 400 500 l 1
 400 500 400 650 250 650 c 1
 100 650 100 500 100 500 c 1
 100 337 l 1
 130 372 179 400 250 400 c 1
 450 400 450 200 450 200 c 1
 450 200 450 0 250 0 c 1
 50 0 50 200 50 200 c 1
 50 500 l 1
 50 500 50 700 250 700 c 1
250 350 m 1
 100 350 100 200 100 200 c 1
 100 200 100 50 250 50 c 1
 400 50 400 200 400 200 c 1
 400 200 400 350 250 350 c 1
EndSplineSet
EndChar

StartChar: two
Encoding: 50 50 39
Width: 500
VWidth: 0
Flags: W
HStem: 0 50<100 450> 650 50<170.831 329.169>
VStem: 50 50<50 106.232 500 575> 400 50<443.768 575>
LayerCount: 2
Fore
SplineSet
250 700 m 1
 450 700 450 500 450 500 c 1
 450 442 418 407 393 382 c 2
 143 132 l 1
 118 107 100 92 100 50 c 1
 450 50 l 1
 450 0 l 1
 50 0 l 1
 50 50 l 2
 50 108 82 143 107 168 c 2
 357 418 l 2
 382 443 400 458 400 500 c 1
 400 500 400 650 250 650 c 1
 100 650 100 500 100 500 c 1
 50 500 l 1
 50 500 50 700 250 700 c 1
EndSplineSet
EndChar

StartChar: seven
Encoding: 55 55 40
Width: 500
VWidth: 0
Flags: W
HStem: 0 21G<150 200> 0 21G<150 200> 650 50<50 400>
VStem: 150 50<0 231.232> 400 50<468.768 650>
LayerCount: 2
Fore
SplineSet
50 700 m 1xb8
 450 700 l 1
 450 525 l 2
 450 467 418 432 393 407 c 2
 243 257 l 2
 218 232 200 217 200 175 c 2
 200 0 l 1
 150 0 l 1
 150 175 l 2
 150 233 182 268 207 293 c 2
 357 443 l 2
 382 468 400 483 400 525 c 2
 400 650 l 1
 50 650 l 1
 50 700 l 1xb8
EndSplineSet
EndChar

StartChar: eight
Encoding: 56 56 41
Width: 500
VWidth: 0
Flags: W
HStem: 0 50<168.727 331.273> 325 50<167.319 332.681> 650 50<168.727 331.273>
VStem: 50 50<119.489 256 443.5 579.872> 400 50<119.489 256 443.5 579.872>
CounterMasks: 1 e0
LayerCount: 2
Fore
SplineSet
250 700 m 1
 450 700 450 512 450 512 c 1
 450 512 450 466 425 419 c 0
 411 394 389 368 356 350 c 1
 389 332 411 306 425 281 c 0
 450 234 450 187 450 187 c 1
 450 187 450 0 250 0 c 1
 50 0 50 187 50 187 c 1
 50 187 50 234 75 281 c 0
 89 306 111 332 144 350 c 1
 111 368 89 394 75 419 c 0
 50 466 50 512 50 512 c 1
 50 512 50 700 250 700 c 1
250 650 m 1
 100 650 100 512 100 512 c 1
 100 512 100 375 250 375 c 1
 400 375 400 512 400 512 c 1
 400 512 400 650 250 650 c 1
250 325 m 1
 100 325 100 187 100 187 c 1
 100 187 100 50 250 50 c 1
 400 50 400 187 400 187 c 1
 400 187 400 325 250 325 c 1
EndSplineSet
EndChar

StartChar: nine
Encoding: 57 57 42
Width: 500
VWidth: 0
Flags: W
HStem: 0 50<170.831 323.581> 300 50<170.831 329.64> 650 50<170.831 329.169>
VStem: 50 50<125 200 425 575> 400 50<138.653 363 425 575>
LayerCount: 2
Fore
SplineSet
250 700 m 1
 450 700 450 500 450 500 c 1
 450 225 l 1
 450 225 450 0 250 0 c 1
 50 0 50 200 50 200 c 1
 100 200 l 1
 100 200 100 50 250 50 c 1
 400 50 400 225 400 225 c 1
 400 363 l 1
 370 328 321 300 250 300 c 1
 50 300 50 500 50 500 c 1
 50 500 50 700 250 700 c 1
250 650 m 1
 100 650 100 500 100 500 c 1
 100 500 100 350 250 350 c 1
 400 350 400 500 400 500 c 1
 400 500 400 650 250 650 c 1
EndSplineSet
EndChar

StartChar: a
Encoding: 97 97 43
Width: 500
VWidth: 0
Flags: W
HStem: 0 21G<50 100 400 450> 0 21G<50 100 400 450> 325 50<100 400> 650 50<170.831 329.169>
VStem: 50 50<0 325 375 575> 400 50<0 325 375 575>
LayerCount: 2
Fore
SplineSet
250 700 m 1xbc
 450 700 450 500 450 500 c 1
 450 0 l 1
 400 0 l 1
 400 325 l 5
 100 325 l 1
 100 0 l 1
 50 0 l 1
 50 500 l 1
 50 500 50 700 250 700 c 1xbc
250 650 m 1
 100 650 100 500 100 500 c 1
 100 375 l 1
 400 375 l 1
 400 500 l 1
 400 500 400 650 250 650 c 1
EndSplineSet
EndChar

StartChar: b
Encoding: 98 98 44
Width: 500
VWidth: 0
Flags: W
HStem: 0 50<100 337.673> 325 50<100 338.515> 650 50<100 337.673>
VStem: 50 50<50 325 375 650> 400 50<115.852 258.878 441.761 584.71>
CounterMasks: 1 e0
LayerCount: 2
Fore
SplineSet
50 700 m 1
 263 700 l 1
 450 700 450 513 450 513 c 1
 450 465 423 378 361 350 c 1
 423 322 450 236 450 188 c 1
 450 188 450 0 263 0 c 1
 50 0 l 1
 50 700 l 1
100 650 m 1
 100 375 l 1
 263 375 l 1
 400 375 400 513 400 513 c 1
 400 513 400 650 263 650 c 1
 100 650 l 1
100 325 m 1
 100 50 l 1
 263 50 l 1
 400 50 400 188 400 188 c 1
 400 188 400 325 263 325 c 5
 100 325 l 1
EndSplineSet
EndChar

StartChar: c
Encoding: 99 99 45
Width: 500
VWidth: 0
Flags: W
HStem: 0 50<170.831 329.169> 650 50<170.831 329.169>
VStem: 50 50<125 575> 400 50<125 200 500 575>
LayerCount: 2
Fore
SplineSet
250 700 m 5
 450 700 450 500 450 500 c 5
 400 500 l 5
 400 500 400 650 250 650 c 5
 100 650 100 500 100 500 c 5
 100 200 l 5
 100 200 100 50 250 50 c 5
 400 50 400 200 400 200 c 5
 450 200 l 5
 450 200 450 0 250 0 c 5
 50 0 50 200 50 200 c 5
 50 500 l 5
 50 500 50 700 250 700 c 5
EndSplineSet
EndChar

StartChar: d
Encoding: 100 100 46
Width: 500
VWidth: 0
Flags: W
HStem: 0 50<100 328.474> 650 50<100 328.474>
VStem: 50 50<50 650> 400 50<125 575>
LayerCount: 2
Fore
SplineSet
50 700 m 1
 250 700 l 1
 450 700 450 500 450 500 c 1
 450 200 l 1
 450 200 450 0 250 0 c 1
 50 0 l 1
 50 700 l 1
100 650 m 1
 100 50 l 1
 250 50 l 1
 400 50 400 200 400 200 c 1
 400 500 l 1
 400 500 400 650 250 650 c 5
 100 650 l 1
EndSplineSet
EndChar

StartChar: e
Encoding: 101 101 47
Width: 500
VWidth: 0
Flags: W
HStem: 0 50<100 450> 325 50<100 450> 650 50<100 450>
VStem: 50 50<50 325 375 650>
CounterMasks: 1 e0
LayerCount: 2
Fore
SplineSet
50 700 m 1
 450 700 l 1
 450 650 l 1
 100 650 l 1
 100 375 l 1
 450 375 l 1
 450 325 l 1
 100 325 l 1
 100 50 l 1
 450 50 l 1
 450 0 l 1
 50 0 l 1
 50 700 l 1
EndSplineSet
EndChar

StartChar: f
Encoding: 102 102 48
Width: 500
VWidth: 0
Flags: W
HStem: 0 21G<50 100> 0 21G<50 100> 325 50<100 450> 650 50<100 450>
VStem: 50 50<0 325 375 650>
LayerCount: 2
Fore
SplineSet
50 700 m 1xb8
 450 700 l 1
 450 650 l 1
 100 650 l 1
 100 375 l 1
 450 375 l 1
 450 325 l 1
 100 325 l 1
 100 0 l 1
 50 0 l 1
 50 700 l 1xb8
EndSplineSet
EndChar

StartChar: g
Encoding: 103 103 49
Width: 500
VWidth: 0
Flags: W
HStem: 0 50<170.831 329.169> 325 50<250 400> 650 50<170.831 329.169>
VStem: 50 50<125 575> 400 50<125 325 500 575>
CounterMasks: 1 e0
LayerCount: 2
Fore
SplineSet
250 700 m 5
 450 700 450 500 450 500 c 5
 400 500 l 5
 400 500 400 650 250 650 c 5
 100 650 100 500 100 500 c 5
 100 200 l 5
 100 200 100 50 250 50 c 5
 400 50 400 200 400 200 c 5
 400 325 l 5
 250 325 l 5
 250 375 l 5
 450 375 l 5
 450 200 l 5
 450 200 450 0 250 0 c 5
 50 0 50 200 50 200 c 5
 50 500 l 5
 50 500 50 700 250 700 c 5
EndSplineSet
EndChar

StartChar: h
Encoding: 104 104 50
Width: 500
VWidth: 0
Flags: W
HStem: 0 21G<50 100 400 450> 0 21G<50 100 400 450> 326 49<100 400> 680 20G<50 100 400 450> 680 20G<50 100 400 450>
VStem: 50 50<0 326 375 700> 400 50<0 326 375 700>
LayerCount: 2
Fore
SplineSet
50 700 m 5xb6
 100 700 l 5
 100 375 l 5
 400 375 l 5
 400 700 l 5
 450 700 l 5
 450 0 l 5
 400 0 l 5
 400 326 l 5
 100 326 l 5
 100 0 l 5
 50 0 l 5
 50 700 l 5xb6
EndSplineSet
EndChar

StartChar: i
Encoding: 105 105 51
Width: 200
VWidth: 0
Flags: W
HStem: 0 21G<75 125> 0 21G<75 125> 680 20G<75 125> 680 20G<75 125>
VStem: 75 50<0 700>
LayerCount: 2
Fore
SplineSet
75 700 m 1xa8
 125 700 l 1
 125 0 l 1
 75 0 l 1
 75 700 l 1xa8
EndSplineSet
EndChar

StartChar: j
Encoding: 106 106 52
Width: 500
VWidth: 0
Flags: W
HStem: 0 50<168.287 331.713> 680 20G<400 450> 680 20G<400 450>
VStem: 50 50<124.181 200> 400 50<124.181 700>
LayerCount: 2
Fore
SplineSet
400 700 m 1xd8
 450 700 l 1
 450 200 l 1
 450 200 450 151 425 101 c 0
 400 51 346 0 250 0 c 0
 154 0 100 51 75 101 c 0
 50 151 50 200 50 200 c 1
 100 200 l 1
 100 200 100 162 119 124 c 0
 138 86 171 50 250 50 c 0
 329 50 362 86 381 124 c 0
 400 162 400 200 400 200 c 1
 400 700 l 1xd8
EndSplineSet
EndChar

StartChar: l
Encoding: 108 108 53
Width: 500
VWidth: 0
Flags: W
HStem: 0 50<100 450> 680 20G<50 100> 680 20G<50 100>
VStem: 50 50<50 700>
LayerCount: 2
Fore
SplineSet
50 700 m 1xd0
 100 700 l 1
 100 50 l 1
 450 50 l 1
 450 0 l 1
 50 0 l 1
 50 700 l 1xd0
EndSplineSet
EndChar

StartChar: k
Encoding: 107 107 54
Width: 500
VWidth: 0
Flags: W
HStem: 0 21G<50 100 396 446> 0 21G<50 100 396 446> 680 20G<50 100 400 450> 680 20G<50 100 400 450>
VStem: 50 50<0 240 311 700> 396 50<0 172.237 596.17 700>
LayerCount: 2
Fore
SplineSet
450 700 m 1xac
 450 675 l 2
 450 617 423 564 392 533 c 2
 247 387 l 1
 389 243 l 2
 420 212 446 158 446 100 c 2
 446 0 l 1
 396 0 l 1
 396 100 l 2
 396 142 372 188 353 207 c 2
 212 352 l 1
 100 240 l 1
 100 0 l 1
 50 0 l 1
 50 700 l 1
 100 700 l 1
 100 311 l 1
 357 568 l 2
 376 587 400 633 400 675 c 2
 400 700 l 1
 450 700 l 1xac
EndSplineSet
EndChar

StartChar: o
Encoding: 111 111 55
Width: 500
VWidth: 0
Flags: W
HStem: 0 50<170.831 329.169> 650 50<170.831 329.169>
VStem: 50 50<125 575> 400 50<125 575>
LayerCount: 2
Fore
SplineSet
250 700 m 1
 450 700 450 500 450 500 c 1
 450 200 l 1
 450 200 450 0 250 0 c 1
 50 0 50 200 50 200 c 1
 50 500 l 1
 50 500 50 700 250 700 c 1
250 650 m 1
 100 650 100 500 100 500 c 1
 100 200 l 1
 100 200 100 50 250 50 c 1
 400 50 400 200 400 200 c 5
 400 500 l 1
 400 500 400 650 250 650 c 1
EndSplineSet
EndChar

StartChar: p
Encoding: 112 112 56
Width: 500
VWidth: 0
Flags: W
HStem: 0 21G<50 100> 0 21G<50 100> 300 50<100 328.474> 650 50<100 328.474>
VStem: 50 50<0 300 350 650> 400 50<425 575>
LayerCount: 2
Fore
SplineSet
50 700 m 5xbc
 250 700 l 5
 450 700 450 500 450 500 c 5
 450 500 450 300 250 300 c 5
 100 300 l 5
 100 0 l 5
 50 0 l 5
 50 700 l 5xbc
100 650 m 5
 100 350 l 5
 250 350 l 5
 400 350 400 500 400 500 c 5
 400 500 400 650 250 650 c 5
 100 650 l 5
EndSplineSet
EndChar

StartChar: q
Encoding: 113 113 57
Width: 500
VWidth: 0
Flags: W
HStem: 0 50<136.818 200 401.871 450> 150 50<250 298.148> 650 50<168.287 331.713>
VStem: 50 50<88.6543 575.819> 400 50<250 575.819>
LayerCount: 2
Fore
SplineSet
250 700 m 0
 346 700 400 649 425 599 c 0
 450 549 450 500 450 500 c 1
 450 250 l 1
 400 250 l 1
 400 500 l 1
 400 500 400 538 381 576 c 0
 362 614 329 650 250 650 c 0
 171 650 138 614 119 576 c 0
 100 538 100 500 100 500 c 1
 100 150 l 1
 100 150 100 124 113 99 c 0
 126 74 146 50 200 50 c 1
 200 0 l 1
 129 0 87 39 68 76 c 0
 51 110 50 143 50 150 c 2
 50 500 l 1
 50 500 50 549 75 599 c 0
 100 649 154 700 250 700 c 0
250 200 m 1
 275 200 l 2
 300 200 317 184 331 168 c 0
 345 152 359 133 371 114 c 0
 384 95 395 77 406 65 c 0
 417 53 425 50 425 50 c 2
 450 50 l 1
 450 0 l 1
 425 0 l 2
 400 0 383 16 369 32 c 0
 355 48 341 67 329 86 c 0
 317 105 305 123 294 135 c 0
 283 147 275 150 275 150 c 2
 250 150 l 1
 250 200 l 1
EndSplineSet
EndChar

StartChar: s
Encoding: 115 115 58
Width: 500
VWidth: 0
Flags: W
HStem: 0 50<170.831 329.169> 325 50<170.135 329.865> 650 50<168.727 329.169>
VStem: 50 50<125 200 445.128 580.511> 400 50<123.323 258.706 500 575>
CounterMasks: 1 e0
LayerCount: 2
Fore
SplineSet
250 700 m 1
 450 700 450 500 450 500 c 1
 400 500 l 1
 400 500 400 650 250 650 c 1
 100 650 100 513 100 513 c 5
 100 513 100 375 250 375 c 1
 450 375 450 193 450 193 c 1
 450 193 450 0 250 0 c 1
 50 0 50 200 50 200 c 1
 100 200 l 1
 100 200 100 50 250 50 c 1
 400 50 400 193 400 193 c 1
 400 193 400 325 250 325 c 1
 50 325 50 513 50 513 c 1
 50 513 50 700 250 700 c 1
EndSplineSet
EndChar

StartChar: t
Encoding: 116 116 59
Width: 600
VWidth: 0
Flags: W
HStem: 0 21G<275 325> 0 21G<275 325> 650 50<50 275 325 550>
VStem: 275 50<0 650>
LayerCount: 2
Fore
SplineSet
50 700 m 1xb0
 550 700 l 1
 550 650 l 1
 325 650 l 1
 325 0 l 1
 275 0 l 1
 275 650 l 1
 50 650 l 1
 50 700 l 1xb0
EndSplineSet
EndChar

StartChar: u
Encoding: 117 117 60
Width: 500
VWidth: 0
Flags: W
HStem: 0 50<170.831 329.169> 680 20G<50 100 400 450> 680 20G<50 100 400 450>
VStem: 50 50<125 700> 400 50<125 700>
LayerCount: 2
Fore
SplineSet
50 700 m 1xd8
 100 700 l 1
 100 200 l 1
 100 200 100 50 250 50 c 1
 400 50 400 200 400 200 c 1
 400 700 l 1
 450 700 l 1
 450 200 l 1
 450 200 450 0 250 0 c 1
 50 0 50 200 50 200 c 1
 50 700 l 1xd8
EndSplineSet
EndChar

StartChar: y
Encoding: 121 121 61
Width: 500
VWidth: 0
Flags: W
HStem: 0 21G<275 325> 0 21G<275 325> 300 50<170.831 272.373> 680 20G<50 100 400 450> 680 20G<50 100 400 450>
VStem: 50 50<425 700> 275 50<0 301> 400 50<425.102 700>
LayerCount: 2
Fore
SplineSet
50 700 m 5xb7
 100 700 l 5
 100 500 l 5
 100 500 100 350 250 350 c 5
 400 350 400 500 400 500 c 5
 400 700 l 5
 450 700 l 5
 450 500 l 5
 450 426 405 337 325 312 c 5
 325 0 l 5
 275 0 l 5
 275 301 l 5
 267 300 259 300 250 300 c 5
 50 300 50 500 50 500 c 5
 50 700 l 5xb7
EndSplineSet
EndChar

StartChar: r
Encoding: 114 114 62
Width: 500
VWidth: 0
Flags: W
HStem: -0 21G<50 100 400 450> -0 21G<50 100 400 450> 300 50<100 252> 650 50<100 328.474>
VStem: 50 50<0 300 350 650> 400 50<0 159.237 425.569 575>
LayerCount: 2
Fore
SplineSet
50 700 m 5xbc
 250 700 l 5
 450 700 450 500 450 500 c 5
 450 422 400 331 314 309 c 5
 393 230 l 6
 424 199 450 145 450 87 c 6
 450 0 l 5
 400 0 l 5
 400 87 l 6
 400 129 376 176 357 195 c 6
 252 300 l 5
 100 300 l 5
 100 -0 l 5
 50 -0 l 5
 50 700 l 5xbc
100 650 m 5
 100 350 l 5
 250 350 l 5
 400 350 400 500 400 500 c 5
 400 500 400 650 250 650 c 5
 100 650 l 5
EndSplineSet
EndChar

StartChar: m
Encoding: 109 109 64
Width: 600
VWidth: 0
Flags: W
HStem: 0 21G<50 100 500 550> 0 21G<50 100 500 550> 680 20G<50 100 500 550> 680 20G<50 100 500 550>
VStem: 50 50<0 589 643.375 700> 275 50<300 456.3> 500 50<0 589 643.75 700>
CounterMasks: 1 0e
LayerCount: 2
Fore
SplineSet
300 480 m 5xae
 317 507 332 518 334 519 c 5
 459 619 l 5
 462 621 500 656 500 700 c 5
 550 700 l 5
 550 0 l 5
 500 0 l 5
 500 589 l 5
 496 585 491 581 491 581 c 5
 366 481 l 5
 365 480 340 459 330 429 c 5
 327 420 325 410 325 400 c 5
 325 300 l 5
 275 300 l 5
 275 400 l 5
 275 410 273 420 270 429 c 5
 260 458 235 480 234 481 c 5
 109 580 l 5
 108 580 105 584 100 589 c 5
 100 0 l 5
 50 0 l 5
 50 700 l 5
 100 700 l 5
 100 655 139 621 141 619 c 5
 266 519 l 5
 267 518 284 504 300 480 c 5xae
EndSplineSet
EndChar

StartChar: n
Encoding: 110 110 65
Width: 500
VWidth: 0
Flags: W
HStem: 0 21G<50 100 400 450> 0 21G<50 100 400 450> 680 20G<50 100 400 450> 680 20G<50 100 400 450>
VStem: 50 50<0 558 623.791 700> 400 50<0 275.61 342 700>
LayerCount: 2
Fore
SplineSet
50 0 m 1xac
 50 700 l 1
 100 700 l 1
 100 604 200 522 203 520 c 1
 328 420 l 1
 329 419 367 389 400 342 c 1
 400 700 l 1
 450 700 l 1
 450 0 l 1
 400 0 l 5
 400 0 400 199 400 200 c 1
 400 221 395 241 388 260 c 1
 362 328 299 379 297 380 c 1
 172 480 l 1
 171 481 134 510 100 558 c 1
 100 0 l 1
 50 0 l 1xac
EndSplineSet
EndChar

StartChar: v
Encoding: 118 118 66
Width: 500
VWidth: 0
Flags: W
HStem: 0 21G<225 275> 0 21G<225 275> 680 20G<50 100 400 450> 680 20G<50 100 400 450>
VStem: 50 50<224.352 700> 225 50<0 51.9667> 400 50<224.352 700>
CounterMasks: 1 0e
LayerCount: 2
Fore
SplineSet
250 76 m 5xae
 267 103 281 117 282 118 c 5
 357 193 l 5
 358 194 400 240 400 275 c 5
 400 700 l 5
 450 700 l 5
 450 275 l 5
 450 211 393 157 393 157 c 5
 318 82 l 5
 318 82 291 54 280 24 c 5
 277 15 275 7 275 0 c 5
 274 0 225 0 225 0 c 5
 225 8 223 16 220 25 c 5
 209 54 182 82 182 82 c 5
 107 157 l 5
 107 157 50 211 50 275 c 5
 50 700 l 5
 100 700 l 5
 100 275 l 5
 100 240 142 194 143 193 c 5
 218 118 l 5
 219 117 235 101 250 76 c 5xae
EndSplineSet
EndChar

StartChar: w
Encoding: 119 119 67
Width: 600
VWidth: 0
Flags: W
HStem: 0 21G<162 212 388 438> 0 21G<162 212 388 438> 680 20G<50 100 275 325 500 550> 680 20G<50 100 275 325 500 550>
VStem: 50 50<171.843 700> 162 50<0 54.7605> 275 50<169.979 700> 388 50<0 54.7605> 500 50<169.979 700>
LayerCount: 2
Fore
SplineSet
412 80 m 1xaf80
 431 112 449 128 451 130 c 1
 453 132 500 184 500 225 c 1
 500 700 l 1
 550 700 l 1
 550 225 l 1
 550 155 487 96 486 95 c 1
 486 95 455 62 443 27 c 1
 440 18 438 8 438 0 c 1
 437 0 388 0 388 0 c 5
 388 8 385 18 382 27 c 1
 370 61 340 94 339 95 c 1
 338 96 318 114 300 145 c 1
 283 116 262 96 261 95 c 1
 261 95 230 62 218 27 c 1
 215 18 212 8 212 0 c 1
 211 0 162 0 162 0 c 1
 162 8 160 18 157 27 c 1
 145 61 115 94 114 95 c 1
 114 95 50 154 50 225 c 1
 50 700 l 1
 100 700 l 1
 100 225 l 1
 100 184 148 131 149 130 c 1
 150 129 171 109 188 80 c 1
 207 112 224 128 226 130 c 1
 228 132 275 184 275 225 c 1
 275 700 l 1
 325 700 l 1
 325 225 l 1
 325 184 373 131 374 130 c 1
 375 129 395 109 412 80 c 1xaf80
EndSplineSet
EndChar

StartChar: x
Encoding: 120 120 68
Width: 500
VWidth: 0
Flags: W
HStem: 0 21G<50 100 400 450> 0 21G<50 100 400 450> 680 20G<50 100 400 450> 680 20G<50 100 400 450>
VStem: 50 50<0 172.237 528.119 700> 400 50<0 172.237 527.763 700>
LayerCount: 2
Fore
SplineSet
400 700 m 1xac
 450 700 l 1
 450 600 l 2
 450 542 424 488 393 457 c 1
 285 350 l 1
 393 243 l 2
 424 212 450 158 450 100 c 2
 450 0 l 1
 400 0 l 1
 400 100 l 2
 400 142 376 188 357 207 c 2
 250 315 l 1
 143 207 l 2
 124 188 100 142 100 100 c 2
 100 0 l 1
 50 0 l 1
 50 100 l 2
 50 158 76 212 107 243 c 1
 215 350 l 1
 107 457 l 2
 76 488 50 542 50 602 c 2
 50 700 l 1
 100 700 l 1
 100 602 l 2
 100 559 124 512 143 493 c 2
 250 385 l 1
 357 493 l 2
 376 512 400 558 400 600 c 2
 400 700 l 1xac
EndSplineSet
EndChar

StartChar: z
Encoding: 122 122 69
Width: 500
VWidth: 0
Flags: W
HStem: 0 50<100 450> 650 50<50 400>
VStem: 50 50<50 172.237> 400 50<527.763 650>
LayerCount: 2
Fore
SplineSet
50 700 m 1
 450 700 l 1
 450 600 l 2
 450 542 424 488 393 457 c 2
 143 207 l 1
 124 188 100 142 100 100 c 2
 100 50 l 1
 450 50 l 1
 450 0 l 1
 50 0 l 1
 50 100 l 2
 50 158 76 212 107 243 c 2
 357 493 l 2
 376 512 400 558 400 600 c 2
 400 650 l 1
 50 650 l 1
 50 700 l 1
EndSplineSet
EndChar

StartChar: quotedbl
Encoding: 34 34 70
Width: 400
VWidth: 0
Flags: W
HStem: 500 200<75 125 275 325>
VStem: 75 50<500 700> 275 50<500 700>
LayerCount: 2
Fore
SplineSet
275 700 m 25
 325 700 l 25
 325 500 l 25
 275 500 l 25
 275 700 l 25
75 700 m 25
 125 700 l 25
 125 500 l 25
 75 500 l 25
 75 700 l 25
EndSplineSet
EndChar

StartChar: quotesingle
Encoding: 39 39 71
Width: 200
VWidth: 0
Flags: W
HStem: 500 200<75 125>
VStem: 75 50<500 700>
LayerCount: 2
Fore
SplineSet
75 700 m 25
 125 700 l 25
 125 500 l 25
 75 500 l 25
 75 700 l 25
EndSplineSet
EndChar

StartChar: period
Encoding: 46 46 72
Width: 200
VWidth: 0
Flags: W
HStem: 0 100<75 125>
VStem: 75 50<0 100>
LayerCount: 2
Fore
SplineSet
75 0 m 25
 75 100 l 25
 125 100 l 25
 125 0 l 25
 75 0 l 25
EndSplineSet
EndChar

StartChar: comma
Encoding: 44 44 73
Width: 200
VWidth: 0
InSpiro: 1
Flags: W
HStem: 0 200<75 125>
VStem: 75 50<0 200>
LayerCount: 2
Fore
SplineSet
75 200 m 1
 125 200 l 1
 125 0 l 1
 75 0 l 1
 75 200 l 1
  Spiro
    75 200 v
    125 200 v
    125 0 v
    75 0 v
    0 0 z
  EndSpiro
EndSplineSet
EndChar

StartChar: hyphen
Encoding: 45 45 74
Width: 500
VWidth: 0
Flags: W
HStem: 325 50<50 450>
LayerCount: 2
Fore
SplineSet
50 375 m 25
 450 375 l 25
 450 325 l 25
 50 325 l 25
 50 375 l 25
EndSplineSet
EndChar

StartChar: colon
Encoding: 58 58 75
Width: 200
VWidth: 0
Flags: W
HStem: 0 100<75 125> 300 100<75 125>
VStem: 75 50<0 100 300 400>
LayerCount: 2
Fore
SplineSet
125 300 m 25
 75 300 l 25
 75 400 l 25
 125 400 l 25
 125 300 l 25
125 0 m 25
 75 0 l 25
 75 100 l 25
 125 100 l 25
 125 0 l 25
EndSplineSet
EndChar

StartChar: semicolon
Encoding: 59 59 76
Width: 200
VWidth: 0
Flags: W
HStem: 0 21G<75 125> 0 21G<75 125> 300 100<75 125>
VStem: 75 50<0 200 300 400>
LayerCount: 2
Fore
SplineSet
75 300 m 25x30
 75 400 l 25
 125 400 l 25
 125 300 l 25
 75 300 l 25x30
75 0 m 25xb0
 75 200 l 25
 125 200 l 25
 125 0 l 25
 75 0 l 25xb0
EndSplineSet
EndChar

StartChar: parenleft
Encoding: 40 40 77
Width: 300
VWidth: 0
Flags: W
HStem: 0 50<171.526 250> 650 50<171.526 250>
VStem: 50 50<125 575>
LayerCount: 2
Fore
SplineSet
250 700 m 1
 250 650 l 1
 100 650 100 500 100 500 c 1
 100 200 l 1
 100 200 100 50 250 50 c 1
 250 0 l 1
 50 0 50 200 50 200 c 1
 50 500 l 1
 50 500 50 700 250 700 c 1
EndSplineSet
EndChar

StartChar: parenright
Encoding: 41 41 78
Width: 300
VWidth: 0
Flags: W
HStem: 0 50<50 128.474> 650 50<50 128.474>
VStem: 200 50<125 575>
LayerCount: 2
Fore
SplineSet
50 700 m 1
 250 700 250 500 250 500 c 1
 250 200 l 1
 250 200 250 0 50 0 c 1
 50 50 l 1
 200 50 200 200 200 200 c 1
 200 500 l 1
 200 500 200 650 50 650 c 1
 50 700 l 1
EndSplineSet
EndChar

StartChar: A
Encoding: 65 65 79
Width: 500
VWidth: 0
Flags: W
HStem: 0 21G<50 100 400 450> 0 21G<50 100 400 450> 325 50<100 400> 650 50<170.831 329.169>
VStem: 50 50<0 325 375 575> 400 50<0 325 375 575>
LayerCount: 2
Fore
SplineSet
250 700 m 1xbc
 450 700 450 500 450 500 c 1
 450 0 l 1
 400 0 l 1
 400 325 l 5
 100 325 l 1
 100 0 l 1
 50 0 l 1
 50 500 l 1
 50 500 50 700 250 700 c 1xbc
250 650 m 1
 100 650 100 500 100 500 c 1
 100 375 l 1
 400 375 l 1
 400 500 l 1
 400 500 400 650 250 650 c 1
EndSplineSet
EndChar

StartChar: B
Encoding: 66 66 80
Width: 500
VWidth: 0
Flags: W
HStem: 0 50<100 337.673> 325 50<100 338.515> 650 50<100 337.673>
VStem: 50 50<50 325 375 650> 400 50<115.852 258.878 441.761 584.71>
CounterMasks: 1 e0
LayerCount: 2
Fore
SplineSet
50 700 m 1
 263 700 l 1
 450 700 450 513 450 513 c 1
 450 465 423 378 361 350 c 1
 423 322 450 236 450 188 c 1
 450 188 450 0 263 0 c 1
 50 0 l 1
 50 700 l 1
100 650 m 1
 100 375 l 1
 263 375 l 1
 400 375 400 513 400 513 c 1
 400 513 400 650 263 650 c 1
 100 650 l 1
100 325 m 1
 100 50 l 1
 263 50 l 1
 400 50 400 188 400 188 c 1
 400 188 400 325 263 325 c 5
 100 325 l 1
EndSplineSet
EndChar

StartChar: C
Encoding: 67 67 81
Width: 500
VWidth: 0
Flags: W
HStem: 0 50<170.831 329.169> 650 50<170.831 329.169>
VStem: 50 50<125 575> 400 50<125 200 500 575>
LayerCount: 2
Fore
SplineSet
250 700 m 5
 450 700 450 500 450 500 c 5
 400 500 l 5
 400 500 400 650 250 650 c 5
 100 650 100 500 100 500 c 5
 100 200 l 5
 100 200 100 50 250 50 c 5
 400 50 400 200 400 200 c 5
 450 200 l 5
 450 200 450 0 250 0 c 5
 50 0 50 200 50 200 c 5
 50 500 l 5
 50 500 50 700 250 700 c 5
EndSplineSet
EndChar

StartChar: D
Encoding: 68 68 82
Width: 500
VWidth: 0
Flags: W
HStem: 0 50<100 328.474> 650 50<100 328.474>
VStem: 50 50<50 650> 400 50<125 575>
LayerCount: 2
Fore
SplineSet
50 700 m 1
 250 700 l 1
 450 700 450 500 450 500 c 1
 450 200 l 1
 450 200 450 0 250 0 c 1
 50 0 l 1
 50 700 l 1
100 650 m 1
 100 50 l 1
 250 50 l 1
 400 50 400 200 400 200 c 1
 400 500 l 1
 400 500 400 650 250 650 c 5
 100 650 l 1
EndSplineSet
EndChar

StartChar: E
Encoding: 69 69 83
Width: 500
VWidth: 0
Flags: W
HStem: 0 50<100 450> 325 50<100 450> 650 50<100 450>
VStem: 50 50<50 325 375 650>
CounterMasks: 1 e0
LayerCount: 2
Fore
SplineSet
50 700 m 1
 450 700 l 1
 450 650 l 1
 100 650 l 1
 100 375 l 1
 450 375 l 1
 450 325 l 1
 100 325 l 1
 100 50 l 1
 450 50 l 1
 450 0 l 1
 50 0 l 1
 50 700 l 1
EndSplineSet
EndChar

StartChar: F
Encoding: 70 70 84
Width: 500
VWidth: 0
Flags: W
HStem: 0 21G<50 100> 0 21G<50 100> 325 50<100 450> 650 50<100 450>
VStem: 50 50<0 325 375 650>
LayerCount: 2
Fore
SplineSet
50 700 m 1xb8
 450 700 l 1
 450 650 l 1
 100 650 l 1
 100 375 l 1
 450 375 l 1
 450 325 l 1
 100 325 l 1
 100 0 l 1
 50 0 l 1
 50 700 l 1xb8
EndSplineSet
EndChar

StartChar: G
Encoding: 71 71 85
Width: 500
VWidth: 0
Flags: W
HStem: 0 50<170.831 329.169> 325 50<250 400> 650 50<170.831 329.169>
VStem: 50 50<125 575> 400 50<125 325 500 575>
CounterMasks: 1 e0
LayerCount: 2
Fore
SplineSet
250 700 m 5
 450 700 450 500 450 500 c 5
 400 500 l 5
 400 500 400 650 250 650 c 5
 100 650 100 500 100 500 c 5
 100 200 l 5
 100 200 100 50 250 50 c 5
 400 50 400 200 400 200 c 5
 400 325 l 5
 250 325 l 5
 250 375 l 5
 450 375 l 5
 450 200 l 5
 450 200 450 0 250 0 c 5
 50 0 50 200 50 200 c 5
 50 500 l 5
 50 500 50 700 250 700 c 5
EndSplineSet
EndChar

StartChar: H
Encoding: 72 72 86
Width: 500
VWidth: 0
Flags: W
HStem: 0 21G<50 100 400 450> 0 21G<50 100 400 450> 326 49<100 400> 680 20G<50 100 400 450> 680 20G<50 100 400 450>
VStem: 50 50<0 326 375 700> 400 50<0 326 375 700>
LayerCount: 2
Fore
SplineSet
50 700 m 5xb6
 100 700 l 5
 100 375 l 5
 400 375 l 5
 400 700 l 5
 450 700 l 5
 450 0 l 5
 400 0 l 5
 400 326 l 5
 100 326 l 5
 100 0 l 5
 50 0 l 5
 50 700 l 5xb6
EndSplineSet
EndChar

StartChar: I
Encoding: 73 73 87
Width: 200
VWidth: 0
Flags: W
HStem: 0 21G<75 125> 0 21G<75 125> 680 20G<75 125> 680 20G<75 125>
VStem: 75 50<0 700>
LayerCount: 2
Fore
SplineSet
75 700 m 1xa8
 125 700 l 1
 125 0 l 1
 75 0 l 1
 75 700 l 1xa8
EndSplineSet
EndChar

StartChar: J
Encoding: 74 74 88
Width: 500
VWidth: 0
Flags: W
HStem: 0 50<168.287 331.713> 680 20G<400 450> 680 20G<400 450>
VStem: 50 50<124.181 200> 400 50<124.181 700>
LayerCount: 2
Fore
SplineSet
400 700 m 1xd8
 450 700 l 1
 450 200 l 1
 450 200 450 151 425 101 c 0
 400 51 346 0 250 0 c 0
 154 0 100 51 75 101 c 0
 50 151 50 200 50 200 c 1
 100 200 l 1
 100 200 100 162 119 124 c 0
 138 86 171 50 250 50 c 0
 329 50 362 86 381 124 c 0
 400 162 400 200 400 200 c 1
 400 700 l 1xd8
EndSplineSet
EndChar

StartChar: K
Encoding: 75 75 89
Width: 500
VWidth: 0
Flags: W
HStem: 0 21G<50 100 396 446> 0 21G<50 100 396 446> 680 20G<50 100 400 450> 680 20G<50 100 400 450>
VStem: 50 50<0 240 311 700> 396 50<0 172.237 596.17 700>
LayerCount: 2
Fore
SplineSet
450 700 m 1xac
 450 675 l 2
 450 617 423 564 392 533 c 2
 247 387 l 1
 389 243 l 2
 420 212 446 158 446 100 c 2
 446 0 l 1
 396 0 l 1
 396 100 l 2
 396 142 372 188 353 207 c 2
 212 352 l 1
 100 240 l 1
 100 0 l 1
 50 0 l 1
 50 700 l 1
 100 700 l 1
 100 311 l 1
 357 568 l 2
 376 587 400 633 400 675 c 2
 400 700 l 1
 450 700 l 1xac
EndSplineSet
EndChar

StartChar: L
Encoding: 76 76 90
Width: 500
VWidth: 0
Flags: W
HStem: 0 50<100 450> 680 20G<50 100> 680 20G<50 100>
VStem: 50 50<50 700>
LayerCount: 2
Fore
SplineSet
50 700 m 1xd0
 100 700 l 1
 100 50 l 1
 450 50 l 1
 450 0 l 1
 50 0 l 1
 50 700 l 1xd0
EndSplineSet
EndChar

StartChar: M
Encoding: 77 77 91
Width: 600
VWidth: 0
Flags: W
HStem: 0 21G<50 100 500 550> 0 21G<50 100 500 550> 680 20G<50 100 500 550> 680 20G<50 100 500 550>
VStem: 50 50<0 589 643.375 700> 275 50<300 456.3> 500 50<0 589 643.75 700>
CounterMasks: 1 0e
LayerCount: 2
Fore
SplineSet
300 480 m 5xae
 317 507 332 518 334 519 c 5
 459 619 l 5
 462 621 500 656 500 700 c 5
 550 700 l 5
 550 0 l 5
 500 0 l 5
 500 589 l 5
 496 585 491 581 491 581 c 5
 366 481 l 5
 365 480 340 459 330 429 c 5
 327 420 325 410 325 400 c 5
 325 300 l 5
 275 300 l 5
 275 400 l 5
 275 410 273 420 270 429 c 5
 260 458 235 480 234 481 c 5
 109 580 l 5
 108 580 105 584 100 589 c 5
 100 0 l 5
 50 0 l 5
 50 700 l 5
 100 700 l 5
 100 655 139 621 141 619 c 5
 266 519 l 5
 267 518 284 504 300 480 c 5xae
EndSplineSet
EndChar

StartChar: N
Encoding: 78 78 92
Width: 500
VWidth: 0
Flags: W
HStem: 0 21G<50 100 400 450> 0 21G<50 100 400 450> 680 20G<50 100 400 450> 680 20G<50 100 400 450>
VStem: 50 50<0 558 623.791 700> 400 50<0 275.61 342 700>
LayerCount: 2
Fore
SplineSet
50 0 m 1xac
 50 700 l 1
 100 700 l 1
 100 604 200 522 203 520 c 1
 328 420 l 1
 329 419 367 389 400 342 c 1
 400 700 l 1
 450 700 l 1
 450 0 l 1
 400 0 l 5
 400 0 400 199 400 200 c 1
 400 221 395 241 388 260 c 1
 362 328 299 379 297 380 c 1
 172 480 l 1
 171 481 134 510 100 558 c 1
 100 0 l 1
 50 0 l 1xac
EndSplineSet
EndChar

StartChar: O
Encoding: 79 79 93
Width: 500
VWidth: 0
Flags: W
HStem: 0 50<170.831 329.169> 650 50<170.831 329.169>
VStem: 50 50<125 575> 400 50<125 575>
LayerCount: 2
Fore
SplineSet
250 700 m 1
 450 700 450 500 450 500 c 1
 450 200 l 1
 450 200 450 0 250 0 c 1
 50 0 50 200 50 200 c 1
 50 500 l 1
 50 500 50 700 250 700 c 1
250 650 m 1
 100 650 100 500 100 500 c 1
 100 200 l 1
 100 200 100 50 250 50 c 1
 400 50 400 200 400 200 c 5
 400 500 l 1
 400 500 400 650 250 650 c 1
EndSplineSet
EndChar

StartChar: P
Encoding: 80 80 94
Width: 500
VWidth: 0
Flags: W
HStem: 0 21G<50 100> 0 21G<50 100> 300 50<100 328.474> 650 50<100 328.474>
VStem: 50 50<0 300 350 650> 400 50<425 575>
LayerCount: 2
Fore
SplineSet
50 700 m 5xbc
 250 700 l 5
 450 700 450 500 450 500 c 5
 450 500 450 300 250 300 c 5
 100 300 l 5
 100 0 l 5
 50 0 l 5
 50 700 l 5xbc
100 650 m 5
 100 350 l 5
 250 350 l 5
 400 350 400 500 400 500 c 5
 400 500 400 650 250 650 c 5
 100 650 l 5
EndSplineSet
EndChar

StartChar: Q
Encoding: 81 81 95
Width: 500
VWidth: 0
Flags: W
HStem: 0 50<136.818 200 401.871 450> 150 50<250 298.148> 650 50<168.287 331.713>
VStem: 50 50<88.6543 575.819> 400 50<250 575.819>
LayerCount: 2
Fore
SplineSet
250 700 m 0
 346 700 400 649 425 599 c 0
 450 549 450 500 450 500 c 1
 450 250 l 1
 400 250 l 1
 400 500 l 1
 400 500 400 538 381 576 c 0
 362 614 329 650 250 650 c 0
 171 650 138 614 119 576 c 0
 100 538 100 500 100 500 c 1
 100 150 l 1
 100 150 100 124 113 99 c 0
 126 74 146 50 200 50 c 1
 200 0 l 1
 129 0 87 39 68 76 c 0
 51 110 50 143 50 150 c 2
 50 500 l 1
 50 500 50 549 75 599 c 0
 100 649 154 700 250 700 c 0
250 200 m 1
 275 200 l 2
 300 200 317 184 331 168 c 0
 345 152 359 133 371 114 c 0
 384 95 395 77 406 65 c 0
 417 53 425 50 425 50 c 2
 450 50 l 1
 450 0 l 1
 425 0 l 2
 400 0 383 16 369 32 c 0
 355 48 341 67 329 86 c 0
 317 105 305 123 294 135 c 0
 283 147 275 150 275 150 c 2
 250 150 l 1
 250 200 l 1
EndSplineSet
EndChar

StartChar: R
Encoding: 82 82 96
Width: 500
VWidth: 0
Flags: W
HStem: -0 21G<50 100 400 450> -0 21G<50 100 400 450> 300 50<100 252> 650 50<100 328.474>
VStem: 50 50<0 300 350 650> 400 50<0 159.237 425.569 575>
LayerCount: 2
Fore
SplineSet
50 700 m 5xbc
 250 700 l 5
 450 700 450 500 450 500 c 5
 450 422 400 331 314 309 c 5
 393 230 l 6
 424 199 450 145 450 87 c 6
 450 0 l 5
 400 0 l 5
 400 87 l 6
 400 129 376 176 357 195 c 6
 252 300 l 5
 100 300 l 5
 100 -0 l 5
 50 -0 l 5
 50 700 l 5xbc
100 650 m 5
 100 350 l 5
 250 350 l 5
 400 350 400 500 400 500 c 5
 400 500 400 650 250 650 c 5
 100 650 l 5
EndSplineSet
EndChar

StartChar: S
Encoding: 83 83 97
Width: 500
VWidth: 0
Flags: W
HStem: 0 50<170.831 329.169> 325 50<170.135 329.865> 650 50<168.727 329.169>
VStem: 50 50<125 200 445.128 580.511> 400 50<123.323 258.706 500 575>
CounterMasks: 1 e0
LayerCount: 2
Fore
SplineSet
250 700 m 1
 450 700 450 500 450 500 c 1
 400 500 l 1
 400 500 400 650 250 650 c 1
 100 650 100 513 100 513 c 5
 100 513 100 375 250 375 c 1
 450 375 450 193 450 193 c 1
 450 193 450 0 250 0 c 1
 50 0 50 200 50 200 c 1
 100 200 l 1
 100 200 100 50 250 50 c 1
 400 50 400 193 400 193 c 1
 400 193 400 325 250 325 c 1
 50 325 50 513 50 513 c 1
 50 513 50 700 250 700 c 1
EndSplineSet
EndChar

StartChar: T
Encoding: 84 84 98
Width: 600
VWidth: 0
Flags: W
HStem: 0 21G<275 325> 0 21G<275 325> 650 50<50 275 325 550>
VStem: 275 50<0 650>
LayerCount: 2
Fore
SplineSet
50 700 m 1xb0
 550 700 l 1
 550 650 l 1
 325 650 l 1
 325 0 l 1
 275 0 l 1
 275 650 l 1
 50 650 l 1
 50 700 l 1xb0
EndSplineSet
EndChar

StartChar: U
Encoding: 85 85 99
Width: 500
VWidth: 0
Flags: W
HStem: 0 50<170.831 329.169> 680 20G<50 100 400 450> 680 20G<50 100 400 450>
VStem: 50 50<125 700> 400 50<125 700>
LayerCount: 2
Fore
SplineSet
50 700 m 1xd8
 100 700 l 1
 100 200 l 1
 100 200 100 50 250 50 c 1
 400 50 400 200 400 200 c 1
 400 700 l 1
 450 700 l 1
 450 200 l 1
 450 200 450 0 250 0 c 1
 50 0 50 200 50 200 c 1
 50 700 l 1xd8
EndSplineSet
EndChar

StartChar: V
Encoding: 86 86 100
Width: 500
VWidth: 0
Flags: W
HStem: 0 21G<225 275> 0 21G<225 275> 680 20G<50 100 400 450> 680 20G<50 100 400 450>
VStem: 50 50<224.352 700> 225 50<0 51.9667> 400 50<224.352 700>
CounterMasks: 1 0e
LayerCount: 2
Fore
SplineSet
250 76 m 5xae
 267 103 281 117 282 118 c 5
 357 193 l 5
 358 194 400 240 400 275 c 5
 400 700 l 5
 450 700 l 5
 450 275 l 5
 450 211 393 157 393 157 c 5
 318 82 l 5
 318 82 291 54 280 24 c 5
 277 15 275 7 275 0 c 5
 274 0 225 0 225 0 c 5
 225 8 223 16 220 25 c 5
 209 54 182 82 182 82 c 5
 107 157 l 5
 107 157 50 211 50 275 c 5
 50 700 l 5
 100 700 l 5
 100 275 l 5
 100 240 142 194 143 193 c 5
 218 118 l 5
 219 117 235 101 250 76 c 5xae
EndSplineSet
EndChar

StartChar: W
Encoding: 87 87 101
Width: 600
VWidth: 0
Flags: W
HStem: 0 21G<162 212 388 438> 0 21G<162 212 388 438> 680 20G<50 100 275 325 500 550> 680 20G<50 100 275 325 500 550>
VStem: 50 50<171.843 700> 162 50<0 54.7605> 275 50<169.979 700> 388 50<0 54.7605> 500 50<169.979 700>
LayerCount: 2
Fore
SplineSet
412 80 m 1xaf80
 431 112 449 128 451 130 c 1
 453 132 500 184 500 225 c 1
 500 700 l 1
 550 700 l 1
 550 225 l 1
 550 155 487 96 486 95 c 1
 486 95 455 62 443 27 c 1
 440 18 438 8 438 0 c 1
 437 0 388 0 388 0 c 5
 388 8 385 18 382 27 c 1
 370 61 340 94 339 95 c 1
 338 96 318 114 300 145 c 1
 283 116 262 96 261 95 c 1
 261 95 230 62 218 27 c 1
 215 18 212 8 212 0 c 1
 211 0 162 0 162 0 c 1
 162 8 160 18 157 27 c 1
 145 61 115 94 114 95 c 1
 114 95 50 154 50 225 c 1
 50 700 l 1
 100 700 l 1
 100 225 l 1
 100 184 148 131 149 130 c 1
 150 129 171 109 188 80 c 1
 207 112 224 128 226 130 c 1
 228 132 275 184 275 225 c 1
 275 700 l 1
 325 700 l 1
 325 225 l 1
 325 184 373 131 374 130 c 1
 375 129 395 109 412 80 c 1xaf80
EndSplineSet
EndChar

StartChar: X
Encoding: 88 88 102
Width: 500
VWidth: 0
Flags: W
HStem: 0 21G<50 100 400 450> 0 21G<50 100 400 450> 680 20G<50 100 400 450> 680 20G<50 100 400 450>
VStem: 50 50<0 172.237 528.119 700> 400 50<0 172.237 527.763 700>
LayerCount: 2
Fore
SplineSet
400 700 m 1xac
 450 700 l 1
 450 600 l 2
 450 542 424 488 393 457 c 1
 285 350 l 1
 393 243 l 2
 424 212 450 158 450 100 c 2
 450 0 l 1
 400 0 l 1
 400 100 l 2
 400 142 376 188 357 207 c 2
 250 315 l 1
 143 207 l 2
 124 188 100 142 100 100 c 2
 100 0 l 1
 50 0 l 1
 50 100 l 2
 50 158 76 212 107 243 c 1
 215 350 l 1
 107 457 l 2
 76 488 50 542 50 602 c 2
 50 700 l 1
 100 700 l 1
 100 602 l 2
 100 559 124 512 143 493 c 2
 250 385 l 1
 357 493 l 2
 376 512 400 558 400 600 c 2
 400 700 l 1xac
EndSplineSet
EndChar

StartChar: Y
Encoding: 89 89 103
Width: 500
VWidth: 0
Flags: W
HStem: 0 21G<275 325> 0 21G<275 325> 300 50<170.831 272.373> 680 20G<50 100 400 450> 680 20G<50 100 400 450>
VStem: 50 50<425 700> 275 50<0 301> 400 50<425.102 700>
LayerCount: 2
Fore
SplineSet
50 700 m 5xb7
 100 700 l 5
 100 500 l 5
 100 500 100 350 250 350 c 5
 400 350 400 500 400 500 c 5
 400 700 l 5
 450 700 l 5
 450 500 l 5
 450 426 405 337 325 312 c 5
 325 0 l 5
 275 0 l 5
 275 301 l 5
 267 300 259 300 250 300 c 5
 50 300 50 500 50 500 c 5
 50 700 l 5xb7
EndSplineSet
EndChar

StartChar: Z
Encoding: 90 90 104
Width: 500
VWidth: 0
Flags: W
HStem: 0 50<100 450> 650 50<50 400>
VStem: 50 50<50 172.237> 400 50<527.763 650>
LayerCount: 2
Fore
SplineSet
50 700 m 1
 450 700 l 1
 450 600 l 2
 450 542 424 488 393 457 c 2
 143 207 l 1
 124 188 100 142 100 100 c 2
 100 50 l 1
 450 50 l 1
 450 0 l 1
 50 0 l 1
 50 100 l 2
 50 158 76 212 107 243 c 2
 357 493 l 2
 376 512 400 558 400 600 c 2
 400 650 l 1
 50 650 l 1
 50 700 l 1
EndSplineSet
EndChar

StartChar: at
Encoding: 64 64 105
Width: 500
VWidth: 0
Flags: W
HStem: 0 50<168.607 350> 200 50<302.031 400> 450 50<302.031 398.873> 650 50<168.287 331.713>
VStem: 50 50<124.181 575.819> 250 50<250.624 449.376> 400 50<250 449.814 496 575.819>
LayerCount: 2
Fore
SplineSet
250 700 m 0
 346 700 400 649 425 599 c 0
 450 549 450 500 450 500 c 1
 450 425 l 1
 450 200 l 1
 325 200 l 2
 292 200 268 221 259 239 c 0
 250 257 250 275 250 275 c 1
 250 425 l 1
 250 425 250 443 259 461 c 0
 268 479 292 500 325 500 c 2
 375 500 l 2
 384 500 392 499 400 496 c 1
 400 500 l 1
 400 500 400 538 381 576 c 0
 362 614 329 650 250 650 c 0
 171 650 138 614 119 576 c 0
 100 538 100 500 100 500 c 1
 100 200 l 1
 100 200 100 162 119 124 c 0
 138 86 171 50 250 50 c 2
 350 50 l 1
 350 0 l 1
 250 0 l 2
 154 0 100 51 75 101 c 0
 50 151 50 200 50 200 c 1
 50 500 l 1
 50 500 50 549 75 599 c 0
 100 649 154 700 250 700 c 0
325 450 m 2
 308 450 307 446 304 439 c 0
 301 432 300 425 300 425 c 1
 300 275 l 1
 300 275 301 268 304 261 c 0
 307 254 308 250 325 250 c 2
 400 250 l 1
 400 425 l 1
 400 425 399 432 396 439 c 0
 393 446 392 450 375 450 c 2
 325 450 l 2
EndSplineSet
EndChar

StartChar: question
Encoding: 63 63 106
Width: 500
VWidth: 0
Flags: W
HStem: 0 100<200 250> 650 50<170.831 329.169>
VStem: 50 50<500 575> 200 50<0 100 200 256.232> 400 50<443.768 575>
LayerCount: 2
Fore
SplineSet
250 700 m 1
 450 700 450 500 450 500 c 1
 450 442 418 407 393 382 c 1
 293 282 l 1
 268 257 250 242 250 200 c 1
 200 200 l 1
 200 258 232 293 257 318 c 1
 357 418 l 1
 382 443 400 458 400 500 c 1
 400 500 400 650 250 650 c 1
 100 650 100 500 100 500 c 5
 50 500 l 1
 50 500 50 700 250 700 c 1
200 100 m 1
 250 100 l 1
 250 0 l 1
 200 0 l 1
 200 100 l 1
EndSplineSet
EndChar

StartChar: exclam
Encoding: 33 33 107
Width: 200
VWidth: 0
Flags: W
HStem: 0 100<75 125> 680 20G<75 125> 680 20G<75 125>
VStem: 75 50<0 100 200 700>
LayerCount: 2
Fore
SplineSet
75 0 m 25x90
 75 100 l 25
 125 100 l 25
 125 0 l 25
 75 0 l 25x90
75 200 m 25
 75 700 l 25
 125 700 l 25xd0
 125 200 l 25
 75 200 l 25
EndSplineSet
EndChar

StartChar: plus
Encoding: 43 43 108
Width: 600
VWidth: 0
Flags: W
HStem: 325 50<50 275 325 550>
VStem: 275 50<100 325 375 600>
LayerCount: 2
Fore
SplineSet
275 600 m 1
 325 600 l 1
 325 375 l 1
 550 375 l 1
 550 325 l 1
 325 325 l 1
 325 100 l 1
 275 100 l 1
 275 325 l 1
 50 325 l 1
 50 375 l 1
 275 375 l 1
 275 600 l 1
EndSplineSet
EndChar

StartChar: equal
Encoding: 61 61 109
Width: 500
VWidth: 0
Flags: W
HStem: 200 50<50 450> 450 50<50 450>
LayerCount: 2
Fore
SplineSet
50 250 m 25
 450 250 l 25
 450 200 l 25
 50 200 l 25
 50 250 l 25
50 450 m 25
 50 500 l 25
 450 500 l 25
 450 450 l 25
 50 450 l 25
EndSplineSet
EndChar

StartChar: bracketleft
Encoding: 91 91 110
Width: 300
VWidth: 0
Flags: W
HStem: 0 50<97 253> 660 50<97 253>
VStem: 47 50<50 660>
LayerCount: 2
Fore
SplineSet
47 710 m 1
 253 710 l 1
 253 660 l 1
 97 660 l 1
 97 50 l 1
 253 50 l 1
 253 0 l 1
 47 0 l 1
 47 710 l 1
EndSplineSet
EndChar

StartChar: bracketright
Encoding: 93 93 111
Width: 300
VWidth: 0
Flags: W
HStem: 0 50<48 202> 660 50<48 202>
VStem: 202 50<50 660>
LayerCount: 2
Fore
SplineSet
48 710 m 1
 252 710 l 1
 252 0 l 1
 48 0 l 1
 48 50 l 1
 202 50 l 1
 202 660 l 1
 48 660 l 1
 48 710 l 1
EndSplineSet
EndChar

StartChar: numbersign
Encoding: 35 35 112
Width: 600
VWidth: 0
Flags: W
HStem: 200 50<50 150 200 400 450 550> 450 50<50 150 200 400 450 550>
VStem: 150 50<100 200 250 450 500 600> 400 50<100 200 250 450 500 600>
LayerCount: 2
Fore
SplineSet
400 450 m 25
 200 450 l 25
 200 250 l 25
 400 250 l 25
 400 450 l 25
50 500 m 25
 150 500 l 25
 150 600 l 25
 200 600 l 25
 200 500 l 25
 400 500 l 25
 400 600 l 25
 450 600 l 25
 450 500 l 25
 550 500 l 25
 550 450 l 25
 450 450 l 25
 450 250 l 25
 550 250 l 25
 550 200 l 25
 450 200 l 25
 450 100 l 25
 400 100 l 25
 400 200 l 25
 200 200 l 25
 200 100 l 25
 150 100 l 25
 150 200 l 25
 50 200 l 25
 50 250 l 25
 150 250 l 25
 150 450 l 25
 50 450 l 25
 50 500 l 25
EndSplineSet
EndChar

StartChar: backslash
Encoding: 92 92 113
Width: 600
VWidth: 0
Flags: W
VStem: 50 50<541.972 600> 500 50<100 158.028>
LayerCount: 2
Fore
SplineSet
100 600 m 1
 100 559 117 543 142 518 c 1
 493 218 l 1
 518 193 550 158 550 100 c 1
 500 100 l 1
 500 141 483 157 458 182 c 1
 341 282 225 383 107 482 c 1
 82 507 50 542 50 600 c 1
 100 600 l 1
EndSplineSet
EndChar

StartChar: slash
Encoding: 47 47 114
Width: 600
VWidth: 0
Flags: W
VStem: 50 50<100 158.028> 500 50<541.972 600>
LayerCount: 2
Fore
SplineSet
500 600 m 1
 550 600 l 1
 550 542 518 507 493 482 c 1
 142 182 l 1
 117 157 100 141 100 100 c 1
 50 100 l 1
 50 158 82 193 107 218 c 1
 458 518 l 1
 483 543 500 559 500 600 c 1
EndSplineSet
EndChar

StartChar: braceleft
Encoding: 123 123 115
Width: 400
VWidth: 0
Flags: W
HStem: 0 49<247.672 350> 325 50<50 153.953> 650 50<247.672 350>
VStem: 175 50<71.6932 303.767 396.693 627.332>
LayerCount: 2
Fore
SplineSet
300 700 m 2
 350 700 l 1
 350 650 l 1
 300 650 l 2
 258 650 245 632 235 613 c 0
 225 594 225 575 225 575 c 1
 225 450 l 1
 225 450 225 419 210 388 c 0
 203 374 191 361 176 350 c 1
 191 338 203 325 210 311 c 0
 225 280 225 250 225 250 c 1
 225 125 l 1
 225 125 225 105 235 86 c 0
 245 67 258 49 300 49 c 2
 350 49 l 1
 350 0 l 1
 300 0 l 2
 242 0 205 32 190 63 c 0
 175 94 175 125 175 125 c 1
 175 250 l 1
 175 250 175 270 165 289 c 0
 155 308 142 325 100 325 c 2
 50 325 l 1
 50 375 l 1
 100 375 l 2
 142 375 155 392 165 411 c 0
 175 430 175 450 175 450 c 1
 175 575 l 1
 175 575 175 605 190 636 c 0
 205 667 242 700 300 700 c 2
EndSplineSet
EndChar

StartChar: braceright
Encoding: 125 125 116
Width: 400
VWidth: 0
Flags: W
HStem: 0 49<50 152.328> 325 50<246.047 350> 650 50<50 152.328>
VStem: 175 50<71.6932 303.767 396.693 627.332>
LayerCount: 2
Fore
SplineSet
100 700 m 2
 158 700 195 667 210 636 c 0
 225 605 225 575 225 575 c 1
 225 450 l 1
 225 450 225 430 235 411 c 0
 245 392 258 375 300 375 c 2
 350 375 l 1
 350 325 l 1
 300 325 l 2
 258 325 245 308 235 289 c 0
 225 270 225 250 225 250 c 1
 225 125 l 1
 225 125 225 94 210 63 c 0
 195 32 158 0 100 0 c 2
 50 0 l 1
 50 49 l 1
 100 49 l 2
 142 49 155 67 165 86 c 0
 175 105 175 125 175 125 c 1
 175 250 l 1
 175 250 175 280 190 311 c 0
 197 325 209 338 224 350 c 1
 209 361 197 374 190 388 c 0
 175 419 175 450 175 450 c 1
 175 575 l 1
 175 575 175 594 165 613 c 0
 155 632 142 650 100 650 c 2
 50 650 l 1
 50 700 l 1
 100 700 l 2
EndSplineSet
EndChar

StartChar: percent
Encoding: 37 37 117
Width: 600
VWidth: 0
Flags: W
HStem: 0 50<409.865 490.135> 150 50<409.865 490.135> 500 50<109.865 190.135> 650 50<109.865 190.135>
VStem: 50 50<100 158.028 559.641 640.359> 200 50<559.641 640.359> 350 50<59.7747 140.359> 500 50<59.6405 140.359 541.972 600>
LayerCount: 2
Fore
SplineSet
150 650 m 1
 100 650 100 600 100 600 c 25
 100 600 100 550 150 550 c 1
 200 550 200 600 200 600 c 25
 200 600 200 650 150 650 c 1
150 700 m 1
 250 700 250 600 250 600 c 25
 250 600 250 500 150 500 c 1
 50 500 50 600 50 600 c 25
 50 600 50 700 150 700 c 1
450 150 m 1
 400 150 400 100 400 100 c 25
 400 100 400 50 450 50 c 1
 500 50 500 100 500 100 c 25
 500 100 500 150 450 150 c 1
450 200 m 1
 550 200 550 100 550 100 c 25
 550 100 550 0 450 0 c 1
 350 0 350 97 350 97 c 25
 350 97 350 200 450 200 c 1
500 600 m 1
 550 600 l 1
 550 542 518 507 493 482 c 1
 142 182 l 1
 117 157 100 141 100 100 c 1
 50 100 l 1
 50 158 82 193 107 218 c 1
 458 518 l 1
 483 543 500 559 500 600 c 1
EndSplineSet
EndChar

StartChar: less
Encoding: 60 60 118
Width: 500
VWidth: 0
Flags: W
HStem: 100 50<407.164 450> 550 50<407.164 450>
LayerCount: 2
Fore
SplineSet
450 600 m 1
 450 550 l 2
 452 550 443 548 434 544 c 0
 425 540 413 534 403 528 c 0
 382 516 364 504 364 504 c 2
 164 379 l 1
 164 379 145 366 122 353 c 0
 120 352 117 351 115 350 c 1
 117 349 120 348 122 347 c 0
 145 334 164 321 164 321 c 1
 364 196 l 1
 364 196 382 184 403 172 c 0
 413 166 425 160 434 156 c 0
 443 152 452 150 450 150 c 2
 450 100 l 1
 435 100 426 105 414 110 c 0
 402 115 389 121 378 128 c 0
 355 141 336 154 336 154 c 1
 136 279 l 2
 133 281 81 312 66 319 c 0
 57 323 50 325 50 325 c 1
 50 375 l 5
 50 375 57 377 66 381 c 0
 81 388 133 419 136 421 c 1
 337 546 l 1
 378 572 l 0
 389 579 402 585 414 590 c 0
 426 595 435 600 450 600 c 1
EndSplineSet
EndChar

StartChar: greater
Encoding: 62 62 119
Width: 500
VWidth: 0
Flags: W
HStem: 100 50<50 92.8357> 550 50<50 92.8357>
LayerCount: 2
Fore
SplineSet
50 600 m 1
 65 600 74 595 86 590 c 0
 98 585 111 579 122 572 c 0
 145 559 164 546 164 546 c 1
 364 421 l 2
 364 421 382 409 403 397 c 0
 413 391 425 385 434 381 c 0
 443 377 452 375 450 375 c 2
 450 325 l 2
 452 325 443 323 434 319 c 0
 425 315 413 309 403 303 c 0
 382 291 364 279 364 279 c 1
 163 154 l 1
 122 128 l 0
 111 121 98 115 86 110 c 0
 74 105 65 100 50 100 c 1
 50 150 l 2
 48 150 57 152 66 156 c 0
 75 160 87 166 97 172 c 0
 118 184 136 196 136 196 c 2
 336 321 l 1
 336 321 355 334 378 347 c 0
 380 348 383 349 385 350 c 1
 383 351 380 352 378 353 c 0
 355 366 336 379 336 379 c 1
 136 504 l 2
 136 504 118 516 97 528 c 0
 87 534 75 540 66 544 c 0
 57 548 48 550 50 550 c 2
 50 600 l 1
EndSplineSet
EndChar

StartChar: underscore
Encoding: 95 95 120
Width: 500
VWidth: 0
Flags: W
HStem: 0 50<50 450>
LayerCount: 2
Fore
SplineSet
50 0 m 25
 50 50 l 25
 450 50 l 25
 450 0 l 25
 50 0 l 25
EndSplineSet
EndChar

StartChar: asterisk
Encoding: 42 42 121
Width: 600
VWidth: 0
Flags: W
HStem: 0 21G<275 325> 0 21G<275 325> 680 20G<275 325> 680 20G<275 325>
VStem: 50 50<100 158.028 541.972 600> 275 50<0 296 404 700> 500 50<100 158.028 541.972 600>
CounterMasks: 1 0e
LayerCount: 2
Fore
SplineSet
275 700 m 1xae
 325 700 l 1
 325 404 l 1
 458 518 l 2
 483 543 500 559 500 600 c 1
 550 600 l 1
 550 542 518 507 493 482 c 1
 338 350 l 1
 493 218 l 1
 518 193 550 158 550 100 c 1
 500 100 l 1
 500 141 483 157 458 182 c 2
 325 296 l 1
 325 0 l 1
 275 0 l 1
 275 296 l 1
 142 182 l 2
 117 157 100 141 100 100 c 1
 50 100 l 1
 50 158 82 193 107 218 c 1
 262 350 l 1
 107 482 l 1
 82 507 50 542 50 600 c 1
 100 600 l 1
 100 559 117 543 142 518 c 2
 275 404 l 1
 275 700 l 1xae
EndSplineSet
EndChar

StartChar: bar
Encoding: 124 124 122
Width: 200
VWidth: 0
Flags: W
HStem: 0 21G<75 125> 0 21G<75 125> 680 20G<75 125> 680 20G<75 125>
VStem: 75 50<0 700>
LayerCount: 2
Fore
SplineSet
75 700 m 1xa8
 125 700 l 1
 125 0 l 1
 75 0 l 1
 75 700 l 1xa8
EndSplineSet
EndChar

StartChar: asciitilde
Encoding: 126 126 123
Width: 600
VWidth: 0
Flags: W
HStem: 200 50<355.622 468.824> 450 50<130.622 243.824>
VStem: 50 50<300 416.084> 275 50<283.916 415.096> 500 50<284.904 400>
CounterMasks: 1 38
LayerCount: 2
Fore
SplineSet
187 500 m 0
 253 500 292 460 309 423 c 0
 324 389 325 358 325 350 c 1
 325 350 325 324 337 298 c 0
 349 272 365 250 412 250 c 0
 459 250 476 272 488 298 c 0
 500 324 500 350 500 350 c 1
 500 400 l 1
 550 400 l 1
 550 350 l 2
 550 342 549 311 534 277 c 0
 517 240 478 200 412 200 c 0
 346 200 308 240 291 277 c 0
 276 311 275 342 275 350 c 1
 275 350 275 376 263 402 c 0
 251 428 234 450 187 450 c 0
 140 450 124 428 112 402 c 0
 100 376 100 350 100 350 c 1
 100 300 l 1
 50 300 l 1
 50 350 l 2
 50 358 51 389 66 423 c 0
 83 460 121 500 187 500 c 0
EndSplineSet
EndChar

StartChar: dollar
Encoding: 36 36 124
Width: 600
VWidth: 0
Flags: W
HStem: 0 21G<275 325> 0 21G<275 325> 100 50<50 275 325 464.812> 325 50<135.188 275 325 464.812> 550 50<135.188 275 325 550> 680 20G<275 325> 680 20G<275 325>
VStem: 50 50<409.424 514.96> 275 50<0 100 150 325 375 550 600 700> 500 50<185.04 290.576>
CounterMasks: 1 01c0
LayerCount: 2
Fore
SplineSet
275 700 m 1xbdc0
 325 700 l 1
 325 600 l 1
 550 600 l 1
 550 550 l 1
 325 550 l 1
 325 375 l 1
 400 375 l 1
 550 375 550 238 550 238 c 1
 550 238 550 100 400 100 c 1
 325 100 l 1
 325 0 l 1
 275 0 l 1
 275 100 l 1
 50 100 l 1
 50 150 l 1
 275 150 l 1
 275 325 l 1
 200 325 l 1
 50 325 50 462 50 462 c 1
 50 462 50 600 200 600 c 1
 275 600 l 1
 275 700 l 1xbdc0
200 550 m 1
 100 550 100 462 100 462 c 1
 100 462 100 375 200 375 c 1
 275 375 l 1
 275 550 l 1
 200 550 l 1
325 325 m 1
 325 150 l 1
 400 150 l 1
 500 150 500 238 500 238 c 1
 500 238 500 325 400 325 c 1
 325 325 l 1
EndSplineSet
EndChar

StartChar: asciicircum
Encoding: 94 94 125
Width: 600
VWidth: 0
Flags: W
VStem: 50 50<300 342.743> 500 50<300 342.743>
LayerCount: 2
Fore
SplineSet
275 700 m 2
 325 700 l 2
 325 702 327 693 331 684 c 0
 335 675 341 663 347 653 c 0
 359 632 371 614 371 614 c 2
 496 414 l 2
 496 414 509 394 522 371 c 0
 529 360 535 348 540 336 c 0
 545 324 550 315 550 300 c 1
 500 300 l 2
 500 298 498 307 494 316 c 0
 490 325 484 337 478 347 c 0
 466 368 454 386 454 386 c 2
 321 598 l 1
 321 598 306 622 300 634 c 1
 293 622 286 609 279 598 c 1
 146 386 l 1
 146 386 134 368 122 347 c 0
 116 337 110 325 106 316 c 0
 102 307 100 298 100 300 c 2
 50 300 l 1
 50 315 55 324 60 336 c 0
 65 348 71 360 78 371 c 0
 91 394 104 414 104 414 c 2
 229 614 l 2
 236 623 245 640 253 653 c 0
 259 663 265 675 269 684 c 0
 273 693 275 702 275 700 c 2
EndSplineSet
EndChar

StartChar: copyright
Encoding: 169 169 126
Width: 700
VWidth: 0
Flags: W
HStem: 0 50<168.607 531.393> 200 50<309.957 450> 450 50<309.957 450> 650 50<168.607 531.393>
VStem: 50 50<124.181 575.819> 250 50<257.986 442.014> 600 50<124.181 575.819>
LayerCount: 2
Fore
SplineSet
250 700 m 2
 450 700 l 2
 546 700 600 649 625 599 c 0
 650 549 650 500 650 500 c 1
 650 200 l 1
 650 200 650 151 625 101 c 0
 600 51 546 0 450 0 c 2
 250 0 l 2
 154 0 100 51 75 101 c 0
 50 151 50 200 50 200 c 1
 50 500 l 1
 50 500 50 549 75 599 c 0
 100 649 154 700 250 700 c 2
250 650 m 2
 171 650 138 614 119 576 c 0
 100 538 100 500 100 500 c 1
 100 200 l 1
 100 200 100 162 119 124 c 0
 138 86 171 50 250 50 c 2
 450 50 l 2
 529 50 562 86 581 124 c 0
 600 162 600 200 600 200 c 1
 600 500 l 1
 600 500 600 538 581 576 c 0
 562 614 529 650 450 650 c 2
 250 650 l 2
350 500 m 2
 450 500 l 1
 450 450 l 1
 350 450 l 2
 321 450 313 439 307 426 c 0
 301 413 300 400 300 400 c 1
 300 300 l 1
 300 300 301 287 307 274 c 0
 313 261 321 250 350 250 c 2
 450 250 l 1
 450 200 l 1
 350 200 l 2
 304 200 274 226 262 251 c 0
 250 276 250 300 250 300 c 1
 250 400 l 1
 250 400 250 424 262 449 c 0
 274 474 304 500 350 500 c 2
EndSplineSet
EndChar

StartChar: registered
Encoding: 174 174 127
Width: 700
VWidth: 0
Flags: W
HStem: 0 50<168.607 531.393> 300 50<300 390.619> 450 50<300 390.043> 650 50<168.607 531.393>
VStem: 50 50<124.181 575.819> 250 50<200 300 350 450> 400 50<200 292.014> 600 50<124.181 575.819>
LayerCount: 2
Fore
SplineSet
250 700 m 2
 450 700 l 2
 546 700 600 649 625 599 c 0
 650 549 650 500 650 500 c 1
 650 200 l 1
 650 200 650 151 625 101 c 0
 600 51 546 0 450 0 c 2
 250 0 l 2
 154 0 100 51 75 101 c 0
 50 151 50 200 50 200 c 1
 50 500 l 1
 50 500 50 549 75 599 c 0
 100 649 154 700 250 700 c 2
250 650 m 2
 171 650 138 614 119 576 c 0
 100 538 100 500 100 500 c 1
 100 200 l 1
 100 200 100 162 119 124 c 0
 138 86 171 50 250 50 c 2
 450 50 l 2
 529 50 562 86 581 124 c 0
 600 162 600 200 600 200 c 1
 600 500 l 1
 600 500 600 538 581 576 c 0
 562 614 529 650 450 650 c 2
 250 650 l 2
250 500 m 1
 350 500 l 2
 396 500 426 474 438 449 c 0
 450 424 450 400 450 400 c 1
 450 400 450 376 438 351 c 0
 434 342 427 333 418 325 c 1
 427 317 434 308 438 299 c 0
 450 274 450 250 450 250 c 1
 450 200 l 1
 400 200 l 1
 400 250 l 1
 400 250 399 263 393 276 c 0
 387 289 379 300 350 300 c 2
 300 300 l 1
 300 200 l 1
 250 200 l 1
 250 500 l 1
300 450 m 1
 300 350 l 1
 350 350 l 2
 379 350 387 361 393 374 c 0
 399 387 400 400 400 400 c 1
 400 400 399 413 393 426 c 0
 387 439 379 450 350 450 c 2
 300 450 l 1
EndSplineSet
EndChar

StartChar: ampersand
Encoding: 38 38 128
Width: 700
VWidth: 0
Flags: W
HStem: 0 50<357.516 467.216> 325 50<128.373 275 325 500 550 650> 650 50<132.784 242.317>
VStem: 50 50<402.077 613.898> 275 50<86.1023 325 375 613.898> 500 50<86.1023 325 375 500>
CounterMasks: 1 fc
LayerCount: 2
Fore
SplineSet
188 700 m 1
 324 700 325 550 325 550 c 1
 325 375 l 1
 500 375 l 1
 500 500 l 1
 550 500 l 1
 550 375 l 1
 650 375 l 1
 650 325 l 1
 550 325 l 1
 550 150 l 1
 550 150 550 0 412 0 c 1
 275 0 275 150 275 150 c 1
 275 325 l 1
 188 325 l 1
 50 325 50 450 50 450 c 1
 50 550 l 1
 50 550 50 700 188 700 c 1
188 650 m 1
 100 650 100 550 100 550 c 1
 100 450 l 1
 100 450 100 375 188 375 c 1
 275 375 l 1
 275 550 l 1
 275 550 274 650 188 650 c 1
325 325 m 1
 325 150 l 1
 325 150 326 50 412 50 c 1
 500 50 500 150 500 150 c 1
 500 325 l 1
 325 325 l 1
EndSplineSet
EndChar

StartChar: udieresis
Encoding: 252 252 129
Width: 500
VWidth: 0
Flags: W
HStem: 0 50<170.831 329.169> 600 100<150 200 300 350>
VStem: 50 50<125 500> 150 50<600 700> 300 50<600 700> 400 50<125 500>
LayerCount: 2
Fore
SplineSet
300 700 m 29
 350 700 l 29
 350 600 l 29
 300 600 l 29
 300 700 l 29
150 700 m 29
 200 700 l 29
 200 600 l 29
 150 600 l 29
 150 700 l 29
50 500 m 1
 100 500 l 1
 100 200 l 1
 100 200 100 50 250 50 c 1
 400 50 400 200 400 200 c 1
 400 500 l 1
 450 500 l 1
 450 200 l 1
 450 200 450 0 250 0 c 1
 50 0 50 200 50 200 c 1
 50 500 l 1
EndSplineSet
EndChar

StartChar: Udieresis
Encoding: 220 220 130
Width: 500
VWidth: 0
Flags: W
HStem: 0 50<170.831 329.169> 600 100<150 200 300 350>
VStem: 50 50<125 500> 150 50<600 700> 300 50<600 700> 400 50<125 500>
LayerCount: 2
Fore
SplineSet
300 700 m 29
 350 700 l 29
 350 600 l 29
 300 600 l 29
 300 700 l 29
150 700 m 29
 200 700 l 29
 200 600 l 29
 150 600 l 29
 150 700 l 29
50 500 m 1
 100 500 l 1
 100 200 l 1
 100 200 100 50 250 50 c 1
 400 50 400 200 400 200 c 1
 400 500 l 1
 450 500 l 1
 450 200 l 1
 450 200 450 0 250 0 c 1
 50 0 50 200 50 200 c 1
 50 500 l 1
EndSplineSet
EndChar

StartChar: uni0410
Encoding: 1040 1040 131
Width: 500
VWidth: 0
Flags: W
HStem: 0 21G<50 100 400 450> 0 21G<50 100 400 450> 325 50<100 400> 650 50<170.831 329.169>
VStem: 50 50<0 325 375 575> 400 50<0 325 375 575>
LayerCount: 2
Fore
SplineSet
250 700 m 1xbc
 450 700 450 500 450 500 c 1
 450 0 l 1
 400 0 l 1
 400 325 l 5
 100 325 l 1
 100 0 l 1
 50 0 l 1
 50 500 l 1
 50 500 50 700 250 700 c 1xbc
250 650 m 1
 100 650 100 500 100 500 c 1
 100 375 l 1
 400 375 l 1
 400 500 l 1
 400 500 400 650 250 650 c 1
EndSplineSet
EndChar

StartChar: uni0411
Encoding: 1041 1041 132
Width: 500
VWidth: 0
Flags: W
HStem: 0 50<100 337.673> 325 50<100 337.673> 650 50<100 450>
VStem: 50 50<50 325 375 650> 400 50<115.29 259.148>
CounterMasks: 1 e0
LayerCount: 2
Fore
SplineSet
50 0 m 1
 50 700 l 1
 450 700 l 1
 450 650 l 1
 100 650 l 1
 100 375 l 1
 263 375 l 1
 450 375 450 187 450 187 c 1
 450 187 450 0 263 0 c 1
 50 0 l 1
100 50 m 1
 263 50 l 1
 400 50 400 187 400 187 c 1
 400 187 400 325 263 325 c 5
 100 325 l 1
 100 50 l 1
EndSplineSet
EndChar

StartChar: uni0412
Encoding: 1042 1042 133
Width: 500
VWidth: 0
Flags: W
HStem: 0 50<100 337.673> 325 50<100 338.515> 650 50<100 337.673>
VStem: 50 50<50 325 375 650> 400 50<115.852 258.878 441.761 584.71>
CounterMasks: 1 e0
LayerCount: 2
Fore
SplineSet
50 700 m 1
 263 700 l 1
 450 700 450 513 450 513 c 1
 450 465 423 378 361 350 c 1
 423 322 450 236 450 188 c 1
 450 188 450 0 263 0 c 1
 50 0 l 1
 50 700 l 1
100 650 m 1
 100 375 l 1
 263 375 l 1
 400 375 400 513 400 513 c 1
 400 513 400 650 263 650 c 1
 100 650 l 1
100 325 m 1
 100 50 l 1
 263 50 l 1
 400 50 400 188 400 188 c 1
 400 188 400 325 263 325 c 5
 100 325 l 1
EndSplineSet
EndChar

StartChar: uni0413
Encoding: 1043 1043 134
Width: 500
VWidth: 0
Flags: W
HStem: 0 21G<50 100> 0 21G<50 100> 650 50<100 450>
VStem: 50 50<0 650>
LayerCount: 2
Fore
SplineSet
50 0 m 25xb0
 50 700 l 25
 450 700 l 25
 450 650 l 25
 100 650 l 25
 100 0 l 29
 50 0 l 25xb0
EndSplineSet
EndChar

StartChar: uni0414
Encoding: 1044 1044 135
Width: 600
VWidth: 0
Flags: W
HStem: 0 50<50 112.869 165 400 450 550> 650 50<200 400>
VStem: 150 50<88.4598 650> 400 50<50 650>
LayerCount: 2
Fore
SplineSet
150 150 m 5
 150 700 l 5
 450 700 l 5
 450 50 l 5
 550 50 l 5
 550 0 l 5
 50 0 l 5
 50 50 l 5
 150 50 150 150 150 150 c 5
165 50 m 5
 400 50 l 5
 400 650 l 5
 200 650 l 5
 200 150 l 5
 200 150 200 94 165 50 c 5
EndSplineSet
EndChar

StartChar: uni043D
Encoding: 1085 1085 136
Width: 500
VWidth: 0
Flags: W
HStem: 0 21G<50 100 400 450> 0 21G<50 100 400 450> 326 49<100 400> 680 20G<50 100 400 450> 680 20G<50 100 400 450>
VStem: 50 50<0 326 375 700> 400 50<0 326 375 700>
LayerCount: 2
Fore
SplineSet
50 700 m 5xb6
 100 700 l 5
 100 375 l 5
 400 375 l 5
 400 700 l 5
 450 700 l 5
 450 0 l 5
 400 0 l 5
 400 326 l 5
 100 326 l 5
 100 0 l 5
 50 0 l 5
 50 700 l 5xb6
EndSplineSet
EndChar

StartChar: uni0433
Encoding: 1075 1075 137
Width: 500
VWidth: 0
Flags: W
HStem: 0 21G<50 100> 0 21G<50 100> 650 50<100 450>
VStem: 50 50<0 650>
LayerCount: 2
Fore
SplineSet
50 0 m 25xb0
 50 700 l 25
 450 700 l 25
 450 650 l 25
 100 650 l 25
 100 0 l 29
 50 0 l 25xb0
EndSplineSet
EndChar

StartChar: uni0445
Encoding: 1093 1093 138
Width: 500
VWidth: 0
Flags: W
HStem: 0 21G<50 100 400 450> 0 21G<50 100 400 450> 680 20G<50 100 400 450> 680 20G<50 100 400 450>
VStem: 50 50<0 172.237 528.119 700> 400 50<0 172.237 527.763 700>
LayerCount: 2
Fore
SplineSet
400 700 m 1xac
 450 700 l 1
 450 600 l 2
 450 542 424 488 393 457 c 1
 285 350 l 1
 393 243 l 2
 424 212 450 158 450 100 c 2
 450 0 l 1
 400 0 l 1
 400 100 l 2
 400 142 376 188 357 207 c 2
 250 315 l 1
 143 207 l 2
 124 188 100 142 100 100 c 2
 100 0 l 1
 50 0 l 1
 50 100 l 2
 50 158 76 212 107 243 c 1
 215 350 l 1
 107 457 l 2
 76 488 50 542 50 602 c 2
 50 700 l 1
 100 700 l 1
 100 602 l 2
 100 559 124 512 143 493 c 2
 250 385 l 1
 357 493 l 2
 376 512 400 558 400 600 c 2
 400 700 l 1xac
EndSplineSet
EndChar

StartChar: uni0443
Encoding: 1091 1091 139
Width: 500
VWidth: 0
Flags: W
HStem: 0 21G<275 325> 0 21G<275 325> 300 50<170.831 272.373> 680 20G<50 100 400 450> 680 20G<50 100 400 450>
VStem: 50 50<425 700> 275 50<0 301> 400 50<425.102 700>
LayerCount: 2
Fore
SplineSet
50 700 m 5xb7
 100 700 l 5
 100 500 l 5
 100 500 100 350 250 350 c 5
 400 350 400 500 400 500 c 5
 400 700 l 5
 450 700 l 5
 450 500 l 5
 450 426 405 337 325 312 c 5
 325 0 l 5
 275 0 l 5
 275 301 l 5
 267 300 259 300 250 300 c 5
 50 300 50 500 50 500 c 5
 50 700 l 5xb7
EndSplineSet
EndChar

StartChar: uni0430
Encoding: 1072 1072 140
Width: 500
VWidth: 0
Flags: W
HStem: 0 21G<50 100 400 450> 0 21G<50 100 400 450> 325 50<100 400> 650 50<170.831 329.169>
VStem: 50 50<0 325 375 575> 400 50<0 325 375 575>
LayerCount: 2
Fore
SplineSet
250 700 m 1xbc
 450 700 450 500 450 500 c 1
 450 0 l 1
 400 0 l 1
 400 325 l 5
 100 325 l 1
 100 0 l 1
 50 0 l 1
 50 500 l 1
 50 500 50 700 250 700 c 1xbc
250 650 m 1
 100 650 100 500 100 500 c 1
 100 375 l 1
 400 375 l 1
 400 500 l 1
 400 500 400 650 250 650 c 1
EndSplineSet
EndChar

StartChar: uni0440
Encoding: 1088 1088 141
Width: 500
VWidth: 0
Flags: W
HStem: 0 21G<50 100> 0 21G<50 100> 300 50<100 328.474> 650 50<100 328.474>
VStem: 50 50<0 300 350 650> 400 50<425 575>
LayerCount: 2
Fore
SplineSet
50 700 m 5xbc
 250 700 l 5
 450 700 450 500 450 500 c 5
 450 500 450 300 250 300 c 5
 100 300 l 5
 100 0 l 5
 50 0 l 5
 50 700 l 5xbc
100 650 m 5
 100 350 l 5
 250 350 l 5
 400 350 400 500 400 500 c 5
 400 500 400 650 250 650 c 5
 100 650 l 5
EndSplineSet
EndChar

StartChar: uni043E
Encoding: 1086 1086 142
Width: 500
VWidth: 0
Flags: W
HStem: 0 50<170.831 329.169> 650 50<170.831 329.169>
VStem: 50 50<125 575> 400 50<125 575>
LayerCount: 2
Fore
SplineSet
250 700 m 1
 450 700 450 500 450 500 c 1
 450 200 l 1
 450 200 450 0 250 0 c 1
 50 0 50 200 50 200 c 1
 50 500 l 1
 50 500 50 700 250 700 c 1
250 650 m 1
 100 650 100 500 100 500 c 1
 100 200 l 1
 100 200 100 50 250 50 c 1
 400 50 400 200 400 200 c 5
 400 500 l 1
 400 500 400 650 250 650 c 1
EndSplineSet
EndChar

StartChar: uni0434
Encoding: 1076 1076 143
Width: 600
VWidth: 0
Flags: W
HStem: 0 50<50 112.869 165 400 450 550> 650 50<200 400>
VStem: 150 50<88.4598 650> 400 50<50 650>
LayerCount: 2
Fore
SplineSet
150 150 m 5
 150 700 l 5
 450 700 l 5
 450 50 l 5
 550 50 l 5
 550 0 l 5
 50 0 l 5
 50 50 l 5
 150 50 150 150 150 150 c 5
165 50 m 5
 400 50 l 5
 400 650 l 5
 200 650 l 5
 200 150 l 5
 200 150 200 94 165 50 c 5
EndSplineSet
EndChar

StartChar: uni044D
Encoding: 1101 1101 144
Width: 500
VWidth: 0
Flags: W
HStem: 0 50<170.831 329.169> 325 50<150 400> 650 50<170.831 329.169>
VStem: 50 50<125 200 500 575> 400 50<125 325 375 575>
CounterMasks: 1 e0
LayerCount: 2
Fore
SplineSet
250 700 m 1
 450 700 450 500 450 500 c 1
 450 200 l 1
 450 200 450 0 250 0 c 1
 50 0 50 200 50 200 c 1
 100 200 l 1
 100 200 100 50 250 50 c 1
 400 50 400 200 400 200 c 1
 400 325 l 1
 150 325 l 1
 150 375 l 1
 400 375 l 5
 400 500 l 1
 400 500 400 650 250 650 c 1
 100 650 100 500 100 500 c 1
 50 500 l 1
 50 500 50 700 250 700 c 1
EndSplineSet
EndChar

StartChar: uni0431
Encoding: 1073 1073 145
Width: 500
VWidth: 0
Flags: W
HStem: 0 50<100 337.673> 325 50<100 337.673> 650 50<100 450>
VStem: 50 50<50 325 375 650> 400 50<115.29 259.148>
CounterMasks: 1 e0
LayerCount: 2
Fore
SplineSet
50 0 m 1
 50 700 l 1
 450 700 l 1
 450 650 l 1
 100 650 l 1
 100 375 l 1
 263 375 l 1
 450 375 450 187 450 187 c 1
 450 187 450 0 263 0 c 1
 50 0 l 1
100 50 m 1
 263 50 l 1
 400 50 400 187 400 187 c 1
 400 187 400 325 263 325 c 5
 100 325 l 1
 100 50 l 1
EndSplineSet
EndChar

StartChar: uni0442
Encoding: 1090 1090 146
Width: 600
VWidth: 0
Flags: W
HStem: 0 21G<275 325> 0 21G<275 325> 650 50<50 275 325 550>
VStem: 275 50<0 650>
LayerCount: 2
Fore
SplineSet
50 700 m 1xb0
 550 700 l 1
 550 650 l 1
 325 650 l 1
 325 0 l 1
 275 0 l 1
 275 650 l 1
 50 650 l 1
 50 700 l 1xb0
EndSplineSet
EndChar

StartChar: uni0438
Encoding: 1080 1080 147
Width: 500
VWidth: 0
Flags: W
HStem: 0 21G<50 100 400 450> 0 21G<50 100 400 450> 680 20G<50 100 400 450> 680 20G<50 100 400 450>
VStem: 50 50<0 76.2094 142 700> 400 50<0 358 424.39 700>
LayerCount: 2
Fore
SplineSet
50 700 m 1xac
 100 700 l 1
 100 142 l 1
 134 190 171 219 172 220 c 1
 297 320 l 1
 299 321 362 372 388 440 c 1
 395 459 400 479 400 500 c 1
 400 501 400 700 400 700 c 5
 450 700 l 1
 450 0 l 1
 400 0 l 1
 400 358 l 1
 367 311 329 281 328 280 c 1
 203 180 l 1
 200 178 100 96 100 0 c 1
 50 0 l 1
 50 700 l 1xac
EndSplineSet
EndChar

StartChar: uni043C
Encoding: 1084 1084 148
Width: 600
VWidth: 0
Flags: W
HStem: 0 21G<50 100 500 550> 0 21G<50 100 500 550> 680 20G<50 100 500 550> 680 20G<50 100 500 550>
VStem: 50 50<0 589 643.375 700> 275 50<300 456.3> 500 50<0 589 643.75 700>
CounterMasks: 1 0e
LayerCount: 2
Fore
SplineSet
300 480 m 5xae
 317 507 332 518 334 519 c 5
 459 619 l 5
 462 621 500 656 500 700 c 5
 550 700 l 5
 550 0 l 5
 500 0 l 5
 500 589 l 5
 496 585 491 581 491 581 c 5
 366 481 l 5
 365 480 340 459 330 429 c 5
 327 420 325 410 325 400 c 5
 325 300 l 5
 275 300 l 5
 275 400 l 5
 275 410 273 420 270 429 c 5
 260 458 235 480 234 481 c 5
 109 580 l 5
 108 580 105 584 100 589 c 5
 100 0 l 5
 50 0 l 5
 50 700 l 5
 100 700 l 5
 100 655 139 621 141 619 c 5
 266 519 l 5
 267 518 284 504 300 480 c 5xae
EndSplineSet
EndChar

StartChar: uni0441
Encoding: 1089 1089 149
Width: 500
VWidth: 0
Flags: W
HStem: 0 50<170.831 329.169> 650 50<170.831 329.169>
VStem: 50 50<125 575> 400 50<125 200 500 575>
LayerCount: 2
Fore
SplineSet
250 700 m 5
 450 700 450 500 450 500 c 5
 400 500 l 5
 400 500 400 650 250 650 c 5
 100 650 100 500 100 500 c 5
 100 200 l 5
 100 200 100 50 250 50 c 5
 400 50 400 200 400 200 c 5
 450 200 l 5
 450 200 450 0 250 0 c 5
 50 0 50 200 50 200 c 5
 50 500 l 5
 50 500 50 700 250 700 c 5
EndSplineSet
EndChar

StartChar: uni044F
Encoding: 1103 1103 150
Width: 500
VWidth: 0
Flags: W
HStem: 0 21G<50 100 400 450> 0 21G<50 100 400 450> 300 50<248 400> 650 50<171.526 400>
VStem: 50 50<0 159.237 425.569 575> 400 50<0 300 350 650>
LayerCount: 2
Fore
SplineSet
450 700 m 5xbc
 450 0 l 5
 400 0 l 5
 400 300 l 5
 248 300 l 5
 143 195 l 6
 124 176 100 129 100 87 c 6
 100 0 l 5
 50 0 l 5
 50 87 l 6
 50 145 76 199 107 230 c 6
 186 309 l 5
 100 331 50 422 50 500 c 5
 50 500 50 700 250 700 c 5
 450 700 l 5xbc
400 650 m 5
 250 650 l 5
 100 650 100 500 100 500 c 5
 100 500 100 350 250 350 c 5
 400 350 l 5
 400 650 l 5
EndSplineSet
EndChar

StartChar: uni0423
Encoding: 1059 1059 151
Width: 500
VWidth: 0
Flags: W
HStem: 0 21G<275 325> 0 21G<275 325> 300 50<170.831 272.373> 680 20G<50 100 400 450> 680 20G<50 100 400 450>
VStem: 50 50<425 700> 275 50<0 301> 400 50<425.102 700>
LayerCount: 2
Fore
SplineSet
50 700 m 5xb7
 100 700 l 5
 100 500 l 5
 100 500 100 350 250 350 c 5
 400 350 400 500 400 500 c 5
 400 700 l 5
 450 700 l 5
 450 500 l 5
 450 426 405 337 325 312 c 5
 325 0 l 5
 275 0 l 5
 275 301 l 5
 267 300 259 300 250 300 c 5
 50 300 50 500 50 500 c 5
 50 700 l 5xb7
EndSplineSet
EndChar

StartChar: uni041A
Encoding: 1050 1050 152
Width: 500
VWidth: 0
Flags: W
HStem: 0 21G<50 100 396 446> 0 21G<50 100 396 446> 680 20G<50 100 400 450> 680 20G<50 100 400 450>
VStem: 50 50<0 240 311 700> 396 50<0 172.237 596.17 700>
LayerCount: 2
Fore
SplineSet
450 700 m 1xac
 450 675 l 2
 450 617 423 564 392 533 c 2
 247 387 l 1
 389 243 l 2
 420 212 446 158 446 100 c 2
 446 0 l 1
 396 0 l 1
 396 100 l 2
 396 142 372 188 353 207 c 2
 212 352 l 1
 100 240 l 1
 100 0 l 1
 50 0 l 1
 50 700 l 1
 100 700 l 1
 100 311 l 1
 357 568 l 2
 376 587 400 633 400 675 c 2
 400 700 l 1
 450 700 l 1xac
EndSplineSet
EndChar

StartChar: uni0415
Encoding: 1045 1045 153
Width: 500
VWidth: 0
Flags: W
HStem: 0 50<100 450> 325 50<100 450> 650 50<100 450>
VStem: 50 50<50 325 375 650>
CounterMasks: 1 e0
LayerCount: 2
Fore
SplineSet
50 700 m 1
 450 700 l 1
 450 650 l 1
 100 650 l 1
 100 375 l 1
 450 375 l 1
 450 325 l 1
 100 325 l 1
 100 50 l 1
 450 50 l 1
 450 0 l 1
 50 0 l 1
 50 700 l 1
EndSplineSet
EndChar

StartChar: uni041D
Encoding: 1053 1053 154
Width: 500
VWidth: 0
Flags: W
HStem: 0 21G<50 100 400 450> 0 21G<50 100 400 450> 326 49<100 400> 680 20G<50 100 400 450> 680 20G<50 100 400 450>
VStem: 50 50<0 326 375 700> 400 50<0 326 375 700>
LayerCount: 2
Fore
SplineSet
50 700 m 5xb6
 100 700 l 5
 100 375 l 5
 400 375 l 5
 400 700 l 5
 450 700 l 5
 450 0 l 5
 400 0 l 5
 400 326 l 5
 100 326 l 5
 100 0 l 5
 50 0 l 5
 50 700 l 5xb6
EndSplineSet
EndChar

StartChar: uni0417
Encoding: 1047 1047 155
Width: 500
VWidth: 0
Flags: W
HStem: 0 50<170.831 331.273> 325 50<250 332.681> 650 50<170.831 331.273>
VStem: 50 50<125 200 500 575> 400 50<119.489 255.172 444.166 579.872>
CounterMasks: 1 e0
LayerCount: 2
Fore
SplineSet
250 700 m 1
 450 700 450 512 450 512 c 1
 450 461 422 383 355 350 c 1
 422 317 450 238 450 187 c 1
 450 187 450 0 250 0 c 1
 50 0 50 200 50 200 c 1
 100 200 l 1
 100 200 100 50 250 50 c 1
 400 50 400 187 400 187 c 1
 400 187 400 325 250 325 c 1
 250 375 l 1
 400 375 400 512 400 512 c 1
 400 512 400 650 250 650 c 1
 100 650 100 500 100 500 c 1
 50 500 l 1
 50 500 50 700 250 700 c 1
EndSplineSet
EndChar

StartChar: uni0425
Encoding: 1061 1061 156
Width: 500
VWidth: 0
Flags: W
HStem: 0 21G<50 100 400 450> 0 21G<50 100 400 450> 680 20G<50 100 400 450> 680 20G<50 100 400 450>
VStem: 50 50<0 172.237 528.119 700> 400 50<0 172.237 527.763 700>
LayerCount: 2
Fore
SplineSet
400 700 m 1xac
 450 700 l 1
 450 600 l 2
 450 542 424 488 393 457 c 1
 285 350 l 1
 393 243 l 2
 424 212 450 158 450 100 c 2
 450 0 l 1
 400 0 l 1
 400 100 l 2
 400 142 376 188 357 207 c 2
 250 315 l 1
 143 207 l 2
 124 188 100 142 100 100 c 2
 100 0 l 1
 50 0 l 1
 50 100 l 2
 50 158 76 212 107 243 c 1
 215 350 l 1
 107 457 l 2
 76 488 50 542 50 602 c 2
 50 700 l 1
 100 700 l 1
 100 602 l 2
 100 559 124 512 143 493 c 2
 250 385 l 1
 357 493 l 2
 376 512 400 558 400 600 c 2
 400 700 l 1xac
EndSplineSet
EndChar

StartChar: uni042D
Encoding: 1069 1069 157
Width: 500
VWidth: 0
Flags: W
HStem: 0 50<170.831 329.169> 325 50<150 400> 650 50<170.831 329.169>
VStem: 50 50<125 200 500 575> 400 50<125 325 375 575>
CounterMasks: 1 e0
LayerCount: 2
Fore
SplineSet
250 700 m 1
 450 700 450 500 450 500 c 1
 450 200 l 1
 450 200 450 0 250 0 c 1
 50 0 50 200 50 200 c 1
 100 200 l 1
 100 200 100 50 250 50 c 1
 400 50 400 200 400 200 c 1
 400 325 l 1
 150 325 l 1
 150 375 l 1
 400 375 l 5
 400 500 l 1
 400 500 400 650 250 650 c 1
 100 650 100 500 100 500 c 1
 50 500 l 1
 50 500 50 700 250 700 c 1
EndSplineSet
EndChar

StartChar: uni0435
Encoding: 1077 1077 158
Width: 500
VWidth: 0
Flags: W
HStem: 0 50<100 450> 325 50<100 450> 650 50<100 450>
VStem: 50 50<50 325 375 650>
CounterMasks: 1 e0
LayerCount: 2
Fore
SplineSet
50 700 m 1
 450 700 l 1
 450 650 l 1
 100 650 l 1
 100 375 l 1
 450 375 l 1
 450 325 l 1
 100 325 l 1
 100 50 l 1
 450 50 l 1
 450 0 l 1
 50 0 l 1
 50 700 l 1
EndSplineSet
EndChar

StartChar: uni041E
Encoding: 1054 1054 159
Width: 500
VWidth: 0
Flags: W
HStem: 0 50<170.831 329.169> 650 50<170.831 329.169>
VStem: 50 50<125 575> 400 50<125 575>
LayerCount: 2
Fore
SplineSet
250 700 m 1
 450 700 450 500 450 500 c 1
 450 200 l 1
 450 200 450 0 250 0 c 1
 50 0 50 200 50 200 c 1
 50 500 l 1
 50 500 50 700 250 700 c 1
250 650 m 1
 100 650 100 500 100 500 c 1
 100 200 l 1
 100 200 100 50 250 50 c 1
 400 50 400 200 400 200 c 5
 400 500 l 1
 400 500 400 650 250 650 c 1
EndSplineSet
EndChar

StartChar: uni0420
Encoding: 1056 1056 160
Width: 500
VWidth: 0
Flags: W
HStem: 0 21G<50 100> 0 21G<50 100> 300 50<100 328.474> 650 50<100 328.474>
VStem: 50 50<0 300 350 650> 400 50<425 575>
LayerCount: 2
Fore
SplineSet
50 700 m 5xbc
 250 700 l 5
 450 700 450 500 450 500 c 5
 450 500 450 300 250 300 c 5
 100 300 l 5
 100 0 l 5
 50 0 l 5
 50 700 l 5xbc
100 650 m 5
 100 350 l 5
 250 350 l 5
 400 350 400 500 400 500 c 5
 400 500 400 650 250 650 c 5
 100 650 l 5
EndSplineSet
EndChar

StartChar: uni0432
Encoding: 1074 1074 161
Width: 500
VWidth: 0
Flags: W
HStem: 0 50<100 337.673> 325 50<100 338.515> 650 50<100 337.673>
VStem: 50 50<50 325 375 650> 400 50<115.852 258.878 441.761 584.71>
CounterMasks: 1 e0
LayerCount: 2
Fore
SplineSet
50 700 m 1
 263 700 l 1
 450 700 450 513 450 513 c 1
 450 465 423 378 361 350 c 1
 423 322 450 236 450 188 c 1
 450 188 450 0 263 0 c 1
 50 0 l 1
 50 700 l 1
100 650 m 1
 100 375 l 1
 263 375 l 1
 400 375 400 513 400 513 c 1
 400 513 400 650 263 650 c 1
 100 650 l 1
100 325 m 1
 100 50 l 1
 263 50 l 1
 400 50 400 188 400 188 c 1
 400 188 400 325 263 325 c 5
 100 325 l 1
EndSplineSet
EndChar

StartChar: uni042F
Encoding: 1071 1071 162
Width: 500
VWidth: 0
Flags: W
HStem: 0 21G<50 100 400 450> 0 21G<50 100 400 450> 300 50<248 400> 650 50<171.526 400>
VStem: 50 50<0 159.237 425.569 575> 400 50<0 300 350 650>
LayerCount: 2
Fore
SplineSet
450 700 m 5xbc
 450 0 l 5
 400 0 l 5
 400 300 l 5
 248 300 l 5
 143 195 l 6
 124 176 100 129 100 87 c 6
 100 0 l 5
 50 0 l 5
 50 87 l 6
 50 145 76 199 107 230 c 6
 186 309 l 5
 100 331 50 422 50 500 c 5
 50 500 50 700 250 700 c 5
 450 700 l 5xbc
400 650 m 5
 250 650 l 5
 100 650 100 500 100 500 c 5
 100 500 100 350 250 350 c 5
 400 350 l 5
 400 650 l 5
EndSplineSet
EndChar

StartChar: uni0421
Encoding: 1057 1057 163
Width: 500
VWidth: 0
Flags: W
HStem: 0 50<170.831 329.169> 650 50<170.831 329.169>
VStem: 50 50<125 575> 400 50<125 200 500 575>
LayerCount: 2
Fore
SplineSet
250 700 m 5
 450 700 450 500 450 500 c 5
 400 500 l 5
 400 500 400 650 250 650 c 5
 100 650 100 500 100 500 c 5
 100 200 l 5
 100 200 100 50 250 50 c 5
 400 50 400 200 400 200 c 5
 450 200 l 5
 450 200 450 0 250 0 c 5
 50 0 50 200 50 200 c 5
 50 500 l 5
 50 500 50 700 250 700 c 5
EndSplineSet
EndChar

StartChar: uni041C
Encoding: 1052 1052 164
Width: 600
VWidth: 0
Flags: W
HStem: 0 21G<50 100 500 550> 0 21G<50 100 500 550> 680 20G<50 100 500 550> 680 20G<50 100 500 550>
VStem: 50 50<0 589 643.375 700> 275 50<300 456.3> 500 50<0 589 643.75 700>
CounterMasks: 1 0e
LayerCount: 2
Fore
SplineSet
300 480 m 5xae
 317 507 332 518 334 519 c 5
 459 619 l 5
 462 621 500 656 500 700 c 5
 550 700 l 5
 550 0 l 5
 500 0 l 5
 500 589 l 5
 496 585 491 581 491 581 c 5
 366 481 l 5
 365 480 340 459 330 429 c 5
 327 420 325 410 325 400 c 5
 325 300 l 5
 275 300 l 5
 275 400 l 5
 275 410 273 420 270 429 c 5
 260 458 235 480 234 481 c 5
 109 580 l 5
 108 580 105 584 100 589 c 5
 100 0 l 5
 50 0 l 5
 50 700 l 5
 100 700 l 5
 100 655 139 621 141 619 c 5
 266 519 l 5
 267 518 284 504 300 480 c 5xae
EndSplineSet
EndChar

StartChar: uni0418
Encoding: 1048 1048 165
Width: 500
VWidth: 0
Flags: W
HStem: 0 21G<50 100 400 450> 0 21G<50 100 400 450> 680 20G<50 100 400 450> 680 20G<50 100 400 450>
VStem: 50 50<0 76.2094 142 700> 400 50<0 358 424.39 700>
LayerCount: 2
Fore
SplineSet
50 700 m 1xac
 100 700 l 1
 100 142 l 1
 134 190 171 219 172 220 c 1
 297 320 l 1
 299 321 362 372 388 440 c 1
 395 459 400 479 400 500 c 1
 400 501 400 700 400 700 c 5
 450 700 l 1
 450 0 l 1
 400 0 l 1
 400 358 l 1
 367 311 329 281 328 280 c 1
 203 180 l 1
 200 178 100 96 100 0 c 1
 50 0 l 1
 50 700 l 1xac
EndSplineSet
EndChar

StartChar: uni0422
Encoding: 1058 1058 166
Width: 600
VWidth: 0
Flags: W
HStem: 0 21G<275 325> 0 21G<275 325> 650 50<50 275 325 550>
VStem: 275 50<0 650>
LayerCount: 2
Fore
SplineSet
50 700 m 1xb0
 550 700 l 1
 550 650 l 1
 325 650 l 1
 325 0 l 1
 275 0 l 1
 275 650 l 1
 50 650 l 1
 50 700 l 1xb0
EndSplineSet
EndChar

StartChar: uni0451
Encoding: 1105 1105 167
Width: 500
VWidth: 0
Flags: W
HStem: 0 50<100 450> 225 50<100 450> 450 50<100 450> 600 100<150 200 300 350>
VStem: 50 50<50 225 275 450> 150 50<600 700> 300 50<600 700>
LayerCount: 2
Fore
SplineSet
300 700 m 29
 350 700 l 29
 350 600 l 29
 300 600 l 29
 300 700 l 29
150 700 m 29
 200 700 l 29
 200 600 l 29
 150 600 l 29
 150 700 l 29
50 500 m 1
 450 500 l 1
 450 450 l 1
 100 450 l 1
 100 275 l 1
 450 275 l 1
 450 225 l 1
 100 225 l 1
 100 50 l 1
 450 50 l 1
 450 0 l 1
 50 0 l 1
 50 500 l 1
EndSplineSet
EndChar

StartChar: uni0401
Encoding: 1025 1025 168
Width: 500
VWidth: 0
Flags: W
HStem: 0 50<100 450> 225 50<100 450> 450 50<100 450> 600 100<150 200 300 350>
VStem: 50 50<50 225 275 450> 150 50<600 700> 300 50<600 700>
LayerCount: 2
Fore
SplineSet
300 700 m 29
 350 700 l 29
 350 600 l 29
 300 600 l 29
 300 700 l 29
150 700 m 29
 200 700 l 29
 200 600 l 29
 150 600 l 29
 150 700 l 29
50 500 m 1
 450 500 l 1
 450 450 l 1
 100 450 l 1
 100 275 l 1
 450 275 l 1
 450 225 l 1
 100 225 l 1
 100 50 l 1
 450 50 l 1
 450 0 l 1
 50 0 l 1
 50 500 l 1
EndSplineSet
EndChar

StartChar: uni0436
Encoding: 1078 1078 169
Width: 600
VWidth: 0
Flags: W
HStem: 0 21G<50 100 275 325 500 550> 0 21G<50 100 275 325 500 550> 325 50<177.451 275 325 422.549> 680 20G<50 100 275 325 500 550> 680 20G<50 100 275 325 500 550>
VStem: 50 50<0 236.491 463.123 700> 275 50<0 325 375 700> 500 50<0 236.491 463.123 700>
CounterMasks: 1 07
LayerCount: 2
Fore
SplineSet
100 700 m 1xb7
 100 550 l 2
 100 541 104 375 250 375 c 2
 275 375 l 1
 275 700 l 1
 325 700 l 1
 325 375 l 1
 350 375 l 2
 496 375 500 541 500 550 c 2
 500 700 l 1
 550 700 l 1
 550 550 l 0
 550 545 549 408 451 350 c 1
 549 292 550 155 550 150 c 0
 550 0 l 1
 500 0 l 1
 500 150 l 2
 500 158 496 325 350 325 c 2
 325 325 l 1
 325 0 l 1
 275 0 l 1
 275 325 l 1
 250 325 l 2
 104 325 100 158 100 150 c 2
 100 0 l 1
 50 0 l 1
 50 150 l 0
 50 155 51 292 149 350 c 1
 51 408 50 545 50 550 c 2
 50 700 l 1
 100 700 l 1xb7
EndSplineSet
EndChar

StartChar: uni0416
Encoding: 1046 1046 170
Width: 600
VWidth: 0
Flags: W
HStem: 0 21G<50 100 275 325 500 550> 0 21G<50 100 275 325 500 550> 325 50<177.451 275 325 422.549> 680 20G<50 100 275 325 500 550> 680 20G<50 100 275 325 500 550>
VStem: 50 50<0 236.491 463.123 700> 275 50<0 325 375 700> 500 50<0 236.491 463.123 700>
CounterMasks: 1 07
LayerCount: 2
Fore
SplineSet
100 700 m 1xb7
 100 550 l 2
 100 541 104 375 250 375 c 2
 275 375 l 1
 275 700 l 1
 325 700 l 1
 325 375 l 1
 350 375 l 2
 496 375 500 541 500 550 c 2
 500 700 l 1
 550 700 l 1
 550 550 l 0
 550 545 549 408 451 350 c 1
 549 292 550 155 550 150 c 0
 550 0 l 1
 500 0 l 1
 500 150 l 2
 500 158 496 325 350 325 c 2
 325 325 l 1
 325 0 l 1
 275 0 l 1
 275 325 l 1
 250 325 l 2
 104 325 100 158 100 150 c 2
 100 0 l 1
 50 0 l 1
 50 150 l 0
 50 155 51 292 149 350 c 1
 51 408 50 545 50 550 c 2
 50 700 l 1
 100 700 l 1xb7
EndSplineSet
EndChar

StartChar: uni0439
Encoding: 1081 1081 171
Width: 500
VWidth: 0
Flags: W
HStem: 0 21G<50 100 400 450> 0 21G<50 100 400 450> 600 50<209.865 290.135> 680 20G<150 220 280 350> 680 20G<150 220 280 350>
VStem: 50 50<0 76.2094 142 500> 150 50<659.641 700> 300 50<659.641 700> 400 50<0 358 424.39 500>
LayerCount: 2
Fore
SplineSet
50 500 m 1xa780
 100 500 l 1
 100 142 l 1
 134 190 171 219 172 220 c 1
 297 320 l 1
 299 321 362 372 388 440 c 1
 395 459 400 479 400 500 c 1
 450 500 l 1
 450 0 l 1
 400 0 l 1
 400 358 l 1
 367 311 329 281 328 280 c 1
 203 180 l 1
 200 178 100 96 100 0 c 1
 50 0 l 1
 50 500 l 1xa780
150 700 m 29x3780
 200 700 l 29
 200 700 200 650 250 650 c 5
 300 650 300 700 300 700 c 29
 350 700 l 29
 350 700 350 600 250 600 c 5
 150 600 150 700 150 700 c 29x3780
EndSplineSet
EndChar

StartChar: uni0419
Encoding: 1049 1049 172
Width: 500
VWidth: 0
Flags: W
HStem: 0 21G<50 100 400 450> 0 21G<50 100 400 450> 600 50<209.865 290.135> 680 20G<150 220 280 350> 680 20G<150 220 280 350>
VStem: 50 50<0 76.2094 142 500> 150 50<659.641 700> 300 50<659.641 700> 400 50<0 358 424.39 500>
LayerCount: 2
Fore
SplineSet
50 500 m 1xa780
 100 500 l 1
 100 142 l 1
 134 190 171 219 172 220 c 1
 297 320 l 1
 299 321 362 372 388 440 c 1
 395 459 400 479 400 500 c 1
 450 500 l 1
 450 0 l 1
 400 0 l 1
 400 358 l 1
 367 311 329 281 328 280 c 1
 203 180 l 1
 200 178 100 96 100 0 c 1
 50 0 l 1
 50 500 l 1xa780
150 700 m 29x3780
 200 700 l 29
 200 700 200 650 250 650 c 5
 300 650 300 700 300 700 c 29
 350 700 l 29
 350 700 350 600 250 600 c 5
 150 600 150 700 150 700 c 29x3780
EndSplineSet
EndChar

StartChar: uni043B
Encoding: 1083 1083 173
Width: 500
VWidth: 0
Flags: W
HStem: 0 50<50 109.898> 650 50<200 400>
VStem: 150 50<88.9893 650> 400 50<0 650>
LayerCount: 2
Fore
SplineSet
50 50 m 1
 150 50 150 150 150 150 c 25
 150 700 l 25
 450 700 l 25
 450 0 l 25
 400 0 l 25
 400 650 l 25
 200 650 l 25
 200 150 l 29
 200 150 200 0 50 0 c 1
 50 50 l 1
EndSplineSet
EndChar

StartChar: uni041B
Encoding: 1051 1051 174
Width: 500
VWidth: 0
Flags: W
HStem: 0 50<50 109.898> 650 50<200 400>
VStem: 150 50<88.9893 650> 400 50<0 650>
LayerCount: 2
Fore
SplineSet
50 50 m 1
 150 50 150 150 150 150 c 25
 150 700 l 25
 450 700 l 25
 450 0 l 25
 400 0 l 25
 400 650 l 25
 200 650 l 25
 200 150 l 29
 200 150 200 0 50 0 c 1
 50 50 l 1
EndSplineSet
EndChar

StartChar: uni043F
Encoding: 1087 1087 175
Width: 500
VWidth: 0
Flags: W
HStem: 0 21G<50 100 400 450> 0 21G<50 100 400 450> 650 50<100 400>
VStem: 50 50<0 650> 400 50<0 650>
LayerCount: 2
Fore
SplineSet
50 0 m 25xb8
 50 700 l 25
 450 700 l 25
 450 0 l 25
 400 0 l 25
 400 650 l 25
 100 650 l 25
 100 0 l 29
 50 0 l 25xb8
EndSplineSet
EndChar

StartChar: uni041F
Encoding: 1055 1055 176
Width: 500
VWidth: 0
Flags: W
HStem: 0 21G<50 100 400 450> 0 21G<50 100 400 450> 650 50<100 400>
VStem: 50 50<0 650> 400 50<0 650>
LayerCount: 2
Fore
SplineSet
50 0 m 25xb8
 50 700 l 25
 450 700 l 25
 450 0 l 25
 400 0 l 25
 400 650 l 25
 100 650 l 25
 100 0 l 29
 50 0 l 25xb8
EndSplineSet
EndChar

StartChar: uni0444
Encoding: 1092 1092 177
Width: 600
VWidth: 0
Flags: W
HStem: 0 21G<275 325> 0 21G<275 325> 100 50<171.526 275 325 428.474> 550 50<171.526 275 325 428.474> 680 20G<275 325> 680 20G<275 325>
VStem: 50 50<225 475> 275 50<0 100 150 550 600 700> 500 50<225 475>
CounterMasks: 1 0380
LayerCount: 2
Fore
SplineSet
350 550 m 9x3380
 325 550 l 25
 325 150 l 25
 350 150 l 17
 500 150 500 300 500 300 c 25
 500 400 l 25
 500 400 500 550 350 550 c 9x3380
275 550 m 25
 250 550 l 17
 100 550 100 400 100 400 c 25
 100 300 l 25
 100 300 100 150 250 150 c 9
 275 150 l 29
 275 550 l 25
275 700 m 25xbb80
 325 700 l 25
 325 600 l 25
 350 600 l 1
 550 600 550 400 550 400 c 25
 550 300 l 25
 550 300 550 100 350 100 c 9
 325 100 l 25
 325 0 l 25
 275 0 l 25
 275 100 l 25
 250 100 l 17
 50 100 50 300 50 300 c 25
 50 400 l 25
 50 400 50 600 250 600 c 9
 275 600 l 25
 275 700 l 25xbb80
EndSplineSet
EndChar

StartChar: uni0424
Encoding: 1060 1060 178
Width: 600
VWidth: 0
Flags: W
HStem: 0 21G<275 325> 0 21G<275 325> 100 50<171.526 275 325 428.474> 550 50<171.526 275 325 428.474> 680 20G<275 325> 680 20G<275 325>
VStem: 50 50<225 475> 275 50<0 100 150 550 600 700> 500 50<225 475>
CounterMasks: 1 0380
LayerCount: 2
Fore
SplineSet
350 550 m 9x3380
 325 550 l 25
 325 150 l 25
 350 150 l 17
 500 150 500 300 500 300 c 25
 500 400 l 25
 500 400 500 550 350 550 c 9x3380
275 550 m 25
 250 550 l 17
 100 550 100 400 100 400 c 25
 100 300 l 25
 100 300 100 150 250 150 c 9
 275 150 l 29
 275 550 l 25
275 700 m 25xbb80
 325 700 l 25
 325 600 l 25
 350 600 l 1
 550 600 550 400 550 400 c 25
 550 300 l 25
 550 300 550 100 350 100 c 9
 325 100 l 25
 325 0 l 25
 275 0 l 25
 275 100 l 25
 250 100 l 17
 50 100 50 300 50 300 c 25
 50 400 l 25
 50 400 50 600 250 600 c 9
 275 600 l 25
 275 700 l 25xbb80
EndSplineSet
EndChar

StartChar: uni0437
Encoding: 1079 1079 179
Width: 500
VWidth: 0
Flags: W
HStem: 0 50<170.831 331.273> 325 50<250 332.681> 650 50<170.831 331.273>
VStem: 50 50<125 200 500 575> 400 50<119.489 255.172 444.166 579.872>
CounterMasks: 1 e0
LayerCount: 2
Fore
SplineSet
250 700 m 1
 450 700 450 512 450 512 c 1
 450 461 422 383 355 350 c 1
 422 317 450 238 450 187 c 1
 450 187 450 0 250 0 c 1
 50 0 50 200 50 200 c 1
 100 200 l 1
 100 200 100 50 250 50 c 1
 400 50 400 187 400 187 c 1
 400 187 400 325 250 325 c 1
 250 375 l 1
 400 375 400 512 400 512 c 1
 400 512 400 650 250 650 c 1
 100 650 100 500 100 500 c 1
 50 500 l 1
 50 500 50 700 250 700 c 1
EndSplineSet
EndChar

StartChar: uni043A
Encoding: 1082 1082 180
Width: 500
VWidth: 0
Flags: W
HStem: 0 21G<50 100 396 446> 0 21G<50 100 396 446> 680 20G<50 100 400 450> 680 20G<50 100 400 450>
VStem: 50 50<0 240 311 700> 396 50<0 172.237 596.17 700>
LayerCount: 2
Fore
SplineSet
450 700 m 1xac
 450 675 l 2
 450 617 423 564 392 533 c 2
 247 387 l 1
 389 243 l 2
 420 212 446 158 446 100 c 2
 446 0 l 1
 396 0 l 1
 396 100 l 2
 396 142 372 188 353 207 c 2
 212 352 l 1
 100 240 l 1
 100 0 l 1
 50 0 l 1
 50 700 l 1
 100 700 l 1
 100 311 l 1
 357 568 l 2
 376 587 400 633 400 675 c 2
 400 700 l 1
 450 700 l 1xac
EndSplineSet
EndChar

StartChar: uni0446
Encoding: 1094 1094 181
Width: 600
VWidth: 0
Flags: W
HStem: 0 50<100 400 450 550> 680 20G<50 100 400 450> 680 20G<50 100 400 450>
VStem: 50 50<50 700> 400 50<50 700>
LayerCount: 2
Fore
SplineSet
50 700 m 25xd8
 100 700 l 25
 100 50 l 25
 400 50 l 25
 400 700 l 25
 450 700 l 25
 450 50 l 25
 550 50 l 29
 550 0 l 25
 50 0 l 25
 50 700 l 25xd8
EndSplineSet
EndChar

StartChar: uni0426
Encoding: 1062 1062 182
Width: 600
VWidth: 0
Flags: W
HStem: 0 50<100 400 450 550> 680 20G<50 100 400 450> 680 20G<50 100 400 450>
VStem: 50 50<50 700> 400 50<50 700>
LayerCount: 2
Fore
SplineSet
50 700 m 25xd8
 100 700 l 25
 100 50 l 25
 400 50 l 25
 400 700 l 25
 450 700 l 25
 450 50 l 25
 550 50 l 29
 550 0 l 25
 50 0 l 25
 50 700 l 25xd8
EndSplineSet
EndChar

StartChar: uni0448
Encoding: 1096 1096 183
Width: 600
VWidth: 0
Flags: W
HStem: 0 50<100 275 325 500> 680 20G<50 100 275 325 500 550> 680 20G<50 100 275 325 500 550>
VStem: 50 50<50 700> 275 50<50 700> 500 50<50 700>
CounterMasks: 1 1c
LayerCount: 2
Fore
SplineSet
50 700 m 25xdc
 100 700 l 25
 100 50 l 25
 275 50 l 25
 275 700 l 25
 325 700 l 25
 325 50 l 25
 500 50 l 25
 500 700 l 29
 550 700 l 25
 550 0 l 25
 50 0 l 25
 50 700 l 25xdc
EndSplineSet
EndChar

StartChar: uni0428
Encoding: 1064 1064 184
Width: 600
VWidth: 0
Flags: W
HStem: 0 50<100 275 325 500> 680 20G<50 100 275 325 500 550> 680 20G<50 100 275 325 500 550>
VStem: 50 50<50 700> 275 50<50 700> 500 50<50 700>
CounterMasks: 1 1c
LayerCount: 2
Fore
SplineSet
50 700 m 25xdc
 100 700 l 25
 100 50 l 25
 275 50 l 25
 275 700 l 25
 325 700 l 25
 325 50 l 25
 500 50 l 25
 500 700 l 29
 550 700 l 25
 550 0 l 25
 50 0 l 25
 50 700 l 25xdc
EndSplineSet
EndChar

StartChar: uni0449
Encoding: 1097 1097 185
Width: 700
VWidth: 0
Flags: W
HStem: 0 50<100 275 325 500 550 650> 680 20G<50 100 275 325 500 550> 680 20G<50 100 275 325 500 550>
VStem: 50 50<50 700> 275 50<50 700> 500 50<50 700>
CounterMasks: 1 1c
LayerCount: 2
Fore
SplineSet
50 700 m 25xdc
 100 700 l 25
 100 50 l 25
 275 50 l 25
 275 700 l 25
 325 700 l 25
 325 50 l 25
 500 50 l 25
 500 700 l 25
 550 700 l 17
 550 50 l 5
 650 50 l 1
 650 0 l 9
 50 0 l 25
 50 700 l 25xdc
EndSplineSet
EndChar

StartChar: uni0429
Encoding: 1065 1065 186
Width: 700
VWidth: 0
Flags: W
HStem: 0 50<100 275 325 500 550 650> 680 20G<50 100 275 325 500 550> 680 20G<50 100 275 325 500 550>
VStem: 50 50<50 700> 275 50<50 700> 500 50<50 700>
CounterMasks: 1 1c
LayerCount: 2
Fore
SplineSet
50 700 m 25xdc
 100 700 l 25
 100 50 l 25
 275 50 l 25
 275 700 l 25
 325 700 l 25
 325 50 l 25
 500 50 l 25
 500 700 l 25
 550 700 l 17
 550 50 l 5
 650 50 l 1
 650 0 l 9
 50 0 l 25
 50 700 l 25xdc
EndSplineSet
EndChar

StartChar: uni042E
Encoding: 1070 1070 187
Width: 600
VWidth: 0
Flags: W
HStem: 0 50<338.616 461.384> 325 50<100 250> 650 50<338.616 461.384>
VStem: 50 50<0 325 375 700> 250 50<88.9893 325 375 611.011> 500 50<88.9893 611.011>
CounterMasks: 1 e0
LayerCount: 2
Fore
SplineSet
400 650 m 1
 300 650 300 550 300 550 c 25
 300 150 l 25
 300 150 300 50 400 50 c 1
 500 50 500 150 500 150 c 25
 500 550 l 29
 500 550 500 650 400 650 c 1
50 700 m 25
 100 700 l 25
 100 375 l 25
 250 375 l 25
 250 550 l 25
 250 550 250 700 400 700 c 1
 550 700 550 550 550 550 c 25
 550 150 l 25
 550 150 550 0 400 0 c 1
 250 0 250 150 250 150 c 25
 250 325 l 25
 100 325 l 25
 100 0 l 25
 50 0 l 25
 50 700 l 25
EndSplineSet
EndChar

StartChar: uni044E
Encoding: 1102 1102 188
Width: 600
VWidth: 0
Flags: W
HStem: 0 50<338.616 461.384> 325 50<100 250> 650 50<338.616 461.384>
VStem: 50 50<0 325 375 700> 250 50<88.9893 325 375 611.011> 500 50<88.9893 611.011>
CounterMasks: 1 e0
LayerCount: 2
Fore
SplineSet
400 650 m 1
 300 650 300 550 300 550 c 25
 300 150 l 25
 300 150 300 50 400 50 c 1
 500 50 500 150 500 150 c 25
 500 550 l 29
 500 550 500 650 400 650 c 1
50 700 m 25
 100 700 l 25
 100 375 l 25
 250 375 l 25
 250 550 l 25
 250 550 250 700 400 700 c 1
 550 700 550 550 550 550 c 25
 550 150 l 25
 550 150 550 0 400 0 c 1
 250 0 250 150 250 150 c 25
 250 325 l 25
 100 325 l 25
 100 0 l 25
 50 0 l 25
 50 700 l 25
EndSplineSet
EndChar

StartChar: uni044C
Encoding: 1100 1100 189
Width: 500
VWidth: 0
Flags: W
HStem: 0 50<100 328.474> 350 50<100 328.474> 680 20G<50 100> 680 20G<50 100>
VStem: 50 50<50 350 400 700> 400 50<125 275>
LayerCount: 2
Fore
SplineSet
50 0 m 5xec
 50 700 l 5
 100 700 l 5
 100 400 l 5
 250 400 l 5
 450 400 450 200 450 200 c 5
 450 200 450 0 250 0 c 5
 50 0 l 5xec
100 50 m 5
 250 50 l 5
 400 50 400 200 400 200 c 5
 400 200 400 350 250 350 c 5
 100 350 l 5
 100 50 l 5
EndSplineSet
EndChar

StartChar: uni042C
Encoding: 1068 1068 190
Width: 500
VWidth: 0
Flags: W
HStem: 0 50<100 328.474> 350 50<100 328.474> 680 20G<50 100> 680 20G<50 100>
VStem: 50 50<50 350 400 700> 400 50<125 275>
LayerCount: 2
Fore
SplineSet
50 0 m 5xec
 50 700 l 5
 100 700 l 5
 100 400 l 5
 250 400 l 5
 450 400 450 200 450 200 c 5
 450 200 450 0 250 0 c 5
 50 0 l 5xec
100 50 m 5
 250 50 l 5
 400 50 400 200 400 200 c 5
 400 200 400 350 250 350 c 5
 100 350 l 5
 100 50 l 5
EndSplineSet
EndChar

StartChar: uni044B
Encoding: 1099 1099 191
Width: 700
VWidth: 0
Flags: W
HStem: 0 50<100 328.474> 350 50<100 328.474> 680 20G<50 100 550 600> 680 20G<50 100 550 600>
VStem: 50 50<50 350 400 700> 400 50<125 275> 550 50<0 700>
LayerCount: 2
Fore
SplineSet
550 700 m 25xee
 600 700 l 25
 600 0 l 25
 550 0 l 29
 550 700 l 25xee
50 0 m 1
 50 700 l 1
 100 700 l 1
 100 400 l 1
 250 400 l 1
 450 400 450 200 450 200 c 1
 450 200 450 0 250 0 c 1
 50 0 l 1
100 50 m 1
 250 50 l 1
 400 50 400 200 400 200 c 1
 400 200 400 350 250 350 c 1
 100 350 l 1
 100 50 l 1
EndSplineSet
EndChar

StartChar: uni042B
Encoding: 1067 1067 192
Width: 700
VWidth: 0
Flags: W
HStem: 0 50<100 328.474> 350 50<100 328.474> 680 20G<50 100 550 600> 680 20G<50 100 550 600>
VStem: 50 50<50 350 400 700> 400 50<125 275> 550 50<0 700>
LayerCount: 2
Fore
SplineSet
550 700 m 25xee
 600 700 l 25
 600 0 l 25
 550 0 l 29
 550 700 l 25xee
50 0 m 1
 50 700 l 1
 100 700 l 1
 100 400 l 1
 250 400 l 1
 450 400 450 200 450 200 c 1
 450 200 450 0 250 0 c 1
 50 0 l 1
100 50 m 1
 250 50 l 1
 400 50 400 200 400 200 c 1
 400 200 400 350 250 350 c 1
 100 350 l 1
 100 50 l 1
EndSplineSet
EndChar

StartChar: uni044A
Encoding: 1098 1098 193
Width: 600
VWidth: 0
Flags: W
HStem: 0 50<200 428.474> 350 50<200 428.474> 650 50<50 150>
VStem: 150 50<50 350 400 650> 500 50<125 275>
LayerCount: 2
Fore
SplineSet
150 0 m 1
 150 650 l 5
 50 650 l 1
 50 700 l 1
 200 700 l 1
 200 400 l 1
 350 400 l 1
 550 400 550 200 550 200 c 1
 550 200 550 0 350 0 c 1
 150 0 l 1
200 50 m 1
 350 50 l 1
 500 50 500 200 500 200 c 1
 500 200 500 350 350 350 c 1
 200 350 l 1
 200 50 l 1
EndSplineSet
EndChar

StartChar: uni042A
Encoding: 1066 1066 194
Width: 600
VWidth: 0
Flags: W
HStem: 0 50<200 428.474> 350 50<200 428.474> 650 50<50 150>
VStem: 150 50<50 350 400 650> 500 50<125 275>
LayerCount: 2
Fore
SplineSet
150 0 m 1
 150 650 l 5
 50 650 l 1
 50 700 l 1
 200 700 l 1
 200 400 l 1
 350 400 l 1
 550 400 550 200 550 200 c 1
 550 200 550 0 350 0 c 1
 150 0 l 1
200 50 m 1
 350 50 l 1
 500 50 500 200 500 200 c 1
 500 200 500 350 350 350 c 1
 200 350 l 1
 200 50 l 1
EndSplineSet
EndChar

StartChar: uni0447
Encoding: 1095 1095 195
Width: 500
VWidth: 0
Flags: W
HStem: 0 21G<400 450> 0 21G<400 450> 300 50<171.526 400> 680 20G<50 100 400 450> 680 20G<50 100 400 450>
VStem: 50 50<425 700> 400 50<0 300 350 700>
LayerCount: 2
Fore
SplineSet
50 700 m 29xb6
 100 700 l 29
 100 500 l 29
 100 500 100 350 250 350 c 13
 400 350 l 29
 400 700 l 29
 450 700 l 29
 450 0 l 29
 400 0 l 29
 400 300 l 29
 250 300 l 21
 50 300 50 500 50 500 c 13
 50 700 l 29xb6
EndSplineSet
EndChar

StartChar: uni0427
Encoding: 1063 1063 196
Width: 500
VWidth: 0
Flags: W
HStem: 0 21G<400 450> 0 21G<400 450> 300 50<171.526 400> 680 20G<50 100 400 450> 680 20G<50 100 400 450>
VStem: 50 50<425 700> 400 50<0 300 350 700>
LayerCount: 2
Fore
SplineSet
50 700 m 29xb6
 100 700 l 29
 100 500 l 29
 100 500 100 350 250 350 c 13
 400 350 l 29
 400 700 l 29
 450 700 l 29
 450 0 l 29
 400 0 l 29
 400 300 l 29
 250 300 l 21
 50 300 50 500 50 500 c 13
 50 700 l 29xb6
EndSplineSet
EndChar

StartChar: emdash
Encoding: 8212 8212 197
Width: 700
VWidth: 0
Flags: W
HStem: 325 50<50 650>
LayerCount: 2
Fore
SplineSet
50 375 m 25
 650 375 l 25
 650 325 l 25
 50 325 l 29
 50 375 l 25
EndSplineSet
EndChar

StartChar: bullet
Encoding: 8226 8226 198
Width: 300
VWidth: 0
Flags: W
HStem: 275 150<97.7471 202.253>
VStem: 75 150<297.097 402.903>
LayerCount: 2
Fore
SplineSet
75 350 m 25
 75 350 75 425 150 425 c 1
 225 425 225 350 225 350 c 25
 225 350 225 275 150 275 c 5
 75 275 75 350 75 350 c 25
EndSplineSet
EndChar

StartChar: periodcentered
Encoding: 183 183 199
Width: 200
VWidth: 0
Flags: W
HStem: 300 100<75 125>
VStem: 75 50<300 400>
LayerCount: 2
Fore
SplineSet
75 400 m 25
 125 400 l 25
 125 300 l 25
 75 300 l 29
 75 400 l 25
EndSplineSet
EndChar

StartChar: eacute
Encoding: 233 233 200
Width: 500
VWidth: 0
Flags: W
HStem: 0 50<100 450> 225 50<100 450> 450 50<100 450> 680 20G<246 350> 680 20G<246 350>
VStem: 50 50<50 225 275 450>
LayerCount: 2
Fore
SplineSet
150 600 m 29xf4
 270 700 l 29
 350 700 l 29
 230 600 l 29
 150 600 l 29xf4
50 500 m 1
 450 500 l 1
 450 450 l 1
 100 450 l 1
 100 275 l 1
 450 275 l 1
 450 225 l 1
 100 225 l 1
 100 50 l 1
 450 50 l 1
 450 0 l 1
 50 0 l 1
 50 500 l 1
EndSplineSet
EndChar

StartChar: Eacute
Encoding: 201 201 201
Width: 500
VWidth: 0
Flags: W
HStem: 0 50<100 450> 225 50<100 450> 450 50<100 450> 680 20G<246 350> 680 20G<246 350>
VStem: 50 50<50 225 275 450>
LayerCount: 2
Fore
SplineSet
150 600 m 29xf4
 270 700 l 29
 350 700 l 29
 230 600 l 29
 150 600 l 29xf4
50 500 m 1
 450 500 l 1
 450 450 l 1
 100 450 l 1
 100 275 l 1
 450 275 l 1
 450 225 l 1
 100 225 l 1
 100 50 l 1
 450 50 l 1
 450 0 l 1
 50 0 l 1
 50 500 l 1
EndSplineSet
EndChar

StartChar: aacute
Encoding: 225 225 202
Width: 500
VWidth: 0
Flags: W
HStem: 0 21G<50 100 400 450> 0 21G<50 100 400 450> 225 50<100 400> 450 50<170.831 329.169> 680 20G<246 350> 680 20G<246 350>
VStem: 50 50<0 225 275 375> 400 50<0 225 275 375>
LayerCount: 2
Fore
SplineSet
150 600 m 29x3b
 270 700 l 29
 350 700 l 29
 230 600 l 29
 150 600 l 29x3b
250 500 m 1
 450 500 450 300 450 300 c 1
 450 0 l 1
 400 0 l 1
 400 225 l 1
 100 225 l 1
 100 0 l 1
 50 0 l 1xb3
 50 300 l 1
 50 300 50 500 250 500 c 1
250 450 m 1
 100 450 100 300 100 300 c 1
 100 275 l 1
 400 275 l 1
 400 300 l 1
 400 300 400 450 250 450 c 1
EndSplineSet
EndChar

StartChar: Aacute
Encoding: 193 193 203
Width: 500
VWidth: 0
Flags: W
HStem: 0 21G<50 100 400 450> 0 21G<50 100 400 450> 225 50<100 400> 450 50<170.831 329.169> 680 20G<246 350> 680 20G<246 350>
VStem: 50 50<0 225 275 375> 400 50<0 225 275 375>
LayerCount: 2
Fore
SplineSet
150 600 m 29x3b
 270 700 l 29
 350 700 l 29
 230 600 l 29
 150 600 l 29x3b
250 500 m 1
 450 500 450 300 450 300 c 1
 450 0 l 1
 400 0 l 1
 400 225 l 1
 100 225 l 1
 100 0 l 1
 50 0 l 1xb3
 50 300 l 1
 50 300 50 500 250 500 c 1
250 450 m 1
 100 450 100 300 100 300 c 1
 100 275 l 1
 400 275 l 1
 400 300 l 1
 400 300 400 450 250 450 c 1
EndSplineSet
EndChar

StartChar: uni0458
Encoding: 1112 1112 204
Width: 500
VWidth: 0
Flags: W
HStem: 0 50<168.287 331.713> 680 20G<400 450> 680 20G<400 450>
VStem: 50 50<124.181 200> 400 50<124.181 700>
LayerCount: 2
Fore
SplineSet
400 700 m 1xd8
 450 700 l 1
 450 200 l 1
 450 200 450 151 425 101 c 0
 400 51 346 0 250 0 c 0
 154 0 100 51 75 101 c 0
 50 151 50 200 50 200 c 1
 100 200 l 1
 100 200 100 162 119 124 c 0
 138 86 171 50 250 50 c 0
 329 50 362 86 381 124 c 0
 400 162 400 200 400 200 c 1
 400 700 l 1xd8
EndSplineSet
EndChar

StartChar: uni0408
Encoding: 1032 1032 205
Width: 500
VWidth: 0
Flags: W
HStem: 0 50<168.287 331.713> 680 20G<400 450> 680 20G<400 450>
VStem: 50 50<124.181 200> 400 50<124.181 700>
LayerCount: 2
Fore
SplineSet
400 700 m 1xd8
 450 700 l 1
 450 200 l 1
 450 200 450 151 425 101 c 0
 400 51 346 0 250 0 c 0
 154 0 100 51 75 101 c 0
 50 151 50 200 50 200 c 1
 100 200 l 1
 100 200 100 162 119 124 c 0
 138 86 171 50 250 50 c 0
 329 50 362 86 381 124 c 0
 400 162 400 200 400 200 c 1
 400 700 l 1xd8
EndSplineSet
EndChar

StartChar: adieresis
Encoding: 228 228 206
Width: 500
VWidth: 0
Flags: W
HStem: 0 21G<50 100 400 450> 0 21G<50 100 400 450> 225 50<100 400> 450 50<170.831 329.169> 600 100<150 200 300 350>
VStem: 50 50<0 225 275 375> 150 50<600 700> 300 50<600 700> 400 50<0 225 275 375>
LayerCount: 2
Fore
SplineSet
300 600 m 29x3f80
 300 700 l 29
 350 700 l 29
 350 600 l 29
 300 600 l 29x3f80
150 600 m 29
 150 700 l 29
 200 700 l 29
 200 600 l 29
 150 600 l 29
250 500 m 1
 450 500 450 300 450 300 c 1
 450 0 l 1
 400 0 l 1
 400 225 l 1
 100 225 l 1
 100 0 l 1
 50 0 l 1xbf80
 50 300 l 1
 50 300 50 500 250 500 c 1
250 450 m 1
 100 450 100 300 100 300 c 1
 100 275 l 1
 400 275 l 1
 400 300 l 1
 400 300 400 450 250 450 c 1
EndSplineSet
EndChar

StartChar: Adieresis
Encoding: 196 196 207
Width: 500
VWidth: 0
Flags: W
HStem: 0 21G<50 100 400 450> 0 21G<50 100 400 450> 225 50<100 400> 450 50<170.831 329.169> 600 100<150 200 300 350>
VStem: 50 50<0 225 275 375> 150 50<600 700> 300 50<600 700> 400 50<0 225 275 375>
LayerCount: 2
Fore
SplineSet
300 600 m 29x3f80
 300 700 l 29
 350 700 l 29
 350 600 l 29
 300 600 l 29x3f80
150 600 m 29
 150 700 l 29
 200 700 l 29
 200 600 l 29
 150 600 l 29
250 500 m 1
 450 500 450 300 450 300 c 1
 450 0 l 1
 400 0 l 1
 400 225 l 1
 100 225 l 1
 100 0 l 1
 50 0 l 1xbf80
 50 300 l 1
 50 300 50 500 250 500 c 1
250 450 m 1
 100 450 100 300 100 300 c 1
 100 275 l 1
 400 275 l 1
 400 300 l 1
 400 300 400 450 250 450 c 1
EndSplineSet
EndChar

StartChar: Ccaron
Encoding: 268 268 208
Width: 500
VWidth: 0
Flags: HW
HStem: 0 50<170.831 329.169> 450 50<170.831 329.169> 680 20G<150 228.102 271.898 350> 680 20G<150 228.102 271.898 350>
VStem: 50 50<125 375> 400 50<125 200 300 375>
LayerCount: 2
Fore
SplineSet
150 700 m 29xec
 213 700 l 29
 250 651 l 29
 287 700 l 29
 350 700 l 29
 275 600 l 29
 225 600 l 29
 150 700 l 29xec
250 500 m 1
 450 500 450 300 450 300 c 1
 400 300 l 1
 400 300 400 450 250 450 c 1
 100 450 100 300 100 300 c 1
 100 200 l 1
 100 200 100 50 250 50 c 1
 400 50 400 200 400 200 c 1
 450 200 l 1
 450 200 450 0 250 0 c 1
 50 0 50 200 50 200 c 1
 50 300 l 1
 50 300 50 500 250 500 c 1
EndSplineSet
EndChar

StartChar: ccaron
Encoding: 269 269 209
Width: 500
VWidth: 0
Flags: W
HStem: 0 50<170.831 329.169> 450 50<170.831 329.169> 680 20G<150 228.102 271.898 350> 680 20G<150 228.102 271.898 350>
VStem: 50 50<125 375> 400 50<125 200 300 375>
LayerCount: 2
Fore
SplineSet
150 700 m 29xec
 213 700 l 29
 250 651 l 29
 287 700 l 29
 350 700 l 29
 275 600 l 29
 225 600 l 29
 150 700 l 29xec
250 500 m 1
 450 500 450 300 450 300 c 1
 400 300 l 1
 400 300 400 450 250 450 c 1
 100 450 100 300 100 300 c 1
 100 200 l 1
 100 200 100 50 250 50 c 1
 400 50 400 200 400 200 c 1
 450 200 l 1
 450 200 450 0 250 0 c 1
 50 0 50 200 50 200 c 1
 50 300 l 1
 50 300 50 500 250 500 c 1
EndSplineSet
EndChar

StartChar: dcaron
Encoding: 271 271 210
Width: 500
VWidth: 0
Flags: W
HStem: 0 50<100 328.474> 450 50<100 328.474> 680 20G<150 228.102 271.898 350> 680 20G<150 228.102 271.898 350>
VStem: 50 50<50 450> 400 50<125 375>
LayerCount: 2
Fore
SplineSet
150 700 m 29xec
 213 700 l 29
 250 651 l 29
 287 700 l 29
 350 700 l 29
 275 600 l 29
 225 600 l 29
 150 700 l 29xec
50 500 m 1
 250 500 l 1
 450 500 450 300 450 300 c 1
 450 200 l 1
 450 200 450 0 250 0 c 1
 50 0 l 1
 50 500 l 1
100 450 m 1
 100 50 l 1
 250 50 l 1
 400 50 400 200 400 200 c 1
 400 300 l 1
 400 300 400 450 250 450 c 1
 100 450 l 1
EndSplineSet
EndChar

StartChar: Dcaron
Encoding: 270 270 211
Width: 500
VWidth: 0
Flags: W
HStem: 0 50<100 328.474> 450 50<100 328.474> 680 20G<150 228.102 271.898 350> 680 20G<150 228.102 271.898 350>
VStem: 50 50<50 450> 400 50<125 375>
LayerCount: 2
Fore
SplineSet
150 700 m 29xec
 213 700 l 29
 250 651 l 29
 287 700 l 29
 350 700 l 29
 275 600 l 29
 225 600 l 29
 150 700 l 29xec
50 500 m 1
 250 500 l 1
 450 500 450 300 450 300 c 1
 450 200 l 1
 450 200 450 0 250 0 c 1
 50 0 l 1
 50 500 l 1
100 450 m 1
 100 50 l 1
 250 50 l 1
 400 50 400 200 400 200 c 1
 400 300 l 1
 400 300 400 450 250 450 c 1
 100 450 l 1
EndSplineSet
EndChar

StartChar: Scaron
Encoding: 352 352 212
Width: 500
VWidth: 0
Flags: W
HStem: 0 50<50 367.107> 225 50<132.893 367.107> 450 50<132.893 450> 680 20G<150 228.102 271.898 350> 680 20G<150 228.102 271.898 350>
LayerCount: 2
Fore
SplineSet
150 700 m 25xf0
 213 700 l 25
 250 651 l 25
 287 700 l 25
 350 700 l 25
 275 600 l 25
 225 600 l 25
 150 700 l 25xf0
450 500 m 1
 450 450 l 1
 188 450 l 1
 100 450 100 362 100 362 c 1
 100 362 100 275 188 275 c 1
 312 275 l 1
 450 275 450 138 450 138 c 1
 450 138 450 0 312 0 c 1
 50 0 l 1
 50 50 l 5
 312 50 l 1
 400 50 400 138 400 138 c 1
 400 138 400 225 312 225 c 1
 188 225 l 1
 50 225 50 362 50 362 c 1
 50 362 50 500 188 500 c 1
 450 500 l 1
EndSplineSet
EndChar

StartChar: scaron
Encoding: 353 353 213
Width: 500
VWidth: 0
Flags: W
HStem: 0 50<50 367.107> 225 50<132.893 367.107> 450 50<132.893 450> 680 20G<150 228.102 271.898 350> 680 20G<150 228.102 271.898 350>
LayerCount: 2
Fore
SplineSet
150 700 m 25xf0
 213 700 l 25
 250 651 l 25
 287 700 l 25
 350 700 l 25
 275 600 l 25
 225 600 l 25
 150 700 l 25xf0
450 500 m 1
 450 450 l 1
 188 450 l 1
 100 450 100 362 100 362 c 1
 100 362 100 275 188 275 c 1
 312 275 l 1
 450 275 450 138 450 138 c 1
 450 138 450 0 312 0 c 1
 50 0 l 1
 50 50 l 5
 312 50 l 1
 400 50 400 138 400 138 c 1
 400 138 400 225 312 225 c 1
 188 225 l 1
 50 225 50 362 50 362 c 1
 50 362 50 500 188 500 c 1
 450 500 l 1
EndSplineSet
EndChar

StartChar: Tcaron
Encoding: 356 356 214
Width: 600
VWidth: 0
Flags: W
HStem: 0 21G<275 325> 0 21G<275 325> 450 50<50 275 325 550> 680 20G<200 278.102 321.898 400> 680 20G<200 278.102 321.898 400>
VStem: 275 50<0 450>
LayerCount: 2
Fore
SplineSet
200 700 m 29x34
 263 700 l 29
 300 651 l 29
 337 700 l 29
 400 700 l 29
 325 600 l 29
 275 600 l 29
 200 700 l 29x34
50 500 m 1
 550 500 l 1
 550 450 l 1
 325 450 l 1
 325 0 l 1
 275 0 l 1xa4
 275 450 l 1
 50 450 l 1
 50 500 l 1
EndSplineSet
EndChar

StartChar: tcaron
Encoding: 357 357 215
Width: 600
VWidth: 0
Flags: W
HStem: 0 21G<275 325> 0 21G<275 325> 450 50<50 275 325 550> 680 20G<200 278.102 321.898 400> 680 20G<200 278.102 321.898 400>
VStem: 275 50<0 450>
LayerCount: 2
Fore
SplineSet
200 700 m 29x34
 263 700 l 29
 300 651 l 29
 337 700 l 29
 400 700 l 29
 325 600 l 29
 275 600 l 29
 200 700 l 29x34
50 500 m 1
 550 500 l 1
 550 450 l 1
 325 450 l 1
 325 0 l 1
 275 0 l 1xa4
 275 450 l 1
 50 450 l 1
 50 500 l 1
EndSplineSet
EndChar

StartChar: Yacute
Encoding: 221 221 216
Width: 500
VWidth: 0
Flags: W
HStem: 0 21G<275 325> 0 21G<275 325> 200 50<170.831 272.373> 680 20G<246 350> 680 20G<246 350>
VStem: 50 50<325 500> 275 50<0 201> 400 50<325.102 500>
LayerCount: 2
Fore
SplineSet
150 600 m 29x37
 270 700 l 29
 350 700 l 29
 230 600 l 29
 150 600 l 29x37
50 500 m 1
 100 500 l 1
 100 400 l 1
 100 400 100 250 250 250 c 1
 400 250 400 400 400 400 c 1
 400 500 l 1
 450 500 l 1
 450 400 l 1
 450 326 405 237 325 212 c 1
 325 0 l 1
 275 0 l 1xa7
 275 201 l 1
 267 200 259 200 250 200 c 1
 50 200 50 400 50 400 c 1
 50 500 l 1
EndSplineSet
EndChar

StartChar: yacute
Encoding: 253 253 217
Width: 500
VWidth: 0
Flags: W
HStem: 0 21G<275 325> 0 21G<275 325> 200 50<170.831 272.373> 680 20G<246 350> 680 20G<246 350>
VStem: 50 50<325 500> 275 50<0 201> 400 50<325.102 500>
LayerCount: 2
Fore
SplineSet
150 600 m 29x37
 270 700 l 29
 350 700 l 29
 230 600 l 29
 150 600 l 29x37
50 500 m 1
 100 500 l 1
 100 400 l 1
 100 400 100 250 250 250 c 1
 400 250 400 400 400 400 c 1
 400 500 l 1
 450 500 l 1
 450 400 l 1
 450 326 405 237 325 212 c 1
 325 0 l 1
 275 0 l 1xa7
 275 201 l 1
 267 200 259 200 250 200 c 1
 50 200 50 400 50 400 c 1
 50 500 l 1
EndSplineSet
EndChar

StartChar: Uacute
Encoding: 218 218 218
Width: 500
VWidth: 0
Flags: W
HStem: 0 50<170.831 329.169> 680 20G<246 350> 680 20G<246 350>
VStem: 50 50<125 500> 400 50<125 500>
LayerCount: 2
Fore
SplineSet
150 600 m 29xd8
 270 700 l 29
 350 700 l 29
 230 600 l 29
 150 600 l 29xd8
50 500 m 1
 100 500 l 1
 100 200 l 1
 100 200 100 50 250 50 c 1
 400 50 400 200 400 200 c 1
 400 500 l 1
 450 500 l 1
 450 200 l 1
 450 200 450 0 250 0 c 1
 50 0 50 200 50 200 c 1
 50 500 l 1
EndSplineSet
EndChar

StartChar: uacute
Encoding: 250 250 219
Width: 500
VWidth: 0
Flags: W
HStem: 0 50<170.831 329.169> 680 20G<246 350> 680 20G<246 350>
VStem: 50 50<125 500> 400 50<125 500>
LayerCount: 2
Fore
SplineSet
150 600 m 29xd8
 270 700 l 29
 350 700 l 29
 230 600 l 29
 150 600 l 29xd8
50 500 m 1
 100 500 l 1
 100 200 l 1
 100 200 100 50 250 50 c 1
 400 50 400 200 400 200 c 1
 400 500 l 1
 450 500 l 1
 450 200 l 1
 450 200 450 0 250 0 c 1
 50 0 50 200 50 200 c 1
 50 500 l 1
EndSplineSet
EndChar

StartChar: Oacute
Encoding: 211 211 220
Width: 500
VWidth: 0
Flags: W
HStem: 0 50<170.831 329.169> 450 50<170.831 329.169> 680 20G<246 350> 680 20G<246 350>
VStem: 50 50<125 375> 400 50<125 375>
LayerCount: 2
Fore
SplineSet
150 600 m 25xec
 270 700 l 25
 350 700 l 25
 230 600 l 25
 150 600 l 25xec
250 500 m 1
 450 500 450 300 450 300 c 1
 450 200 l 1
 450 200 450 0 250 0 c 1
 50 0 50 200 50 200 c 1
 50 300 l 1
 50 300 50 500 250 500 c 1
250 450 m 1
 100 450 100 300 100 300 c 1
 100 200 l 1
 100 200 100 50 250 50 c 1
 400 50 400 200 400 200 c 1
 400 300 l 1
 400 300 400 450 250 450 c 1
EndSplineSet
EndChar

StartChar: oacute
Encoding: 243 243 221
Width: 500
VWidth: 0
Flags: W
HStem: 0 50<170.831 329.169> 450 50<170.831 329.169> 680 20G<246 350> 680 20G<246 350>
VStem: 50 50<125 375> 400 50<125 375>
LayerCount: 2
Fore
SplineSet
150 600 m 25xec
 270 700 l 25
 350 700 l 25
 230 600 l 25
 150 600 l 25xec
250 500 m 1
 450 500 450 300 450 300 c 1
 450 200 l 1
 450 200 450 0 250 0 c 1
 50 0 50 200 50 200 c 1
 50 300 l 1
 50 300 50 500 250 500 c 1
250 450 m 1
 100 450 100 300 100 300 c 1
 100 200 l 1
 100 200 100 50 250 50 c 1
 400 50 400 200 400 200 c 1
 400 300 l 1
 400 300 400 450 250 450 c 1
EndSplineSet
EndChar

StartChar: Ncaron
Encoding: 327 327 222
Width: 500
VWidth: 0
Flags: W
HStem: 0 21G<50 100 400 450> 0 21G<50 100 400 450> 680 20G<150 228.102 271.898 350> 680 20G<150 228.102 271.898 350>
VStem: 50 50<0 358 423.791 500> 400 50<0 75.6105 142 500>
LayerCount: 2
Fore
SplineSet
50 0 m 5x8c
 50 500 l 5
 100 500 l 5
 100 404 200 322 203 320 c 5
 328 220 l 5
 329 219 367 189 400 142 c 5
 400 500 l 5
 450 500 l 5
 450 0 l 5
 400 0 l 5
 400 21 395 41 388 60 c 5
 362 128 299 179 297 180 c 5
 172 280 l 5
 171 281 134 310 100 358 c 5
 100 0 l 5
 50 0 l 5x8c
150 700 m 25x2c
 213 700 l 25
 250 651 l 25
 287 700 l 25
 350 700 l 25
 275 600 l 25
 225 600 l 25
 150 700 l 25x2c
EndSplineSet
EndChar

StartChar: ncaron
Encoding: 328 328 223
Width: 500
VWidth: 0
Flags: W
HStem: 0 21G<50 100 400 450> 0 21G<50 100 400 450> 680 20G<150 228.102 271.898 350> 680 20G<150 228.102 271.898 350>
VStem: 50 50<0 358 423.791 500> 400 50<0 75.6105 142 500>
LayerCount: 2
Fore
SplineSet
50 0 m 5x8c
 50 500 l 5
 100 500 l 5
 100 404 200 322 203 320 c 5
 328 220 l 5
 329 219 367 189 400 142 c 5
 400 500 l 5
 450 500 l 5
 450 0 l 5
 400 0 l 5
 400 21 395 41 388 60 c 5
 362 128 299 179 297 180 c 5
 172 280 l 5
 171 281 134 310 100 358 c 5
 100 0 l 5
 50 0 l 5x8c
150 700 m 25x2c
 213 700 l 25
 250 651 l 25
 287 700 l 25
 350 700 l 25
 275 600 l 25
 225 600 l 25
 150 700 l 25x2c
EndSplineSet
EndChar

StartChar: Zcaron
Encoding: 381 381 224
Width: 500
VWidth: 0
Flags: W
HStem: 0 50<103 450> 450 50<50 397> 680 20G<150 228.102 271.898 350> 680 20G<150 228.102 271.898 350>
LayerCount: 2
Fore
SplineSet
150 700 m 25xe0
 213 700 l 25
 250 651 l 25
 287 700 l 25
 350 700 l 25
 275 600 l 25
 225 600 l 25
 150 700 l 25xe0
450 0 m 1
 50 0 l 1
 50 25 l 2
 50 85 82 120 107 145 c 2
 357 393 l 2
 376 412 391 427 397 450 c 1
 50 450 l 1
 50 500 l 1
 450 500 l 1
 450 475 l 2
 450 415 418 382 393 357 c 2
 143 109 l 2
 124 90 110 75 103 50 c 1
 450 50 l 1
 450 0 l 1
EndSplineSet
EndChar

StartChar: zcaron
Encoding: 382 382 225
Width: 500
VWidth: 0
Flags: W
HStem: 0 50<103 450> 450 50<50 397> 680 20G<150 228.102 271.898 350> 680 20G<150 228.102 271.898 350>
LayerCount: 2
Fore
SplineSet
150 700 m 25xe0
 213 700 l 25
 250 651 l 25
 287 700 l 25
 350 700 l 25
 275 600 l 25
 225 600 l 25
 150 700 l 25xe0
450 0 m 1
 50 0 l 1
 50 25 l 2
 50 85 82 120 107 145 c 2
 357 393 l 2
 376 412 391 427 397 450 c 1
 50 450 l 1
 50 500 l 1
 450 500 l 1
 450 475 l 2
 450 415 418 382 393 357 c 2
 143 109 l 2
 124 90 110 75 103 50 c 1
 450 50 l 1
 450 0 l 1
EndSplineSet
EndChar

StartChar: Ocircumflex
Encoding: 212 212 226
Width: 500
VWidth: 0
Flags: W
HStem: 0 50<170.831 329.169> 450 50<170.831 329.169> 680 20G<210 290> 680 20G<210 290>
VStem: 50 50<125 375> 400 50<125 375>
LayerCount: 2
Fore
SplineSet
150 600 m 29xec
 225 700 l 29
 275 700 l 29
 350 600 l 29
 287 600 l 29
 250 649 l 29
 213 600 l 29
 150 600 l 29xec
250 500 m 1
 450 500 450 300 450 300 c 1
 450 200 l 1
 450 200 450 0 250 0 c 1
 50 0 50 200 50 200 c 1
 50 300 l 1
 50 300 50 500 250 500 c 1
250 450 m 1
 100 450 100 300 100 300 c 1
 100 200 l 1
 100 200 100 50 250 50 c 1
 400 50 400 200 400 200 c 1
 400 300 l 1
 400 300 400 450 250 450 c 1
EndSplineSet
EndChar

StartChar: ocircumflex
Encoding: 244 244 227
Width: 500
VWidth: 0
Flags: W
HStem: 0 50<170.831 329.169> 450 50<170.831 329.169> 680 20G<210 290> 680 20G<210 290>
VStem: 50 50<125 375> 400 50<125 375>
LayerCount: 2
Fore
SplineSet
150 600 m 29xec
 225 700 l 29
 275 700 l 29
 350 600 l 29
 287 600 l 29
 250 649 l 29
 213 600 l 29
 150 600 l 29xec
250 500 m 1
 450 500 450 300 450 300 c 1
 450 200 l 1
 450 200 450 0 250 0 c 1
 50 0 50 200 50 200 c 1
 50 300 l 1
 50 300 50 500 250 500 c 1
250 450 m 1
 100 450 100 300 100 300 c 1
 100 200 l 1
 100 200 100 50 250 50 c 1
 400 50 400 200 400 200 c 1
 400 300 l 1
 400 300 400 450 250 450 c 1
EndSplineSet
EndChar

StartChar: Racute
Encoding: 340 340 228
Width: 500
VWidth: 0
Flags: W
HStem: -0 21G<50 100 400 450> -0 21G<50 100 400 450> 200 50<100 302> 450 50<100 359.898> 680 20G<246 350> 680 20G<246 350>
VStem: 50 50<0 200 250 450> 400 50<0 109.237 288.802 411.011>
LayerCount: 2
Fore
SplineSet
150 600 m 29x3b
 270 700 l 29
 350 700 l 29
 230 600 l 29
 150 600 l 29x3b
50 500 m 1
 300 500 l 1
 450 500 450 350 450 350 c 1
 450 311 431 239 362 211 c 1
 393 180 l 1
 424 149 450 95 450 37 c 2
 450 0 l 1
 400 0 l 1
 400 37 l 2
 400 79 376 126 357 145 c 1
 302 200 l 1
 100 200 l 1
 100 -0 l 1
 50 -0 l 1xb3
 50 500 l 1
100 450 m 1
 100 250 l 1
 300 250 l 1
 400 250 400 350 400 350 c 1
 400 350 400 450 300 450 c 1
 100 450 l 1
EndSplineSet
EndChar

StartChar: racute
Encoding: 341 341 229
Width: 500
VWidth: 0
Flags: W
HStem: -0 21G<50 100 400 450> -0 21G<50 100 400 450> 200 50<100 302> 450 50<100 359.898> 680 20G<246 350> 680 20G<246 350>
VStem: 50 50<0 200 250 450> 400 50<0 109.237 288.802 411.011>
LayerCount: 2
Fore
SplineSet
150 600 m 29x3b
 270 700 l 29
 350 700 l 29
 230 600 l 29
 150 600 l 29x3b
50 500 m 1
 300 500 l 1
 450 500 450 350 450 350 c 1
 450 311 431 239 362 211 c 1
 393 180 l 1
 424 149 450 95 450 37 c 2
 450 0 l 1
 400 0 l 1
 400 37 l 2
 400 79 376 126 357 145 c 1
 302 200 l 1
 100 200 l 1
 100 -0 l 1
 50 -0 l 1xb3
 50 500 l 1
100 450 m 1
 100 250 l 1
 300 250 l 1
 400 250 400 350 400 350 c 1
 400 350 400 450 300 450 c 1
 100 450 l 1
EndSplineSet
EndChar

StartChar: Iacute
Encoding: 205 205 230
Width: 300
VWidth: 0
Flags: W
HStem: 0 21G<75 125> 0 21G<75 125> 680 20G<146 250> 680 20G<146 250>
VStem: 75 50<0 500>
LayerCount: 2
Fore
SplineSet
50 600 m 25x28
 170 700 l 25
 250 700 l 25
 130 600 l 25
 50 600 l 25x28
75 500 m 1
 125 500 l 1
 125 0 l 1
 75 0 l 5x88
 75 500 l 1
EndSplineSet
EndChar

StartChar: iacute
Encoding: 237 237 231
Width: 300
VWidth: 0
Flags: W
HStem: 0 21G<75 125> 0 21G<75 125> 680 20G<146 250> 680 20G<146 250>
VStem: 75 50<0 500>
LayerCount: 2
Fore
SplineSet
50 600 m 25x28
 170 700 l 25
 250 700 l 25
 130 600 l 25
 50 600 l 25x28
75 500 m 1
 125 500 l 1
 125 0 l 1
 75 0 l 5x88
 75 500 l 1
EndSplineSet
EndChar

StartChar: Lacute
Encoding: 313 313 232
Width: 500
VWidth: 0
Flags: W
HStem: 0 50<100 450> 680 20G<146 250> 680 20G<146 250>
VStem: 50 50<50 500>
LayerCount: 2
Fore
SplineSet
50 600 m 29xd0
 170 700 l 25
 250 700 l 25
 130 600 l 25
 50 600 l 29xd0
50 500 m 1
 100 500 l 1
 100 50 l 1
 450 50 l 1
 450 0 l 1
 50 0 l 1
 50 500 l 1
EndSplineSet
EndChar

StartChar: lacute
Encoding: 314 314 233
Width: 500
VWidth: 0
Flags: W
HStem: 0 50<100 450> 680 20G<146 250> 680 20G<146 250>
VStem: 50 50<50 500>
LayerCount: 2
Fore
SplineSet
50 600 m 29xd0
 170 700 l 25
 250 700 l 25
 130 600 l 25
 50 600 l 29xd0
50 500 m 1
 100 500 l 1
 100 50 l 1
 450 50 l 1
 450 0 l 1
 50 0 l 1
 50 500 l 1
EndSplineSet
EndChar

StartChar: Lcaron
Encoding: 317 317 234
Width: 500
VWidth: 0
Flags: W
HStem: 0 50<100 450> 680 20G<50 128.102 171.898 250> 680 20G<50 128.102 171.898 250>
VStem: 50 50<50 500>
LayerCount: 2
Fore
SplineSet
50 700 m 25xd0
 113 700 l 25
 150 651 l 25
 187 700 l 25
 250 700 l 25
 175 600 l 25
 125 600 l 29
 50 700 l 25xd0
50 500 m 1
 100 500 l 1
 100 50 l 1
 450 50 l 1
 450 0 l 1
 50 0 l 1
 50 500 l 1
EndSplineSet
EndChar

StartChar: lcaron
Encoding: 318 318 235
Width: 500
VWidth: 0
Flags: W
HStem: 0 50<100 450> 680 20G<50 128.102 171.898 250> 680 20G<50 128.102 171.898 250>
VStem: 50 50<50 500>
LayerCount: 2
Fore
SplineSet
50 700 m 25xd0
 113 700 l 25
 150 651 l 25
 187 700 l 25
 250 700 l 25
 175 600 l 25
 125 600 l 29
 50 700 l 25xd0
50 500 m 1
 100 500 l 1
 100 50 l 1
 450 50 l 1
 450 0 l 1
 50 0 l 1
 50 500 l 1
EndSplineSet
EndChar

StartChar: uni040D
Encoding: 1037 1037 236
Width: 500
VWidth: 0
Flags: W
HStem: 0 21G<50 100 400 450> 0 21G<50 100 400 450> 680 20G<150 254> 680 20G<150 254>
VStem: 50 50<0 76.2094 142 500> 400 50<0 358 424.39 500>
LayerCount: 2
Fore
SplineSet
50 500 m 5x8c
 100 500 l 5
 100 142 l 5
 134 190 171 219 172 220 c 5
 297 320 l 5
 299 321 362 372 388 440 c 5
 395 459 400 479 400 500 c 5
 450 500 l 5
 450 0 l 5
 400 0 l 5
 400 358 l 5
 367 311 329 281 328 280 c 5
 203 180 l 5
 200 178 100 96 100 0 c 5
 50 0 l 5
 50 500 l 5x8c
150 700 m 25x2c
 230 700 l 25
 350 600 l 25
 270 600 l 25
 150 700 l 25x2c
EndSplineSet
EndChar

StartChar: uni045D
Encoding: 1117 1117 237
Width: 500
VWidth: 0
Flags: W
HStem: 0 21G<50 100 400 450> 0 21G<50 100 400 450> 680 20G<150 254> 680 20G<150 254>
VStem: 50 50<0 76.2094 142 500> 400 50<0 358 424.39 500>
LayerCount: 2
Fore
SplineSet
50 500 m 5x8c
 100 500 l 5
 100 142 l 5
 134 190 171 219 172 220 c 5
 297 320 l 5
 299 321 362 372 388 440 c 5
 395 459 400 479 400 500 c 5
 450 500 l 5
 450 0 l 5
 400 0 l 5
 400 358 l 5
 367 311 329 281 328 280 c 5
 203 180 l 5
 200 178 100 96 100 0 c 5
 50 0 l 5
 50 500 l 5x8c
150 700 m 25x2c
 230 700 l 25
 350 600 l 25
 270 600 l 25
 150 700 l 25x2c
EndSplineSet
EndChar

StartChar: Edieresis
Encoding: 203 203 238
Width: 500
VWidth: 0
Flags: W
HStem: 0 50<100 450> 225 50<100 450> 450 50<100 450> 600 100<150 200 300 350>
VStem: 50 50<50 225 275 450> 150 50<600 700> 300 50<600 700>
LayerCount: 2
Fore
SplineSet
300 700 m 29
 350 700 l 29
 350 600 l 29
 300 600 l 29
 300 700 l 29
150 700 m 29
 200 700 l 29
 200 600 l 29
 150 600 l 29
 150 700 l 29
50 500 m 1
 450 500 l 1
 450 450 l 1
 100 450 l 1
 100 275 l 1
 450 275 l 1
 450 225 l 1
 100 225 l 1
 100 50 l 1
 450 50 l 1
 450 0 l 1
 50 0 l 1
 50 500 l 1
EndSplineSet
EndChar

StartChar: edieresis
Encoding: 235 235 239
Width: 500
VWidth: 0
Flags: W
HStem: 0 50<100 450> 225 50<100 450> 450 50<100 450> 600 100<150 200 300 350>
VStem: 50 50<50 225 275 450> 150 50<600 700> 300 50<600 700>
LayerCount: 2
Fore
SplineSet
300 700 m 29
 350 700 l 29
 350 600 l 29
 300 600 l 29
 300 700 l 29
150 700 m 29
 200 700 l 29
 200 600 l 29
 150 600 l 29
 150 700 l 29
50 500 m 1
 450 500 l 1
 450 450 l 1
 100 450 l 1
 100 275 l 1
 450 275 l 1
 450 225 l 1
 100 225 l 1
 100 50 l 1
 450 50 l 1
 450 0 l 1
 50 0 l 1
 50 500 l 1
EndSplineSet
EndChar

StartChar: Agrave
Encoding: 192 192 240
Width: 500
VWidth: 0
Flags: W
HStem: 0 21G<50 100 400 450> 0 21G<50 100 400 450> 225 50<100 400> 450 50<170.831 329.169> 680 20G<150 254> 680 20G<150 254>
VStem: 50 50<0 225 275 375> 400 50<0 225 275 375>
LayerCount: 2
Fore
SplineSet
150 700 m 29x3b
 230 700 l 29
 350 600 l 29
 270 600 l 29
 150 700 l 29x3b
250 500 m 1
 450 500 450 300 450 300 c 1
 450 0 l 1
 400 0 l 1
 400 225 l 1
 100 225 l 1
 100 0 l 1
 50 0 l 1xb3
 50 300 l 1
 50 300 50 500 250 500 c 1
250 450 m 1
 100 450 100 300 100 300 c 1
 100 275 l 1
 400 275 l 1
 400 300 l 1
 400 300 400 450 250 450 c 1
EndSplineSet
EndChar

StartChar: agrave
Encoding: 224 224 241
Width: 500
VWidth: 0
Flags: W
HStem: 0 21G<50 100 400 450> 0 21G<50 100 400 450> 225 50<100 400> 450 50<170.831 329.169> 680 20G<150 254> 680 20G<150 254>
VStem: 50 50<0 225 275 375> 400 50<0 225 275 375>
LayerCount: 2
Fore
SplineSet
150 700 m 29x3b
 230 700 l 29
 350 600 l 29
 270 600 l 29
 150 700 l 29x3b
250 500 m 1
 450 500 450 300 450 300 c 1
 450 0 l 1
 400 0 l 1
 400 225 l 1
 100 225 l 1
 100 0 l 1
 50 0 l 1xb3
 50 300 l 1
 50 300 50 500 250 500 c 1
250 450 m 1
 100 450 100 300 100 300 c 1
 100 275 l 1
 400 275 l 1
 400 300 l 1
 400 300 400 450 250 450 c 1
EndSplineSet
EndChar

StartChar: Acircumflex
Encoding: 194 194 242
Width: 500
VWidth: 0
Flags: W
HStem: 0 21G<50 100 400 450> 0 21G<50 100 400 450> 225 50<100 400> 450 50<170.831 329.169> 680 20G<210 290> 680 20G<210 290>
VStem: 50 50<0 225 275 375> 400 50<0 225 275 375>
LayerCount: 2
Fore
SplineSet
150 600 m 29x3b
 225 700 l 29
 275 700 l 29
 350 600 l 29
 287 600 l 29
 250 649 l 29
 213 600 l 29
 150 600 l 29x3b
250 500 m 1
 450 500 450 300 450 300 c 1
 450 0 l 1
 400 0 l 1
 400 225 l 1
 100 225 l 1
 100 0 l 1
 50 0 l 1xb3
 50 300 l 1
 50 300 50 500 250 500 c 1
250 450 m 1
 100 450 100 300 100 300 c 1
 100 275 l 1
 400 275 l 1
 400 300 l 1
 400 300 400 450 250 450 c 1
EndSplineSet
EndChar

StartChar: acircumflex
Encoding: 226 226 243
Width: 500
VWidth: 0
Flags: W
HStem: 0 21G<50 100 400 450> 0 21G<50 100 400 450> 225 50<100 400> 450 50<170.831 329.169> 680 20G<210 290> 680 20G<210 290>
VStem: 50 50<0 225 275 375> 400 50<0 225 275 375>
LayerCount: 2
Fore
SplineSet
150 600 m 29x3b
 225 700 l 29
 275 700 l 29
 350 600 l 29
 287 600 l 29
 250 649 l 29
 213 600 l 29
 150 600 l 29x3b
250 500 m 1
 450 500 450 300 450 300 c 1
 450 0 l 1
 400 0 l 1
 400 225 l 1
 100 225 l 1
 100 0 l 1
 50 0 l 1xb3
 50 300 l 1
 50 300 50 500 250 500 c 1
250 450 m 1
 100 450 100 300 100 300 c 1
 100 275 l 1
 400 275 l 1
 400 300 l 1
 400 300 400 450 250 450 c 1
EndSplineSet
EndChar

StartChar: Ugrave
Encoding: 217 217 244
Width: 500
VWidth: 0
Flags: W
HStem: 0 50<170.831 329.169> 680 20G<150 254> 680 20G<150 254>
VStem: 50 50<125 500> 400 50<125 500>
LayerCount: 2
Fore
SplineSet
150 700 m 29xd8
 230 700 l 29
 350 600 l 29
 270 600 l 29
 150 700 l 29xd8
50 500 m 1
 100 500 l 1
 100 200 l 1
 100 200 100 50 250 50 c 1
 400 50 400 200 400 200 c 1
 400 500 l 1
 450 500 l 1
 450 200 l 1
 450 200 450 0 250 0 c 1
 50 0 50 200 50 200 c 1
 50 500 l 1
EndSplineSet
EndChar

StartChar: ugrave
Encoding: 249 249 245
Width: 500
VWidth: 0
Flags: W
HStem: 0 50<170.831 329.169> 680 20G<150 254> 680 20G<150 254>
VStem: 50 50<125 500> 400 50<125 500>
LayerCount: 2
Fore
SplineSet
150 700 m 29xd8
 230 700 l 29
 350 600 l 29
 270 600 l 29
 150 700 l 29xd8
50 500 m 1
 100 500 l 1
 100 200 l 1
 100 200 100 50 250 50 c 1
 400 50 400 200 400 200 c 1
 400 500 l 1
 450 500 l 1
 450 200 l 1
 450 200 450 0 250 0 c 1
 50 0 50 200 50 200 c 1
 50 500 l 1
EndSplineSet
EndChar

StartChar: Ucircumflex
Encoding: 219 219 246
Width: 500
VWidth: 0
Flags: W
HStem: 0 50<170.831 329.169> 680 20G<210 290> 680 20G<210 290>
VStem: 50 50<125 500> 400 50<125 500>
LayerCount: 2
Fore
SplineSet
150 600 m 29xd8
 225 700 l 29
 275 700 l 29
 350 600 l 29
 287 600 l 29
 250 649 l 29
 213 600 l 29
 150 600 l 29xd8
50 500 m 1
 100 500 l 1
 100 200 l 1
 100 200 100 50 250 50 c 1
 400 50 400 200 400 200 c 1
 400 500 l 1
 450 500 l 1
 450 200 l 1
 450 200 450 0 250 0 c 1
 50 0 50 200 50 200 c 1
 50 500 l 1
EndSplineSet
EndChar

StartChar: ucircumflex
Encoding: 251 251 247
Width: 500
VWidth: 0
Flags: W
HStem: 0 50<170.831 329.169> 680 20G<210 290> 680 20G<210 290>
VStem: 50 50<125 500> 400 50<125 500>
LayerCount: 2
Fore
SplineSet
150 600 m 29xd8
 225 700 l 29
 275 700 l 29
 350 600 l 29
 287 600 l 29
 250 649 l 29
 213 600 l 29
 150 600 l 29xd8
50 500 m 1
 100 500 l 1
 100 200 l 1
 100 200 100 50 250 50 c 1
 400 50 400 200 400 200 c 1
 400 500 l 1
 450 500 l 1
 450 200 l 1
 450 200 450 0 250 0 c 1
 50 0 50 200 50 200 c 1
 50 500 l 1
EndSplineSet
EndChar

StartChar: Ydieresis
Encoding: 376 376 248
Width: 500
VWidth: 0
Flags: W
HStem: 0 21G<275 325> 0 21G<275 325> 200 50<170.831 272.373> 600 100<150 200 300 350>
VStem: 50 50<325 500> 150 50<600 700> 275 50<0 201> 300 50<600 700> 400 50<325.102 500>
LayerCount: 2
Fore
SplineSet
300 600 m 29x3d80
 300 700 l 29
 350 700 l 29
 350 600 l 29
 300 600 l 29x3d80
150 600 m 29
 150 700 l 29
 200 700 l 29
 200 600 l 29
 150 600 l 29
50 500 m 1
 100 500 l 1
 100 400 l 1
 100 400 100 250 250 250 c 1
 400 250 400 400 400 400 c 1
 400 500 l 1
 450 500 l 1
 450 400 l 1
 450 326 405 237 325 212 c 1
 325 0 l 1
 275 0 l 1
 275 201 l 1xbe80
 267 200 259 200 250 200 c 1
 50 200 50 400 50 400 c 1
 50 500 l 1
EndSplineSet
EndChar

StartChar: ydieresis
Encoding: 255 255 249
Width: 500
VWidth: 0
Flags: W
HStem: 0 21G<275 325> 0 21G<275 325> 200 50<170.831 272.373> 600 100<150 200 300 350>
VStem: 50 50<325 500> 150 50<600 700> 275 50<0 201> 300 50<600 700> 400 50<325.102 500>
LayerCount: 2
Fore
SplineSet
300 600 m 29x3d80
 300 700 l 29
 350 700 l 29
 350 600 l 29
 300 600 l 29x3d80
150 600 m 29
 150 700 l 29
 200 700 l 29
 200 600 l 29
 150 600 l 29
50 500 m 1
 100 500 l 1
 100 400 l 1
 100 400 100 250 250 250 c 1
 400 250 400 400 400 400 c 1
 400 500 l 1
 450 500 l 1
 450 400 l 1
 450 326 405 237 325 212 c 1
 325 0 l 1
 275 0 l 1
 275 201 l 1xbe80
 267 200 259 200 250 200 c 1
 50 200 50 400 50 400 c 1
 50 500 l 1
EndSplineSet
EndChar

StartChar: Igrave
Encoding: 204 204 250
Width: 300
VWidth: 0
Flags: W
HStem: 0 21G<175 225> 0 21G<175 225> 680 20G<50 154> 680 20G<50 154>
VStem: 175 50<0 500>
LayerCount: 2
Fore
SplineSet
50 700 m 25x28
 130 700 l 25
 250 600 l 25
 170 600 l 25
 50 700 l 25x28
175 500 m 1
 225 500 l 1
 225 0 l 1
 175 0 l 5x88
 175 500 l 1
EndSplineSet
EndChar

StartChar: igrave
Encoding: 236 236 251
Width: 300
VWidth: 0
Flags: W
HStem: 0 21G<175 225> 0 21G<175 225> 680 20G<50 154> 680 20G<50 154>
VStem: 175 50<0 500>
LayerCount: 2
Fore
SplineSet
50 700 m 25x28
 130 700 l 25
 250 600 l 25
 170 600 l 25
 50 700 l 25x28
175 500 m 1
 225 500 l 1
 225 0 l 1
 175 0 l 5x88
 175 500 l 1
EndSplineSet
EndChar

StartChar: Egrave
Encoding: 200 200 252
Width: 500
VWidth: 0
Flags: W
HStem: 0 50<100 450> 225 50<100 450> 450 50<100 450> 680 20G<150 254> 680 20G<150 254>
VStem: 50 50<50 225 275 450>
LayerCount: 2
Fore
SplineSet
150 700 m 29xf4
 230 700 l 29
 350 600 l 29
 270 600 l 29
 150 700 l 29xf4
50 500 m 1
 450 500 l 1
 450 450 l 1
 100 450 l 1
 100 275 l 1
 450 275 l 1
 450 225 l 1
 100 225 l 1
 100 50 l 1
 450 50 l 1
 450 0 l 1
 50 0 l 1
 50 500 l 1
EndSplineSet
EndChar

StartChar: egrave
Encoding: 232 232 253
Width: 500
VWidth: 0
Flags: W
HStem: 0 50<100 450> 225 50<100 450> 450 50<100 450> 680 20G<150 254> 680 20G<150 254>
VStem: 50 50<50 225 275 450>
LayerCount: 2
Fore
SplineSet
150 700 m 29xf4
 230 700 l 29
 350 600 l 29
 270 600 l 29
 150 700 l 29xf4
50 500 m 1
 450 500 l 1
 450 450 l 1
 100 450 l 1
 100 275 l 1
 450 275 l 1
 450 225 l 1
 100 225 l 1
 100 50 l 1
 450 50 l 1
 450 0 l 1
 50 0 l 1
 50 500 l 1
EndSplineSet
EndChar

StartChar: Ecircumflex
Encoding: 202 202 254
Width: 500
VWidth: 0
Flags: W
HStem: 0 50<100 450> 225 50<100 450> 450 50<100 450> 680 20G<210 290> 680 20G<210 290>
VStem: 50 50<50 225 275 450>
LayerCount: 2
Fore
SplineSet
150 600 m 29xf4
 225 700 l 29
 275 700 l 29
 350 600 l 29
 287 600 l 29
 250 649 l 29
 213 600 l 29
 150 600 l 29xf4
50 500 m 1
 450 500 l 1
 450 450 l 1
 100 450 l 1
 100 275 l 1
 450 275 l 1
 450 225 l 1
 100 225 l 1
 100 50 l 1
 450 50 l 1
 450 0 l 1
 50 0 l 1
 50 500 l 1
EndSplineSet
EndChar

StartChar: ecircumflex
Encoding: 234 234 255
Width: 500
VWidth: 0
Flags: W
HStem: 0 50<100 450> 225 50<100 450> 450 50<100 450> 680 20G<210 290> 680 20G<210 290>
VStem: 50 50<50 225 275 450>
LayerCount: 2
Fore
SplineSet
150 600 m 29xf4
 225 700 l 29
 275 700 l 29
 350 600 l 29
 287 600 l 29
 250 649 l 29
 213 600 l 29
 150 600 l 29xf4
50 500 m 1
 450 500 l 1
 450 450 l 1
 100 450 l 1
 100 275 l 1
 450 275 l 1
 450 225 l 1
 100 225 l 1
 100 50 l 1
 450 50 l 1
 450 0 l 1
 50 0 l 1
 50 500 l 1
EndSplineSet
EndChar

StartChar: Idieresis
Encoding: 207 207 256
Width: 400
VWidth: 0
Flags: W
HStem: 0 21G<175 225> 0 21G<175 225> 600 100<100 150 250 300>
VStem: 100 50<600 700> 175 50<0 500> 250 50<600 700>
CounterMasks: 1 1c
LayerCount: 2
Fore
SplineSet
175 500 m 1xbc
 225 500 l 1
 225 0 l 1
 175 0 l 5
 175 500 l 1xbc
250 600 m 25
 250 700 l 25
 300 700 l 25
 300 600 l 25
 250 600 l 25
100 600 m 25
 100 700 l 25
 150 700 l 25
 150 600 l 25
 100 600 l 25
EndSplineSet
EndChar

StartChar: idieresis
Encoding: 239 239 257
Width: 400
VWidth: 0
Flags: W
HStem: 0 21G<175 225> 0 21G<175 225> 600 100<100 150 250 300>
VStem: 100 50<600 700> 175 50<0 500> 250 50<600 700>
CounterMasks: 1 1c
LayerCount: 2
Fore
SplineSet
175 500 m 1xbc
 225 500 l 1
 225 0 l 1
 175 0 l 5
 175 500 l 1xbc
250 600 m 25
 250 700 l 25
 300 700 l 25
 300 600 l 25
 250 600 l 25
100 600 m 25
 100 700 l 25
 150 700 l 25
 150 600 l 25
 100 600 l 25
EndSplineSet
EndChar

StartChar: Ccedilla
Encoding: 199 199 258
Width: 500
VWidth: 0
Flags: W
HStem: 0 50<150 259.898> 200 50<170.831 299.404> 650 50<170.831 329.169>
VStem: 50 50<325 575> 300 50<88.9893 205> 400 50<325 400 500 575>
LayerCount: 2
Fore
SplineSet
250 700 m 5
 450 700 450 500 450 500 c 5
 400 500 l 5
 400 500 400 650 250 650 c 5
 100 650 100 500 100 500 c 5
 100 400 l 5
 100 400 100 250 250 250 c 5
 400 250 400 400 400 400 c 5
 450 400 l 5
 450 400 450 274 350 222 c 5
 350 150 l 5
 350 150 350 0 200 0 c 5
 150 0 l 5
 150 50 l 5
 200 50 l 5
 300 50 300 150 300 150 c 5
 300 205 l 5
 285 202 268 200 250 200 c 5
 50 200 50 400 50 400 c 5
 50 500 l 5
 50 500 50 700 250 700 c 5
EndSplineSet
EndChar

StartChar: ccedilla
Encoding: 231 231 259
Width: 500
VWidth: 0
Flags: W
HStem: 0 50<150 259.898> 200 50<170.831 299.404> 650 50<170.831 329.169>
VStem: 50 50<325 575> 300 50<88.9893 205> 400 50<325 400 500 575>
LayerCount: 2
Fore
SplineSet
250 700 m 5
 450 700 450 500 450 500 c 5
 400 500 l 5
 400 500 400 650 250 650 c 5
 100 650 100 500 100 500 c 5
 100 400 l 5
 100 400 100 250 250 250 c 5
 400 250 400 400 400 400 c 5
 450 400 l 5
 450 400 450 274 350 222 c 5
 350 150 l 5
 350 150 350 0 200 0 c 5
 150 0 l 5
 150 50 l 5
 200 50 l 5
 300 50 300 150 300 150 c 5
 300 205 l 5
 285 202 268 200 250 200 c 5
 50 200 50 400 50 400 c 5
 50 500 l 5
 50 500 50 700 250 700 c 5
EndSplineSet
EndChar

StartChar: Icircumflex
Encoding: 206 206 260
Width: 200
VWidth: 0
Flags: W
HStem: 0 21G<75 125> 0 21G<75 125> 680 20G<60 140> 680 20G<60 140>
VStem: 75 50<0 500>
LayerCount: 2
Fore
SplineSet
0 600 m 29x28
 75 700 l 29
 125 700 l 29
 200 600 l 29
 137 600 l 29
 100 649 l 29
 63 600 l 29
 0 600 l 29x28
75 500 m 1
 125 500 l 1
 125 0 l 1
 75 0 l 1x88
 75 500 l 1
EndSplineSet
EndChar

StartChar: icircumflex
Encoding: 238 238 261
Width: 200
VWidth: 0
Flags: W
HStem: 0 21G<75 125> 0 21G<75 125> 680 20G<60 140> 680 20G<60 140>
VStem: 75 50<0 500>
LayerCount: 2
Fore
SplineSet
0 600 m 29x28
 75 700 l 29
 125 700 l 29
 200 600 l 29
 137 600 l 29
 100 649 l 29
 63 600 l 29
 0 600 l 29x28
75 500 m 1
 125 500 l 1
 125 0 l 1
 75 0 l 1x88
 75 500 l 1
EndSplineSet
EndChar

StartChar: AE
Encoding: 198 198 262
Width: 600
VWidth: 0
Flags: W
HStem: 0 50<350 550> 325 50<100 300 350 550> 650 50<171.526 300 350 550>
VStem: 50 50<0 325 375 575> 300 50<50 325 375 650>
CounterMasks: 1 e0
LayerCount: 2
Fore
SplineSet
250 700 m 1
 550 700 l 1
 550 650 l 1
 350 650 l 1
 350 375 l 1
 550 375 l 1
 550 325 l 1
 350 325 l 1
 350 50 l 1
 550 50 l 1
 550 0 l 1
 300 0 l 1
 300 325 l 1
 100 325 l 1
 100 0 l 1
 50 0 l 1
 50 500 l 1
 50 500 50 700 250 700 c 1
250 650 m 1
 100 650 100 500 100 500 c 1
 100 375 l 1
 300 375 l 1
 300 650 l 5
 250 650 l 1
EndSplineSet
EndChar

StartChar: ae
Encoding: 230 230 263
Width: 600
VWidth: 0
Flags: W
HStem: 0 50<350 550> 325 50<100 300 350 550> 650 50<171.526 300 350 550>
VStem: 50 50<0 325 375 575> 300 50<50 325 375 650>
CounterMasks: 1 e0
LayerCount: 2
Fore
SplineSet
250 700 m 1
 550 700 l 1
 550 650 l 1
 350 650 l 1
 350 375 l 1
 550 375 l 1
 550 325 l 1
 350 325 l 1
 350 50 l 1
 550 50 l 1
 550 0 l 1
 300 0 l 1
 300 325 l 1
 100 325 l 1
 100 0 l 1
 50 0 l 1
 50 500 l 1
 50 500 50 700 250 700 c 1
250 650 m 1
 100 650 100 500 100 500 c 1
 100 375 l 1
 300 375 l 1
 300 650 l 5
 250 650 l 1
EndSplineSet
EndChar

StartChar: OE
Encoding: 338 338 264
Width: 600
VWidth: 0
Flags: W
HStem: 0 50<171.011 300 350 550> 325 50<350 550> 650 50<171.526 300 350 550>
VStem: 50 50<132.289 575> 300 50<50 325 375 650>
CounterMasks: 1 e0
LayerCount: 2
Fore
SplineSet
250 700 m 1
 550 700 l 1
 550 650 l 1
 350 650 l 1
 350 375 l 1
 550 375 l 1
 550 325 l 1
 350 325 l 1
 350 50 l 1
 550 50 l 1
 550 0 l 1
 250 0 l 1
 50 0 50 200 50 200 c 1
 50 500 l 1
 50 500 50 700 250 700 c 1
250 650 m 1
 100 650 100 500 100 500 c 1
 100 200 l 1
 100 200 113 50 238 50 c 1
 300 50 l 5
 300 650 l 1
 250 650 l 1
EndSplineSet
EndChar

StartChar: oe
Encoding: 339 339 265
Width: 600
VWidth: 0
Flags: W
HStem: 0 50<171.011 300 350 550> 325 50<350 550> 650 50<171.526 300 350 550>
VStem: 50 50<132.289 575> 300 50<50 325 375 650>
CounterMasks: 1 e0
LayerCount: 2
Fore
SplineSet
250 700 m 1
 550 700 l 1
 550 650 l 1
 350 650 l 1
 350 375 l 1
 550 375 l 1
 550 325 l 1
 350 325 l 1
 350 50 l 1
 550 50 l 1
 550 0 l 1
 250 0 l 1
 50 0 50 200 50 200 c 1
 50 500 l 1
 50 500 50 700 250 700 c 1
250 650 m 1
 100 650 100 500 100 500 c 1
 100 200 l 1
 100 200 113 50 238 50 c 1
 300 50 l 5
 300 650 l 1
 250 650 l 1
EndSplineSet
EndChar

StartChar: Ntilde
Encoding: 209 209 266
Width: 500
VWidth: 0
Flags: W
HStem: 0 21G<50 100 400 450> 0 21G<50 100 400 450> 600 50<250 289.932> 650 50<210.068 250>
VStem: 50 50<0 358 423.791 500> 150 50<600 640.359> 300 50<659.641 700> 400 50<0 75.6105 142 500>
LayerCount: 2
Fore
SplineSet
150 600 m 29x2f
 150 600 150 700 250 700 c 13x1f
 250 600 l 21x2f
 350 600 350 700 350 700 c 29
 300 700 l 29x1f
 300 700 300 650 250 650 c 5
 200 650 200 600 200 600 c 29
 150 600 l 29x2f
50 0 m 1x8f
 50 500 l 1
 100 500 l 1
 100 404 200 322 203 320 c 1
 328 220 l 1
 329 219 367 189 400 142 c 1
 400 500 l 1
 450 500 l 1
 450 0 l 1
 400 0 l 1
 400 21 395 41 388 60 c 1
 362 128 299 179 297 180 c 1
 172 280 l 1
 171 281 134 310 100 358 c 1
 100 0 l 1
 50 0 l 1x8f
EndSplineSet
EndChar

StartChar: ntilde
Encoding: 241 241 267
Width: 500
VWidth: 0
Flags: W
HStem: 0 21G<50 100 400 450> 0 21G<50 100 400 450> 600 50<250 289.932> 650 50<210.068 250>
VStem: 50 50<0 358 423.791 500> 150 50<600 640.359> 300 50<659.641 700> 400 50<0 75.6105 142 500>
LayerCount: 2
Fore
SplineSet
150 600 m 29x2f
 150 600 150 700 250 700 c 13x1f
 250 600 l 21x2f
 350 600 350 700 350 700 c 29
 300 700 l 29x1f
 300 700 300 650 250 650 c 5
 200 650 200 600 200 600 c 29
 150 600 l 29x2f
50 0 m 1x8f
 50 500 l 1
 100 500 l 1
 100 404 200 322 203 320 c 1
 328 220 l 1
 329 219 367 189 400 142 c 1
 400 500 l 1
 450 500 l 1
 450 0 l 1
 400 0 l 1
 400 21 395 41 388 60 c 1
 362 128 299 179 297 180 c 1
 172 280 l 1
 171 281 134 310 100 358 c 1
 100 0 l 1
 50 0 l 1x8f
EndSplineSet
EndChar

StartChar: Gbreve
Encoding: 286 286 268
Width: 500
VWidth: 0
Flags: W
HStem: 0 50<170.831 329.169> 225 50<250 400> 450 50<171.526 450> 600 50<209.865 290.135> 680 20G<150 200 300 350> 680 20G<150 200 300 350>
VStem: 50 50<200 300> 400 50<200 225>
LayerCount: 2
Fore
SplineSet
150 700 m 29xfb
 200 700 l 29
 200 700 200 650 250 650 c 5
 300 650 300 700 300 700 c 29
 350 700 l 29
 350 700 350 600 250 600 c 5
 150 600 150 700 150 700 c 29xfb
250 500 m 1
 450 500 l 1
 450 450 l 1
 250 450 l 1
 100 450 100 300 100 300 c 1
 100 200 l 1
 100 200 100 50 250 50 c 1
 400 50 400 200 400 200 c 1
 400 225 l 1
 250 225 l 1
 250 275 l 1
 450 275 l 1
 450 200 l 1
 450 200 450 0 250 0 c 1
 50 0 50 200 50 200 c 1
 50 300 l 1
 50 300 50 500 250 500 c 1
EndSplineSet
EndChar

StartChar: gbreve
Encoding: 287 287 269
Width: 500
VWidth: 0
Flags: W
HStem: 0 50<170.831 329.169> 225 50<250 400> 450 50<171.526 450> 600 50<209.865 290.135> 680 20G<150 200 300 350> 680 20G<150 200 300 350>
VStem: 50 50<200 300> 400 50<200 225>
LayerCount: 2
Fore
SplineSet
150 700 m 29xfb
 200 700 l 29
 200 700 200 650 250 650 c 5
 300 650 300 700 300 700 c 29
 350 700 l 29
 350 700 350 600 250 600 c 5
 150 600 150 700 150 700 c 29xfb
250 500 m 1
 450 500 l 1
 450 450 l 1
 250 450 l 1
 100 450 100 300 100 300 c 1
 100 200 l 1
 100 200 100 50 250 50 c 1
 400 50 400 200 400 200 c 1
 400 225 l 1
 250 225 l 1
 250 275 l 1
 450 275 l 1
 450 200 l 1
 450 200 450 0 250 0 c 1
 50 0 50 200 50 200 c 1
 50 300 l 1
 50 300 50 500 250 500 c 1
EndSplineSet
EndChar

StartChar: Idotaccent
Encoding: 304 304 270
Width: 200
VWidth: 0
Flags: W
HStem: 0 21G<75 125> 0 21G<75 125> 600 100<75 125>
VStem: 75 50<0 500 600 700>
LayerCount: 2
Fore
SplineSet
75 700 m 1x30
 125 700 l 0
 125 600 l 25
 75 600 l 25
 75 700 l 1x30
75 500 m 1
 125 500 l 5
 125 0 l 1
 75 0 l 1xb0
 75 500 l 1
EndSplineSet
EndChar

StartChar: dotlessi
Encoding: 305 305 271
Width: 200
VWidth: 0
Flags: W
HStem: 0 21G<75 125> 0 21G<75 125> 680 20G<75 125> 680 20G<75 125>
VStem: 75 50<0 700>
LayerCount: 2
Fore
SplineSet
75 700 m 1xa8
 125 700 l 1
 125 0 l 1
 75 0 l 1
 75 700 l 1xa8
EndSplineSet
EndChar

StartChar: Scedilla
Encoding: 350 350 272
Width: 500
VWidth: 0
Flags: W
HStem: 0 50<150 259.898> 200 50<50 300> 425 50<132.893 367.107> 650 50<132.893 450>
VStem: 300 50<150 200>
LayerCount: 2
Fore
SplineSet
450 700 m 1
 450 650 l 1
 188 650 l 1
 100 650 100 562 100 562 c 1
 100 562 100 475 188 475 c 1
 312 475 l 1
 450 475 450 338 450 338 c 1
 450 338 450 227 350 204 c 1
 350 150 l 1
 350 150 350 0 200 0 c 1
 150 0 l 1
 150 50 l 1
 200 50 l 1
 300 50 300 150 300 150 c 1
 300 200 l 1
 50 200 l 1
 50 250 l 5
 312 250 l 1
 400 250 400 338 400 338 c 1
 400 338 400 425 312 425 c 1
 188 425 l 1
 50 425 50 562 50 562 c 1
 50 562 50 700 188 700 c 1
 450 700 l 1
EndSplineSet
EndChar

StartChar: scedilla
Encoding: 351 351 273
Width: 500
VWidth: 0
Flags: W
HStem: 0 50<150 259.898> 200 50<50 300> 425 50<132.893 367.107> 650 50<132.893 450>
VStem: 300 50<150 200>
LayerCount: 2
Fore
SplineSet
450 700 m 1
 450 650 l 1
 188 650 l 1
 100 650 100 562 100 562 c 1
 100 562 100 475 188 475 c 1
 312 475 l 1
 450 475 450 338 450 338 c 1
 450 338 450 227 350 204 c 1
 350 150 l 1
 350 150 350 0 200 0 c 1
 150 0 l 1
 150 50 l 1
 200 50 l 1
 300 50 300 150 300 150 c 1
 300 200 l 1
 50 200 l 1
 50 250 l 5
 312 250 l 1
 400 250 400 338 400 338 c 1
 400 338 400 425 312 425 c 1
 188 425 l 1
 50 425 50 562 50 562 c 1
 50 562 50 700 188 700 c 1
 450 700 l 1
EndSplineSet
EndChar

StartChar: Odieresis
Encoding: 214 214 274
Width: 500
VWidth: 0
Flags: W
HStem: 0 50<170.831 329.169> 450 50<170.831 329.169> 600 100<150 200 300 350>
VStem: 50 50<125 375> 150 50<600 700> 300 50<600 700> 400 50<125 375>
LayerCount: 2
Fore
SplineSet
300 700 m 29
 350 700 l 29
 350 600 l 29
 300 600 l 29
 300 700 l 29
150 700 m 29
 200 700 l 29
 200 600 l 29
 150 600 l 29
 150 700 l 29
250 500 m 1
 450 500 450 300 450 300 c 1
 450 200 l 1
 450 200 450 0 250 0 c 1
 50 0 50 200 50 200 c 1
 50 300 l 1
 50 300 50 500 250 500 c 1
250 450 m 1
 100 450 100 300 100 300 c 1
 100 200 l 1
 100 200 100 50 250 50 c 1
 400 50 400 200 400 200 c 1
 400 300 l 1
 400 300 400 450 250 450 c 1
EndSplineSet
EndChar

StartChar: odieresis
Encoding: 246 246 275
Width: 500
VWidth: 0
Flags: W
HStem: 0 50<170.831 329.169> 450 50<170.831 329.169> 600 100<150 200 300 350>
VStem: 50 50<125 375> 150 50<600 700> 300 50<600 700> 400 50<125 375>
LayerCount: 2
Fore
SplineSet
300 700 m 29
 350 700 l 29
 350 600 l 29
 300 600 l 29
 300 700 l 29
150 700 m 29
 200 700 l 29
 200 600 l 29
 150 600 l 29
 150 700 l 29
250 500 m 1
 450 500 450 300 450 300 c 1
 450 200 l 1
 450 200 450 0 250 0 c 1
 50 0 50 200 50 200 c 1
 50 300 l 1
 50 300 50 500 250 500 c 1
250 450 m 1
 100 450 100 300 100 300 c 1
 100 200 l 1
 100 200 100 50 250 50 c 1
 400 50 400 200 400 200 c 1
 400 300 l 1
 400 300 400 450 250 450 c 1
EndSplineSet
EndChar

StartChar: Atilde
Encoding: 195 195 276
Width: 500
VWidth: 0
Flags: W
HStem: 0 21G<50 100 400 450> 0 21G<50 100 400 450> 225 50<100 400> 450 50<170.831 329.169> 600 50<250 289.932> 650 50<210.068 250>
VStem: 50 50<0 225 275 300> 400 50<0 225 275 300>
LayerCount: 2
Fore
SplineSet
150 600 m 29x3b
 150 600 150 700 250 700 c 13x37
 250 600 l 21x3b
 350 600 350 700 350 700 c 29
 300 700 l 29x37
 300 700 300 650 250 650 c 5
 200 650 200 600 200 600 c 29
 150 600 l 29x3b
250 500 m 1
 450 500 450 300 450 300 c 1
 450 0 l 1
 400 0 l 1
 400 225 l 1
 100 225 l 1
 100 0 l 1
 50 0 l 1xb3
 50 300 l 1
 50 300 50 500 250 500 c 1
250 450 m 1
 100 450 100 300 100 300 c 1
 100 275 l 1
 400 275 l 1
 400 300 l 1
 400 300 400 450 250 450 c 1
EndSplineSet
EndChar

StartChar: atilde
Encoding: 227 227 277
Width: 500
VWidth: 0
Flags: W
HStem: 0 21G<50 100 400 450> 0 21G<50 100 400 450> 225 50<100 400> 450 50<170.831 329.169> 600 50<250 289.932> 650 50<210.068 250>
VStem: 50 50<0 225 275 300> 400 50<0 225 275 300>
LayerCount: 2
Fore
SplineSet
150 600 m 29x3b
 150 600 150 700 250 700 c 13x37
 250 600 l 21x3b
 350 600 350 700 350 700 c 29
 300 700 l 29x37
 300 700 300 650 250 650 c 5
 200 650 200 600 200 600 c 29
 150 600 l 29x3b
250 500 m 1
 450 500 450 300 450 300 c 1
 450 0 l 1
 400 0 l 1
 400 225 l 1
 100 225 l 1
 100 0 l 1
 50 0 l 1xb3
 50 300 l 1
 50 300 50 500 250 500 c 1
250 450 m 1
 100 450 100 300 100 300 c 1
 100 275 l 1
 400 275 l 1
 400 300 l 1
 400 300 400 450 250 450 c 1
EndSplineSet
EndChar

StartChar: Otilde
Encoding: 213 213 278
Width: 500
VWidth: 0
Flags: W
HStem: 0 50<170.831 329.169> 450 50<170.831 329.169> 600 50<250 289.932> 650 50<210.068 250>
VStem: 50 50<200 300> 400 50<200 300>
LayerCount: 2
Fore
SplineSet
150 600 m 29xec
 150 600 150 700 250 700 c 13xdc
 250 600 l 21xec
 350 600 350 700 350 700 c 29
 300 700 l 29xdc
 300 700 300 650 250 650 c 5
 200 650 200 600 200 600 c 29
 150 600 l 29xec
250 500 m 1
 450 500 450 300 450 300 c 1
 450 200 l 1
 450 200 450 0 250 0 c 1
 50 0 50 200 50 200 c 1
 50 300 l 1
 50 300 50 500 250 500 c 1
250 450 m 1
 100 450 100 300 100 300 c 1
 100 200 l 1
 100 200 100 50 250 50 c 1
 400 50 400 200 400 200 c 1
 400 300 l 1
 400 300 400 450 250 450 c 1
EndSplineSet
EndChar

StartChar: otilde
Encoding: 245 245 279
Width: 500
VWidth: 0
Flags: W
HStem: 0 50<170.831 329.169> 450 50<170.831 329.169> 600 50<250 289.932> 650 50<210.068 250>
VStem: 50 50<200 300> 400 50<200 300>
LayerCount: 2
Fore
SplineSet
150 600 m 29xec
 150 600 150 700 250 700 c 13xdc
 250 600 l 21xec
 350 600 350 700 350 700 c 29
 300 700 l 29xdc
 300 700 300 650 250 650 c 5
 200 650 200 600 200 600 c 29
 150 600 l 29xec
250 500 m 1
 450 500 450 300 450 300 c 1
 450 200 l 1
 450 200 450 0 250 0 c 1
 50 0 50 200 50 200 c 1
 50 300 l 1
 50 300 50 500 250 500 c 1
250 450 m 1
 100 450 100 300 100 300 c 1
 100 200 l 1
 100 200 100 50 250 50 c 1
 400 50 400 200 400 200 c 1
 400 300 l 1
 400 300 400 450 250 450 c 1
EndSplineSet
EndChar

StartChar: Aring
Encoding: 197 197 280
Width: 500
VWidth: 0
Flags: W
HStem: 0 21G<50 100 400 450> 0 21G<50 100 400 450> 225 50<100 400> 450 50<170.831 329.169> 500 50<209.865 290.135> 650 50<209.865 290.135>
VStem: 50 50<0 225 275 300> 150 50<559.641 640.359> 300 50<559.641 640.359> 400 50<0 225 275 300>
LayerCount: 2
Fore
SplineSet
250 650 m 1x2fc0
 200 650 200 600 200 600 c 25
 200 600 200 550 250 550 c 5
 300 550 300 600 300 600 c 25
 300 600 300 650 250 650 c 1x2fc0
250 700 m 1
 350 700 350 600 350 600 c 25
 350 600 350 500 250 500 c 1x37c0
 150 500 150 600 150 600 c 25
 150 600 150 700 250 700 c 1
250 500 m 1
 450 500 450 300 450 300 c 1
 450 0 l 1
 400 0 l 1
 400 225 l 1
 100 225 l 1
 100 0 l 1
 50 0 l 1xb7c0
 50 300 l 1
 50 300 50 500 250 500 c 1
250 450 m 1
 100 450 100 300 100 300 c 1
 100 275 l 1
 400 275 l 1
 400 300 l 1
 400 300 400 450 250 450 c 1
EndSplineSet
EndChar

StartChar: aring
Encoding: 229 229 281
Width: 500
VWidth: 0
Flags: W
HStem: 0 21G<50 100 400 450> 0 21G<50 100 400 450> 225 50<100 400> 450 50<170.831 329.169> 500 50<209.865 290.135> 650 50<209.865 290.135>
VStem: 50 50<0 225 275 300> 150 50<559.641 640.359> 300 50<559.641 640.359> 400 50<0 225 275 300>
LayerCount: 2
Fore
SplineSet
250 650 m 1x2fc0
 200 650 200 600 200 600 c 25
 200 600 200 550 250 550 c 5
 300 550 300 600 300 600 c 25
 300 600 300 650 250 650 c 1x2fc0
250 700 m 1
 350 700 350 600 350 600 c 25
 350 600 350 500 250 500 c 1x37c0
 150 500 150 600 150 600 c 25
 150 600 150 700 250 700 c 1
250 500 m 1
 450 500 450 300 450 300 c 1
 450 0 l 1
 400 0 l 1
 400 225 l 1
 100 225 l 1
 100 0 l 1
 50 0 l 1xb7c0
 50 300 l 1
 50 300 50 500 250 500 c 1
250 450 m 1
 100 450 100 300 100 300 c 1
 100 275 l 1
 400 275 l 1
 400 300 l 1
 400 300 400 450 250 450 c 1
EndSplineSet
EndChar

StartChar: uni00B2
Encoding: 178 178 282
Width: 400
VWidth: 0
Flags: W
HStem: 200 50<100 350> 425 50<140.102 264.812> 650 50<50 264.812>
VStem: 50 50<250 312>
CounterMasks: 1 e0
LayerCount: 2
Fore
SplineSet
50 700 m 9
 200 700 l 1
 350 700 350 563 350 563 c 25
 350 563 350 425 200 425 c 1
 100 425 100 312 100 312 c 29
 100 250 l 25
 350 250 l 25
 350 200 l 25
 50 200 l 25
 50 312 l 25
 50 312 50 475 200 475 c 1
 300 475 300 562 300 562 c 25
 300 562 300 650 200 650 c 9
 50 650 l 17
 50 700 l 9
EndSplineSet
EndChar

StartChar: uni00B3
Encoding: 179 179 283
Width: 400
VWidth: 0
Flags: W
HStem: 200 50<50 264.812> 425 50<150 265.239> 650 50<50 264.812>
CounterMasks: 1 e0
LayerCount: 2
Fore
SplineSet
50 700 m 1
 200 700 l 1
 350 700 350 563 350 563 c 1
 350 563 350 490 292 450 c 1
 350 410 350 338 350 338 c 1
 350 338 350 200 200 200 c 1
 50 200 l 1
 50 250 l 5
 200 250 l 1
 300 250 300 338 300 338 c 1
 300 338 300 425 200 425 c 1
 150 425 l 1
 150 475 l 1
 200 475 l 1
 300 475 300 562 300 562 c 1
 300 562 300 650 200 650 c 1
 50 650 l 1
 50 700 l 1
EndSplineSet
EndChar

StartChar: uhungarumlaut
Encoding: 369 369 284
Width: 500
VWidth: 0
Flags: W
HStem: 0 50<170.831 329.169> 680 20G<146 250 346 450> 680 20G<146 250 346 450>
VStem: 50 50<200 500> 400 50<200 500>
LayerCount: 2
Fore
SplineSet
250 600 m 29xd8
 370 700 l 29
 450 700 l 29
 330 600 l 29
 250 600 l 29xd8
50 600 m 25
 170 700 l 25
 250 700 l 25
 130 600 l 25
 50 600 l 25
50 500 m 1
 100 500 l 1
 100 200 l 1
 100 200 100 50 250 50 c 1
 400 50 400 200 400 200 c 1
 400 500 l 1
 450 500 l 1
 450 200 l 1
 450 200 450 0 250 0 c 1
 50 0 50 200 50 200 c 1
 50 500 l 1
EndSplineSet
EndChar

StartChar: Uhungarumlaut
Encoding: 368 368 285
Width: 500
VWidth: 0
Flags: W
HStem: 0 50<170.831 329.169> 680 20G<146 250 346 450> 680 20G<146 250 346 450>
VStem: 50 50<200 500> 400 50<200 500>
LayerCount: 2
Fore
SplineSet
250 600 m 29xd8
 370 700 l 29
 450 700 l 29
 330 600 l 29
 250 600 l 29xd8
50 600 m 25
 170 700 l 25
 250 700 l 25
 130 600 l 25
 50 600 l 25
50 500 m 1
 100 500 l 1
 100 200 l 1
 100 200 100 50 250 50 c 1
 400 50 400 200 400 200 c 1
 400 500 l 1
 450 500 l 1
 450 200 l 1
 450 200 450 0 250 0 c 1
 50 0 50 200 50 200 c 1
 50 500 l 1
EndSplineSet
EndChar

StartChar: ohungarumlaut
Encoding: 337 337 286
Width: 500
VWidth: 0
Flags: W
HStem: 0 50<170.831 329.169> 450 50<170.831 329.169> 680 20G<146 250 346 450> 680 20G<146 250 346 450>
VStem: 50 50<200 300> 400 50<200 300>
LayerCount: 2
Fore
SplineSet
250 600 m 29xec
 370 700 l 29
 450 700 l 29
 330 600 l 29
 250 600 l 29xec
50 600 m 25
 170 700 l 25
 250 700 l 25
 130 600 l 25
 50 600 l 25
250 500 m 1
 450 500 450 300 450 300 c 1
 450 200 l 1
 450 200 450 0 250 0 c 1
 50 0 50 200 50 200 c 1
 50 300 l 1
 50 300 50 500 250 500 c 1
250 450 m 1
 100 450 100 300 100 300 c 1
 100 200 l 1
 100 200 100 50 250 50 c 1
 400 50 400 200 400 200 c 1
 400 300 l 1
 400 300 400 450 250 450 c 1
EndSplineSet
EndChar

StartChar: Ohungarumlaut
Encoding: 336 336 287
Width: 500
VWidth: 0
Flags: W
HStem: 0 50<170.831 329.169> 450 50<170.831 329.169> 680 20G<146 250 346 450> 680 20G<146 250 346 450>
VStem: 50 50<200 300> 400 50<200 300>
LayerCount: 2
Fore
SplineSet
250 600 m 29xec
 370 700 l 29
 450 700 l 29
 330 600 l 29
 250 600 l 29xec
50 600 m 25
 170 700 l 25
 250 700 l 25
 130 600 l 25
 50 600 l 25
250 500 m 1
 450 500 450 300 450 300 c 1
 450 200 l 1
 450 200 450 0 250 0 c 1
 50 0 50 200 50 200 c 1
 50 300 l 1
 50 300 50 500 250 500 c 1
250 450 m 1
 100 450 100 300 100 300 c 1
 100 200 l 1
 100 200 100 50 250 50 c 1
 400 50 400 200 400 200 c 1
 400 300 l 1
 400 300 400 450 250 450 c 1
EndSplineSet
EndChar

StartChar: uring
Encoding: 367 367 288
Width: 500
VWidth: 0
Flags: W
HStem: 0 50<170.831 329.169> 500 50<209.865 290.135> 650 50<209.865 290.135>
VStem: 50 50<200 500> 400 50<200 500>
LayerCount: 2
Fore
SplineSet
250 650 m 5
 200 650 200 600 200 600 c 29
 200 600 200 550 250 550 c 5
 300 550 300 600 300 600 c 29
 300 600 300 650 250 650 c 5
250 700 m 5
 350 700 350 600 350 600 c 29
 350 600 350 500 250 500 c 5
 150 500 150 600 150 600 c 29
 150 600 150 700 250 700 c 5
50 500 m 1
 100 500 l 1
 100 200 l 1
 100 200 100 50 250 50 c 1
 400 50 400 200 400 200 c 1
 400 500 l 1
 450 500 l 1
 450 200 l 1
 450 200 450 0 250 0 c 1
 50 0 50 200 50 200 c 1
 50 500 l 1
EndSplineSet
EndChar

StartChar: Uring
Encoding: 366 366 289
Width: 500
VWidth: 0
Flags: W
HStem: 0 50<170.831 329.169> 500 50<209.865 290.135> 650 50<209.865 290.135>
VStem: 50 50<200 500> 400 50<200 500>
LayerCount: 2
Fore
SplineSet
250 650 m 5
 200 650 200 600 200 600 c 29
 200 600 200 550 250 550 c 5
 300 550 300 600 300 600 c 29
 300 600 300 650 250 650 c 5
250 700 m 5
 350 700 350 600 350 600 c 29
 350 600 350 500 250 500 c 5
 150 500 150 600 150 600 c 29
 150 600 150 700 250 700 c 5
50 500 m 1
 100 500 l 1
 100 200 l 1
 100 200 100 50 250 50 c 1
 400 50 400 200 400 200 c 1
 400 500 l 1
 450 500 l 1
 450 200 l 1
 450 200 450 0 250 0 c 1
 50 0 50 200 50 200 c 1
 50 500 l 1
EndSplineSet
EndChar

StartChar: abreve
Encoding: 259 259 290
Width: 500
VWidth: 0
Flags: W
HStem: 0 21G<50 100 400 450> 0 21G<50 100 400 450> 225 50<100 400> 450 50<170.831 329.169> 600 50<209.865 290.135> 680 20G<150 200 300 350> 680 20G<150 200 300 350>
VStem: 50 50<0 225 275 300> 400 50<0 225 275 300>
LayerCount: 2
Fore
SplineSet
150 700 m 29x3d80
 200 700 l 29
 200 700 200 650 250 650 c 5
 300 650 300 700 300 700 c 29
 350 700 l 29
 350 700 350 600 250 600 c 5
 150 600 150 700 150 700 c 29x3d80
250 500 m 1
 450 500 450 300 450 300 c 1
 450 0 l 1
 400 0 l 1
 400 225 l 1
 100 225 l 1
 100 0 l 1
 50 0 l 1xb980
 50 300 l 1
 50 300 50 500 250 500 c 1
250 450 m 1
 100 450 100 300 100 300 c 1
 100 275 l 1
 400 275 l 1
 400 300 l 1
 400 300 400 450 250 450 c 1
EndSplineSet
EndChar

StartChar: Abreve
Encoding: 258 258 291
Width: 500
VWidth: 0
Flags: W
HStem: 0 21G<50 100 400 450> 0 21G<50 100 400 450> 225 50<100 400> 450 50<170.831 329.169> 600 50<209.865 290.135> 680 20G<150 200 300 350> 680 20G<150 200 300 350>
VStem: 50 50<0 225 275 300> 400 50<0 225 275 300>
LayerCount: 2
Fore
SplineSet
150 700 m 29x3d80
 200 700 l 29
 200 700 200 650 250 650 c 5
 300 650 300 700 300 700 c 29
 350 700 l 29
 350 700 350 600 250 600 c 5
 150 600 150 700 150 700 c 29x3d80
250 500 m 1
 450 500 450 300 450 300 c 1
 450 0 l 1
 400 0 l 1
 400 225 l 1
 100 225 l 1
 100 0 l 1
 50 0 l 1xb980
 50 300 l 1
 50 300 50 500 250 500 c 1
250 450 m 1
 100 450 100 300 100 300 c 1
 100 275 l 1
 400 275 l 1
 400 300 l 1
 400 300 400 450 250 450 c 1
EndSplineSet
EndChar

StartChar: ecaron
Encoding: 283 283 292
Width: 500
VWidth: 0
Flags: W
HStem: 0 50<100 450> 225 50<100 450> 450 50<100 450> 680 20G<150 228.102 271.898 350> 680 20G<150 228.102 271.898 350>
VStem: 50 50<50 225 275 450>
LayerCount: 2
Fore
SplineSet
150 700 m 29xf4
 213 700 l 29
 250 651 l 29
 287 700 l 29
 350 700 l 29
 275 600 l 29
 225 600 l 29
 150 700 l 29xf4
50 500 m 1
 450 500 l 1
 450 450 l 1
 100 450 l 1
 100 275 l 1
 450 275 l 1
 450 225 l 1
 100 225 l 1
 100 50 l 1
 450 50 l 1
 450 0 l 1
 50 0 l 1
 50 500 l 1
EndSplineSet
EndChar

StartChar: Ecaron
Encoding: 282 282 293
Width: 500
VWidth: 0
Flags: W
HStem: 0 50<100 450> 225 50<100 450> 450 50<100 450> 680 20G<150 228.102 271.898 350> 680 20G<150 228.102 271.898 350>
VStem: 50 50<50 225 275 450>
LayerCount: 2
Fore
SplineSet
150 700 m 29xf4
 213 700 l 29
 250 651 l 29
 287 700 l 29
 350 700 l 29
 275 600 l 29
 225 600 l 29
 150 700 l 29xf4
50 500 m 1
 450 500 l 1
 450 450 l 1
 100 450 l 1
 100 275 l 1
 450 275 l 1
 450 225 l 1
 100 225 l 1
 100 50 l 1
 450 50 l 1
 450 0 l 1
 50 0 l 1
 50 500 l 1
EndSplineSet
EndChar

StartChar: glyph294
Encoding: 345 345 294
Width: 500
VWidth: 0
Flags: W
HStem: -0 21G<50 100 400 450> -0 21G<50 100 400 450> 200 50<100 302> 450 50<100 359.898> 680 20G<150 228.102 271.898 350> 680 20G<150 228.102 271.898 350>
VStem: 50 50<0 200 250 450> 400 50<0 109.237>
LayerCount: 2
Fore
SplineSet
150 700 m 29x3b
 213 700 l 29
 250 651 l 29
 287 700 l 29
 350 700 l 29
 275 600 l 29
 225 600 l 29
 150 700 l 29x3b
50 500 m 1
 300 500 l 1
 450 500 450 350 450 350 c 1
 450 311 431 239 362 211 c 1
 393 180 l 1
 424 149 450 95 450 37 c 2
 450 0 l 1
 400 0 l 1
 400 37 l 2
 400 79 376 126 357 145 c 1
 302 200 l 1
 100 200 l 1
 100 -0 l 1
 50 -0 l 1xb3
 50 500 l 1
100 450 m 1
 100 250 l 1
 300 250 l 1
 400 250 400 350 400 350 c 1
 400 350 400 450 300 450 c 1
 100 450 l 1
EndSplineSet
EndChar

StartChar: glyph295
Encoding: 344 344 295
Width: 500
VWidth: 0
Flags: W
HStem: -0 21G<50 100 400 450> -0 21G<50 100 400 450> 200 50<100 302> 450 50<100 359.898> 680 20G<150 228.102 271.898 350> 680 20G<150 228.102 271.898 350>
VStem: 50 50<0 200 250 450> 400 50<0 109.237>
LayerCount: 2
Fore
SplineSet
150 700 m 29x3b
 213 700 l 29
 250 651 l 29
 287 700 l 29
 350 700 l 29
 275 600 l 29
 225 600 l 29
 150 700 l 29x3b
50 500 m 1
 300 500 l 1
 450 500 450 350 450 350 c 1
 450 311 431 239 362 211 c 1
 393 180 l 1
 424 149 450 95 450 37 c 2
 450 0 l 1
 400 0 l 1
 400 37 l 2
 400 79 376 126 357 145 c 1
 302 200 l 1
 100 200 l 1
 100 -0 l 1
 50 -0 l 1xb3
 50 500 l 1
100 450 m 1
 100 250 l 1
 300 250 l 1
 400 250 400 350 400 350 c 1
 400 350 400 450 300 450 c 1
 100 450 l 1
EndSplineSet
EndChar

StartChar: uni0459
Encoding: 1113 1113 296
Width: 700
VWidth: 0
Flags: W
HStem: 0 50<50 109.898 425 528.474> 350 50<425 528.474> 650 50<200 375>
VStem: 150 50<150 650> 375 50<50 350 400 650> 600 50<125 275>
CounterMasks: 1 1c
LayerCount: 2
Fore
SplineSet
425 350 m 25
 425 50 l 25
 450 50 l 17
 600 50 600 200 600 200 c 25
 600 200 600 350 450 350 c 13
 425 350 l 25
50 50 m 1
 150 50 150 150 150 150 c 25
 150 700 l 25
 425 700 l 17
 425 400 l 1
 450 400 l 1
 650 400 650 200 650 200 c 1
 650 200 650 0 450 0 c 9
 375 0 l 25
 375 650 l 25
 200 650 l 25
 200 150 l 25
 200 150 200 0 50 0 c 1
 50 50 l 1
EndSplineSet
EndChar

StartChar: uni0409
Encoding: 1033 1033 297
Width: 700
VWidth: 0
Flags: W
HStem: 0 50<50 109.898 425 528.474> 350 50<425 528.474> 650 50<200 375>
VStem: 150 50<150 650> 375 50<50 350 400 650> 600 50<125 275>
LayerCount: 2
Fore
SplineSet
425 350 m 25
 425 50 l 25
 450 50 l 17
 600 50 600 200 600 200 c 25
 600 200 600 350 450 350 c 13
 425 350 l 25
50 50 m 1
 150 50 150 150 150 150 c 25
 150 700 l 25
 425 700 l 17
 425 400 l 1
 450 400 l 1
 650 400 650 200 650 200 c 1
 650 200 650 0 450 0 c 9
 375 0 l 25
 375 650 l 25
 200 650 l 25
 200 150 l 25
 200 150 200 0 50 0 c 1
 50 50 l 1
EndSplineSet
EndChar

StartChar: glyph298
Encoding: 399 399 298
Width: 500
VWidth: 0
Flags: W
HStem: 0 50<170.831 329.169> 325 50<100 400> 650 50<170.831 329.169>
VStem: 50 50<200 325> 400 50<200 325 375 500>
CounterMasks: 1 e0
LayerCount: 2
Fore
SplineSet
400 325 m 1
 100 325 l 1
 100 200 l 1
 100 200 100 50 250 50 c 1
 400 50 400 200 400 200 c 1
 400 325 l 1
400 375 m 1
 400 500 l 1
 400 500 400 650 250 650 c 1
 100 650 100 500 100 500 c 1
 50 500 l 1
 50 500 50 700 250 700 c 1
 450 700 450 500 450 500 c 1
 450 200 l 1
 450 200 450 0 250 0 c 1
 50 0 50 200 50 200 c 1
 50 375 l 1
 400 375 l 1
EndSplineSet
EndChar

StartChar: glyph299
Encoding: 601 601 299
Width: 500
VWidth: 0
Flags: W
HStem: 0 50<170.831 329.169> 325 50<100 400> 650 50<170.831 329.169>
VStem: 50 50<200 325> 400 50<200 325 375 500>
LayerCount: 2
Fore
SplineSet
400 325 m 1
 100 325 l 1
 100 200 l 1
 100 200 100 50 250 50 c 1
 400 50 400 200 400 200 c 1
 400 325 l 1
400 375 m 1
 400 500 l 1
 400 500 400 650 250 650 c 1
 100 650 100 500 100 500 c 1
 50 500 l 1
 50 500 50 700 250 700 c 1
 450 700 450 500 450 500 c 1
 450 200 l 1
 450 200 450 0 250 0 c 1
 50 0 50 200 50 200 c 1
 50 375 l 1
 400 375 l 1
EndSplineSet
EndChar
